<?xml version="1.0" standalone="no"?>
<!DOCTYPE svg PUBLIC "-//W3C//DTD SVG 1.1//EN" "http://www.w3.org/Graphics/SVG/1.1/DTD/svg11.dtd" >
<svg xmlns="http://www.w3.org/2000/svg">
<metadata>Generated by IcoMoon</metadata>
<defs>
<font id="ios" horiz-adv-x="1024">
<font-face units-per-em="1024" ascent="960" descent="-64" />
<missing-glyph horiz-adv-x="1024" />
<glyph unicode="&#x20;" horiz-adv-x="512" d="" />
<glyph unicode="&#xe900;" glyph-name="add-circle-outline" d="M693 480h-149v149c0 17.6-14.4 32-32 32s-32-14.4-32-32v-149h-149c-17.6 0-32-12-32-32s15-32 32-32 149 0 149 0 0-130 0-149 14-32 32-32 32 14.4 32 32v149h149c17.6 0 32 14.4 32 32s-14.4 32-32 32zM512 808c96.2 0 186.6-37.4 254.6-105.4s105.4-158.4 105.4-254.6-37.4-186.6-105.4-254.6-158.4-105.4-254.6-105.4c-96.2 0-186.6 37.4-254.6 105.4s-105.4 158.4-105.4 254.6 37.4 186.6 105.4 254.6c68 68 158.4 105.4 254.6 105.4zM512 864c-229.8 0-416-186.2-416-416s186.2-416 416-416c229.8 0 416 186.2 416 416s-186.2 416-416 416v0z" />
<glyph unicode="&#xe901;" glyph-name="add-circle" d="M512 864c-229.8 0-416-186.2-416-416s186.2-416 416-416c229.8 0 416 186.2 416 416s-186.2 416-416 416zM693 416h-149v-149c0-17.6-14.4-32-32-32-8.8 0-16.8 3.6-22.6 9.4s-9.4 13.8-9.4 22.6v149h-149c-8.8 0-16.8 3.6-22.6 9.4s-9.4 13.8-9.4 22.6c0 17.6 14.4 32 32 32h149v149c0 17.6 14.4 32 32 32s32-14.4 32-32v-149h149c17.6 0 32-14.4 32-32s-14.4-32-32-32z" />
<glyph unicode="&#xe902;" glyph-name="add" d="M737 480h-193v193c0 17.6-14.4 32-32 32s-32-14.4-32-32v-193h-193c-17.6 0-32-14.4-32-32 0-8.8 3.6-16.8 9.4-22.6s13.8-9.4 22.6-9.4h193v-193c0-8.8 3.6-16.8 9.4-22.6s13.8-9.4 22.6-9.4c17.6 0 32 14.4 32 32v193h193c17.6 0 32 14.4 32 32s-14.4 32-32 32z" />
<glyph unicode="&#xe903;" glyph-name="airplane" d="M815.4 512c-6.8 0-29.6-0.2-36-0.6l-129.8-3.4c-1.4 0-2.8 0.6-3.4 1.8l-194.6 291.4c-5.8 9.2-16.2 14.8-27 14.8h-47.4c-11.2 0-15-11.2-11-21.6l100.2-285.6c1-2.6-0.8-5.4-3.6-5.4l-244.8-3.6c-5.2-0.2-10 2.2-13.2 6.2l-74 90c-6 7.8-15.4 12.2-25.2 12.2h-33.6c-5.6 0-9.4-5.4-7.6-10.6l39.8-137.4c3-7.6 3-16.2 0-23.8l-39.8-137.4c-1.8-5.2 2-10.6 7.6-10.6h33.4c9.8 0 19.2 4.6 25.2 12.2l75.4 91.4c3.2 4 8.2 6.4 13.2 6.2l243.4-5.4c2.8-0.2 4.6-2.8 3.6-5.4l-100.2-285.8c-4-10.4-0.2-21.6 11-21.6h47.4c11 0 21.2 5.6 27 14.8l194.8 291.2c0.8 1.2 2 1.8 3.4 1.8l129.8-3.4c6.6-0.4 29.2-0.6 36-0.6 88.6 0 144.6 28.6 144.6 64s-55.8 64.2-144.6 64.2z" />
<glyph unicode="&#xe904;" glyph-name="alarm" d="M762.4 831.8c-2.6 0.2-5.2 0.2-7.8 0.2h-0.4c-32.4 0-64-10.8-89.2-30.2-3.2-2.6-5.2-6.4-5.4-10.4s1.6-8 4.6-10.8l179.6-161c2.6-2.2 5.8-3.6 9.2-3.6 0.2 0 0.6 0 0.8 0 3.8 0.2 7.2 2 9.6 4.8 18.4 21.2 32.6 37.6 32.6 73.2 0.2 72.8-58.2 133.6-133.6 137.8zM128 694c0-35.6 14.2-52 32.6-73.2 2.4-2.8 5.8-4.6 9.6-4.8 0.2 0 0.6 0 0.8 0 3.4 0 6.6 1.2 9.2 3.6l179.8 161c3 2.8 4.8 6.6 4.6 10.8-0.2 4-2 7.8-5.4 10.4-25.2 19.4-56.8 30.2-89.2 30.2h-0.4c-2.6 0-5.2 0-7.8-0.2-75.4-4.2-134-65-133.8-137.8zM780 188c52.4 61.4 84 141 84 228 0 194.4-157.6 352-352 352s-352-157.6-352-352c0-87 31.6-166.6 84-228l-69.4-71c-12.4-12.6-12-31 0.6-43.2 6.2-6 14.8-9.6 22.8-9.6 8.4 0 16.2 3.8 22.4 10.2l69.2 69c60.6-49.4 138-79.2 222.4-79.2s161.8 29.6 222.4 79.2l67.2-69c6.2-6.4 14.6-10.2 23-10.2 8 0 16.2 3.6 22.4 9.6 12.6 12.4 15 30.6 2.6 43.2l-69.6 71zM540 412c0-15.4-12.6-28-28-28h-164c-15.4 0-28 12.6-28 28s12.6 28 28 28h136v204c0 15.4 12.6 28 28 28s28-12.6 28-28v-232z" />
<glyph unicode="&#xe905;" glyph-name="albums" d="M921.8 638h-819.6c-38.6 0-70.2-31.6-70.2-70.2v-463.8c0-38.6 31.6-70.2 70.2-70.2h819.8c38.6 0 70.2 31.6 70.2 70.2v463.8c-0.2 38.6-31.8 70.2-70.4 70.2zM868 694h-712c-15.4 0-28 12.6-28 28v0c0 15.4 12.6 28 28 28h712c15.4 0 28-12.6 28-28v0c0-15.4-12.6-28-28-28zM806.4 806h-588.8c-14 0-25.6 11.6-25.6 25.6v4.8c0 14 11.6 25.6 25.6 25.6h588.8c14 0 25.6-11.6 25.6-25.6v-4.8c0-14-11.6-25.6-25.6-25.6z" />
<glyph unicode="&#xe906;" glyph-name="alert" d="M512 864c-229.8 0-416-186.2-416-416s186.2-416 416-416c229.8 0 416 186.2 416 416s-186.2 416-416 416zM546.4 644.8l-6.2-230.2c-0.4-16.4-11.8-29.6-28.2-29.6v0c-16.4 0-27.8 13.2-28.2 29.6l-6.2 230.2c-0.4 19.2 15 35.2 34.4 35.2v0c19.2 0 34.8-15.8 34.4-35.2zM512 252c-21.4 0-38.2 16.2-38.2 36.8s16.8 36.8 38.2 36.8c21.4 0 38.2-16.2 38.2-36.8s-16.8-36.8-38.2-36.8z" />
<glyph unicode="&#xe907;" glyph-name="american-football" d="M757.2 693.2c-81 81-189.4 124.8-294.4 147.6l-343.6-343.6c22.8-105.2 66.6-213.4 147.6-294.4s189.4-124.8 294.4-147.6l343.6 343.6c-22.8 105-66.6 213.4-147.6 294.4zM688.2 384l-38.4-38.4 29.6-29.6c9.8-9.8 9.8-25.4 0-35.2v0c-9.8-9.8-25.4-9.8-35.2 0l-29.6 29.6-38.6-38.8c-4-4-9-6.8-14.6-7.8-8.4-1.4-16.8 1.4-22.6 7.2v0c-3 3-5.2 6.6-6.4 10.6-2.8 9.8-0.2 19.4 6.4 26.2l39 39-31.2 31.2-38.6-38.6c-4.2-4.2-9.4-7-15.2-7.8-11-1.4-21.4 3.8-26.8 14-0.6 1.2-1.2 2.4-1.6 3.8-3 9.8-0.4 19.6 6.4 26.4l39 39-31 31.2-38.6-38.6c-4.2-4.2-9.4-7-15.2-7.8-11-1.4-21.4 3.8-26.8 14-0.6 1.2-1.2 2.4-1.6 3.8-3 9.8-0.4 19.6 6.4 26.4l39 39-31 31.2-38.6-38.6c-4.2-4.2-9.4-7-15.2-7.8-11-1.4-21.4 3.8-26.8 14-0.6 1.2-1.2 2.4-1.6 3.8-3 9.8-0.4 19.6 6.4 26.4l39 39-29.6 29.6c-9.8 9.8-9.8 25.4 0 35.2v0c9.8 9.8 25.4 9.8 35.2 0l29.6-29.6 38.6 38.6c4.2 4.2 9.4 7 15.2 7.8 11 1.4 21.4-3.8 26.8-14 0.6-1.2 1.2-2.4 1.6-3.8 3-9.8 0.4-19.6-6.4-26.4l-39-39 31.2-31.2 38.6 38.6c4 4 9 6.8 14.6 7.8 8.4 1.4 16.8-1.4 22.6-7.2v0c3-2.8 5.2-6.4 6.4-10.4 3-9.8 0.4-19.6-6.4-26.4l-39.2-39.2 31.2-31.2 38.6 38.6c4.2 4.2 9.4 7 15.2 7.8 11 1.4 21.4-3.8 26.8-14 0.6-1.2 1.2-2.4 1.6-3.8 3-9.8 0.4-19.6-6.4-26.4l-39-39 31.2-31.2 38.6 38.6c4.4 4.4 10 7.2 16 8 8.8 1 17.2-2.4 22.8-9.2 8.2-10 7-26.2-2.4-35.4zM790.2 32c55.2 0 97.6 3.6 117.6 5.8 7.4 0.8 13.4 6.8 14.2 14.2 4 37.8 13.6 155.2-6.4 287.4l-295-295.2c62-9.4 120.8-12.2 169.6-12.2zM233.6 864c-55 0-97.6-3.6-117.6-5.8-7.4-0.8-13.4-6.8-14.2-14.2-4-37.8-13.6-155.2 6.4-287.2l295 295c-62 9.4-120.8 12.2-169.6 12.2z" />
<glyph unicode="&#xe908;" glyph-name="analytics" d="M512 864c-229.8 0-416-186.2-416-416s186.2-416 416-416c229.8 0 416 186.2 416 416s-186.2 416-416 416zM152 448c0 96.2 37.4 186.6 105.4 254.6s158.4 105.4 254.6 105.4c96.2 0 186.6-37.4 254.6-105.4 64.4-64.4 101.4-149 105.2-239.4-17.6 20.6-48.4 48-87.6 48-55 0-83.4-51.4-102-85.4-2.8-5-5.4-9.8-7.8-14-22.8-38.4-54.6-60-85-57.8-26.8 1.8-49.6 22.4-64.4 57.6-18.4 44.2-58.2 91.6-105.8 98.4-22.6 3.2-56.2-1.6-89.4-42.8-6.4-8-13.8-18.8-22.2-31.2-20.8-31-52.4-77.6-76.2-81.6-34.6-5.6-61.8 15-72.8 24.6-4.4 22.4-6.6 45.6-6.6 69z" />
<glyph unicode="&#xe909;" glyph-name="aperture" d="M500.4 217.2c-3.6 0-5.4-4.4-2.8-6.8l154.4-154.4c84.8 30.4 157 87.4 206.2 161.2h-357.8zM334 290.8v-218.8c54-25.6 114.2-40 178-40 28.2 0 55.8 2.8 82.4 8.2l-253.6 253.4c-2.4 2.6-6.8 0.8-6.8-2.8zM512 864c-27.8 0-54.8-2.8-81-8l253.6-253.6c2.6-2.6 6.8-0.8 6.8 2.8v218.2c-54.2 26-115 40.6-179.4 40.6zM136.2 626.8c-25.8-54.2-40.2-114.8-40.2-178.8 0-28.2 2.8-55.8 8.2-82.4l254.2 254.4c2.6 2.6 0.8 6.8-2.8 6.8h-219.4zM373.4 840.2c-85.4-30.2-158-87.4-207.4-161.6h359.4c3.6 0 5.4 4.4 2.8 6.8l-154.8 154.8zM334 518.8v-141.4c0-2.2 0.8-4.2 2.4-5.6l100-100c1.6-1.6 3.6-2.4 5.6-2.4h141.4c2.2 0 4.2 0.8 5.6 2.4l100 100c1.6 1.6 2.4 3.6 2.4 5.6v141.4c0 2.2-0.8 4.2-2.4 5.6l-100 100c-1.6 1.6-3.6 2.4-5.6 2.4h-141.4c-2.2 0-4.2-0.8-5.6-2.4l-100-100c-1.4-1.6-2.4-3.6-2.4-5.6zM920 529l-252.8-253c-2.6-2.6-0.8-6.8 2.8-6.8h217.6c26 54.2 40.4 114.8 40.4 178.8 0 27.8-2.8 54.8-8 81zM743.6 793.6v-358c0-3.6 4.4-5.4 6.8-2.8l153.8 153.8c-30 85.2-87 157.6-160.6 207zM120.2 308.2c30.4-85.2 87.8-157.6 162-206.8v359c0 3.6-4.4 5.4-6.8 2.8l-155.2-155z" />
<glyph unicode="&#xe90a;" glyph-name="apps" d="M869.6 684.8l-298.8 136.2c-32.4 14.8-85.4 14.8-117.8 0l-298.6-136.2c-35.2-16-35.2-42.2 0-58.2l296-135c33.8-15.4 89.4-15.4 123.2 0l296 135c35.2 16 35.2 42.2 0 58.2zM450.4 209.6l-199.6 91c-8.4 3.8-18.2 3.8-26.6 0l-69.8-31.8c-35.2-16-35.2-42.2 0-58.2l296-135c33.8-15.4 89.4-15.4 123.2 0l296 135c35.2 16 35.2 42.2 0 58.2l-69.8 31.8c-8.4 3.8-18.2 3.8-26.6 0l-199.6-91c-33.8-15.4-89.4-15.4-123.2 0zM869.6 476.8l-63.4 28.8c-8.4 3.8-18 3.8-26.4 0l-216-97.8c-30.6-10.4-73.2-10.4-103.8 0l-216 97.8c-8.4 3.8-18 3.8-26.4 0l-63.4-28.8c-35.2-16-35.2-42.2 0-58.2l296-135c33.8-15.4 89.4-15.4 123.2 0l296 135c35.4 16 35.4 42.2 0.2 58.2z" />
<glyph unicode="&#xe90b;" glyph-name="appstore" d="M512 864c-229.8 0-416-186.2-416-416s186.2-416 416-416c229.8 0 416 186.2 416 416s-186.2 416-416 416zM354.2 270.2c-5.4-9.2-15-14.2-25-14.2-5 0-10 1.2-14.6 4-13.8 8-18.4 25.6-10.4 39.4l28.4 47.2c3 5 8.2 8 14 8h4.2c20.6 0 35-12.4 39.2-24.4l-35.8-60zM594.6 363l-309.6-0.2c-16.4 0-29.6 13.6-28.8 30 0.6 15.6 14.2 27.4 29.8 27.4h89.6c0 0 0 0 0 0l106.2 180.8c0 0 0 0 0 0l-34.4 58.6c-7.8 13.4-4.4 31 8.8 39.4 14 9 32.4 4.4 40.6-9.6l18.4-31.4c0 0 0 0 0.2 0l18.4 31.4c8.2 14 26.8 18.6 40.6 9.6 13.2-8.4 16.6-26 8.8-39.4l-34.4-58.6-106-180.8c0 0 0 0 0-0.2h107c13.4 0 30.2-7.2 37-18.8l0.6-1.2c6-10.2 9.4-17.2 9.4-27.4-0.2-5.6-2.2-9.6-2.2-9.6zM739 362.8h-50.4c0 0 0 0 0-0.2l36.8-62.6c8-13.6 4.2-31.6-9.6-40-4.6-2.8-9.8-4.2-15-4.2-10 0-19.6 5.2-25 14.2l-88.2 150.2-43.6 74.6c-12.8 21.8-13.4 49-1.2 70.6 8.6 15.2 15.2 19.2 15.2 19.2l97-164.2c0 0 0 0 0 0h83.4c15.6 0 29-12 29.8-27.4 0.6-16.6-12.6-30.2-29.2-30.2z" />
<glyph unicode="&#xe90c;" glyph-name="archive" d="M920 720h-816c-4.4 0-8 3.6-8 8v40c0 35.4 28.6 64 64 64h704c35.4 0 64-28.6 64-64v-40c0-4.4-3.6-8-8-8zM880 668h-736c-8.8 0-16-7.2-16-16v-524c0-35.2 28.8-64 64-64h640c35.2 0 64 28.8 64 64v524c0 8.8-7.2 16-16 16zM612 384h-199.2c-14.2 0-26.8 10.4-28.6 24.6-2 17 11.2 31.4 27.8 31.4h199.2c14.2 0 26.8-10.4 28.6-24.6 2-16.8-11.2-31.4-27.8-31.4z" />
<glyph unicode="&#xe90d;" glyph-name="arrow-back" d="M435.8 448l254.2 254c18.8 18.8 18.8 49.2 0 67.8-18.8 18.8-49.2 18.6-68 0l-288-287.8c-18.2-18.2-18.6-47.4-1.4-66.2l289.2-289.8c9.4-9.4 21.8-14 34-14s24.6 4.6 34 14c18.8 18.8 18.8 49.2 0 67.8l-254 254.2z" />
<glyph unicode="&#xe90e;" glyph-name="arrow-down" d="M512 371.8l254 254.2c18.8 18.8 49.2 18.8 67.8 0s18.6-49.2 0-68l-287.8-288c-18.2-18.2-47.4-18.6-66.2-1.4l-289.8 289.2c-9.4 9.4-14 21.8-14 34s4.6 24.6 14 34c18.8 18.8 49.2 18.8 67.8 0l254.2-254z" />
<glyph unicode="&#xe90f;" glyph-name="arrow-dropdown-circle" d="M96 448c0-229.8 186.2-416 416-416s416 186.2 416 416c0 229.8-186.2 416-416 416s-416-186.2-416-416zM674.2 534.8c15 15 39.6 15 54.6 0 7.6-7.6 11.2-17.4 11.2-27.2s-3.8-19.8-11.4-27.4l-188.6-188c-15.2-13.8-38.6-13.4-53.2 1.2l-191.4 190.8c-15 15-15.2 39.4 0 54.6 15 15 39.4 15.2 54.6 0l162.2-163.8 162 159.8z" />
<glyph unicode="&#xe910;" glyph-name="arrow-dropdown" d="M295.2 538.6c-15-15-15-39.6 0-54.6l191.4-190.8c14.6-14.6 38.2-15 53.2-1.2l188.6 188c7.6 7.6 11.4 17.4 11.4 27.4 0 9.8-3.8 19.8-11.2 27.2-15 15-39.4 15.2-54.6 0l-162-159.6-162.2 163.8c-15 15-39.4 15-54.6-0.2zM96 448c0-229.8 186.2-416 416-416s416 186.2 416 416c0 229.8-186.2 416-416 416s-416-186.2-416-416zM760.8 696.8c66.6-66.4 103.2-154.8 103.2-248.8s-36.6-182.4-103.2-248.8c-66.4-66.6-154.8-103.2-248.8-103.2s-182.4 36.6-248.8 103.2c-66.6 66.4-103.2 154.8-103.2 248.8s36.6 182.4 103.2 248.8c66.4 66.6 154.8 103.2 248.8 103.2s182.4-36.6 248.8-103.2z" />
<glyph unicode="&#xe911;" glyph-name="arrow-dropleft-circle" d="M512 864c-229.8 0-416-186.2-416-416s186.2-416 416-416c229.8 0 416 186.2 416 416s-186.2 416-416 416zM598.8 285.8c15-15 15-39.6 0-54.6-7.6-7.6-17.4-11.2-27.2-11.2s-19.8 3.8-27.4 11.4l-188 188.6c-13.8 15.2-13.4 38.6 1.2 53.2l190.8 191.4c15 15 39.4 15.2 54.6 0 15-15 15.2-39.4 0-54.6l-163.8-162 159.8-162.2z" />
<glyph unicode="&#xe912;" glyph-name="arrow-dropleft" d="M602.6 664.8c-15 15-39.6 15-54.6 0l-190.8-191.4c-14.6-14.6-15-38.2-1.2-53.2l188-188.6c7.6-7.6 17.4-11.4 27.4-11.4 9.8 0 19.8 3.8 27.2 11.2 15 15 15.2 39.4 0 54.6l-159.6 162 163.8 162.2c15 15 15 39.4-0.2 54.6zM512 864c-229.8 0-416-186.2-416-416s186.2-416 416-416c229.8 0 416 186.2 416 416s-186.2 416-416 416zM760.8 199.2c-66.4-66.6-154.8-103.2-248.8-103.2s-182.4 36.6-248.8 103.2c-66.6 66.4-103.2 154.8-103.2 248.8s36.6 182.4 103.2 248.8c66.4 66.6 154.8 103.2 248.8 103.2s182.4-36.6 248.8-103.2c66.6-66.4 103.2-154.8 103.2-248.8s-36.6-182.4-103.2-248.8z" />
<glyph unicode="&#xe913;" glyph-name="arrow-dropright-circle" d="M96 448c0-229.8 186.2-416 416-416s416 186.2 416 416-186.2 416-416 416c-229.8 0-416-186.2-416-416zM585 448l-163.8 162.2c-15 15-15 39.6 0 54.6s39.6 15 54.6 0l190.8-191.4c14.6-14.6 15-38.2 1.2-53.2l-188-188.6c-7.6-7.6-17.4-11.4-27.4-11.4-9.8 0-19.8 3.8-27.2 11.2-15 15-15.2 39.4 0 54.6l159.8 162z" />
<glyph unicode="&#xe914;" glyph-name="arrow-dropright" d="M421.4 664.8c15 15 39.6 15 54.6 0l190.8-191.4c14.6-14.6 15-38.2 1.2-53.2l-188-188.6c-7.6-7.6-17.4-11.4-27.4-11.4-9.8 0-19.8 3.8-27.2 11.2-15 15-15.2 39.4 0 54.6l159.8 162.2-163.8 162.2c-15.2 14.8-15.2 39.2 0 54.4zM96 448c0-229.8 186.2-416 416-416s416 186.2 416 416-186.2 416-416 416c-229.8 0-416-186.2-416-416zM160 448c0 94 36.6 182.4 103.2 248.8 66.4 66.6 154.8 103.2 248.8 103.2s182.4-36.6 248.8-103.2c66.6-66.4 103.2-154.8 103.2-248.8s-36.6-182.4-103.2-248.8c-66.4-66.6-154.8-103.2-248.8-103.2s-182.4 36.6-248.8 103.2c-66.6 66.4-103.2 154.8-103.2 248.8z" />
<glyph unicode="&#xe915;" glyph-name="arrow-dropup-circle" d="M512 32c229.8 0 416 186.2 416 416s-186.2 416-416 416-416-186.2-416-416c0-229.8 186.2-416 416-416zM512 521l-162.2-163.8c-15-15-39.6-15-54.6 0s-15 39.6 0 54.6l191.4 190.8c14.6 14.6 38.2 15 53.2 1.2l188.6-188c7.6-7.6 11.4-17.4 11.4-27.4 0-9.8-3.8-19.8-11.2-27.2-15-15-39.4-15.2-54.6 0l-162 159.8z" />
<glyph unicode="&#xe916;" glyph-name="arrow-dropup" d="M295.2 357.4c-15 15-15 39.6 0 54.6l191.4 190.8c14.6 14.6 38.2 15 53.2 1.2l188.6-188c7.6-7.6 11.4-17.4 11.4-27.4 0-9.8-3.8-19.8-11.2-27.2-15-15-39.4-15.2-54.6 0l-162 159.6-162.2-163.8c-15-15-39.4-15-54.6 0.2zM512 32c229.8 0 416 186.2 416 416s-186.2 416-416 416-416-186.2-416-416c0-229.8 186.2-416 416-416zM512 96c-94 0-182.4 36.6-248.8 103.2-66.6 66.4-103.2 154.8-103.2 248.8s36.6 182.4 103.2 248.8c66.4 66.6 154.8 103.2 248.8 103.2s182.4-36.6 248.8-103.2c66.6-66.4 103.2-154.8 103.2-248.8s-36.6-182.4-103.2-248.8c-66.4-66.6-154.8-103.2-248.8-103.2z" />
<glyph unicode="&#xe917;" glyph-name="arrow-forward" d="M588.2 448l-254.2 254c-18.8 18.8-18.8 49.2 0 67.8s49.2 18.6 68 0l288-287.8c18.2-18.2 18.6-47.4 1.4-66.2l-289.2-289.8c-9.4-9.4-21.8-14-34-14s-24.6 4.6-34 14c-18.8 18.8-18.8 49.2 0 67.8l254 254.2z" />
<glyph unicode="&#xe918;" glyph-name="arrow-round-back" d="M432.8 632.6c10.2-10 10.2-26.6 0.2-36.8l-121.4-121.8h462.6c14.2 0 25.8-11.6 25.8-26s-11.6-26-25.8-26h-462.6l121.6-121.8c10-10.2 9.8-26.6-0.2-36.8-10.2-10-26.4-10-36.6 0.2l-164.8 166c0 0 0 0 0 0-2.2 2.4-4 5-5.4 8.2s-2 6.6-2 10c0 6.8 2.6 13.2 7.4 18.2l164.8 166c9.8 10.4 26.2 10.6 36.4 0.6z" />
<glyph unicode="&#xe919;" glyph-name="arrow-round-down" d="M696.6 368.8c-10 10.2-26.6 10.2-36.8 0.2l-121.8-121.4v462.6c0 14.2-11.6 25.8-26 25.8s-26-11.6-26-25.8v-462.6l-121.8 121.6c-10.2 10-26.6 9.8-36.8-0.2-10-10.2-10-26.4 0.2-36.6l166-164.8c0 0 0 0 0 0 2.4-2.2 5-4 8.2-5.4s6.6-2 10-2c6.8 0 13.2 2.6 18.2 7.4l166 164.8c10.4 9.8 10.6 26.2 0.6 36.4z" />
<glyph unicode="&#xe91a;" glyph-name="arrow-round-forward" d="M591.2 632.6c-10.2-10-10.2-26.6-0.2-36.8l121.6-121.8h-462.8c-14.2 0-25.8-11.6-25.8-26s11.6-26 25.8-26h462.6l-121.6-121.8c-10-10.2-9.8-26.6 0.2-36.8 10.2-10 26.4-10 36.6 0.2l164.8 166c0 0 0 0 0 0 2.2 2.4 4 5 5.4 8.2s2 6.6 2 10c0 6.8-2.6 13.2-7.4 18.2l-164.8 166c-9.8 10.4-26.2 10.6-36.4 0.6z" />
<glyph unicode="&#xe91b;" glyph-name="arrow-round-up" d="M696.6 527.2c-10-10.2-26.6-10.2-36.8-0.2l-121.8 121.4v-462.6c0-14.2-11.6-25.8-26-25.8s-26 11.6-26 25.8v462.6l-121.8-121.6c-10.2-10-26.6-9.8-36.8 0.2-10 10.2-10 26.4 0.2 36.6l166 164.8c0 0 0 0 0 0 2.4 2.2 5 4 8.2 5.4s6.6 2 10 2c6.8 0 13.2-2.6 18.2-7.4l166-164.8c10.4-9.8 10.6-26.2 0.6-36.4z" />
<glyph unicode="&#xe91c;" glyph-name="arrow-up" d="M512 524.2l254-254.2c18.8-18.8 49.2-18.8 67.8 0 18.8 18.8 18.6 49.2 0 68l-287.8 288c-18.2 18.2-47.4 18.6-66.2 1.4l-289.8-289.2c-9.4-9.4-14-21.8-14-34s4.6-24.6 14-34c18.8-18.8 49.2-18.8 67.8 0l254.2 254z" />
<glyph unicode="&#xe91d;" glyph-name="at" d="M896 491.4c0-148.2-69.4-241.6-179.2-241.6-56.2 0-99 30-106.4 74.6h-8c-19.8-46.4-60.6-71.8-115.4-71.8-97.6 0-162.8 78.2-162.8 194.6 0 111.8 65.6 189.6 161.4 189.6 49.2 0 91-24.8 109.4-65.4h8v55.6h79.8v-258.6c0-32.2 17.8-51.6 49.8-51.6 55.4 0 90.6 67.2 90.6 171.6 0 166.6-124.8 278-309.2 278-182.4 0-312.4-133-312.4-321.2 0-192.4 128.6-315.2 328.8-315.2 39.2 0 78.6 3.4 108.8 9.2 19.6 3.6 37.6-11.2 37.6-31v0c0-14.6-10-27.4-24.2-30.8-36.4-8.6-80.2-13.6-125.4-13.6-243.4 0.2-399.2 150.6-399.2 384 0 227.8 159 384.2 390.8 384.2 222.8 0 377.2-139 377.2-340.6zM410.4 445.4c0-74 34.8-118.8 91.4-118.8 59.6 0 97.2 46 97.2 118.8s-37.6 117.8-96.2 117.8c-58.2 0-92.4-43.6-92.4-117.8z" />
<glyph unicode="&#xe91e;" glyph-name="attach" d="M711.8 637.8c-17.2 0-31.2-14-31.2-31.2v-388.8c0-40.6-16-80.8-44-110.2-27.8-29.2-70.4-47.4-111-47.4h-27.2c-39.2 0-79 17.8-109.6 49.2-30.4 31-47.8 71.2-47.8 110.4v501.6c0 29.8 12.4 57.8 34.6 79 22.2 21 51.4 32.6 82 32.6 30.2 0 58.6-11.6 79.6-32.4 21-21 32.8-49.2 32.8-79.2v-468.4c0-34.2-27.2-64.4-58-64.4-27.2 0-56.4 25.8-56.4 64.4v267.2c0 17.2-14 31.2-31.2 31.2s-31.2-14-31.2-31.2v-267.2c0-71 51-124.6 118.8-124.6 33 0 63.4 12.2 85.4 34.6 22.6 22.8 35 54.8 35 90v468.4c0 46.8-18.2 90.8-51.4 123.6-33 33-77 51-124 51s-91-18-124.4-51c-33.4-33-51.8-76.8-51.8-123.8v-501.6c0-57.4 24.4-115.8 65.2-156 41.8-41.2 95.8-63.8 152.2-63.8h27.2c55.2 0 110.6 23.4 151.8 64.2 20.4 20.2 36.4 43.4 47.8 69.2 11.8 27 17.8 55.4 17.8 84.2v389.2c0.2 17.2-13.8 31.2-31 31.2z" />
<glyph unicode="&#xe91f;" glyph-name="backspace" d="M790 768h-330c-93.4 0-146.4-69.4-204-127s-144.2-149.4-144.2-149.4c-9.8-11.2-15.8-25.6-15.8-41.8 0-16 6-30.6 15.8-42 0 0 68.6-75.2 144.2-151 75.6-75.6 113.4-129 204-129h330c77 0 138 65 138 142v360.2c0 77-61 138-138 138zM754.6 342.6c12.4-12.4 12.4-32.8 0-45.2s-32.8-12.4-45.2 0l-105.4 105.4-105.4-105.4c-12.4-12.4-32.6-12.8-45.2 0-12.8 12.8-13.4 31.8 0 45.2s105.4 105.4 105.4 105.4-93.4 93.4-105.4 105.4c-12 12-14.2 31.2 0 45.2 14.2 14.2 32.8 12.4 45.2 0l105.4-105.4 105.4 105.4c12.4 12.4 32.8 12.4 45.2 0s12.4-32.8 0-45.2l-105.4-105.4 105.4-105.4z" />
<glyph unicode="&#xe920;" glyph-name="barcode" d="M243.2 184h-81.6c-4.4 0-8 3.6-8 8v512c0 4.4 3.6 8 8 8h81c15.8 0 29 12.8 29.4 28 0.2 7.8-2.6 14.4-8.2 20-5.4 5.6-16 8-23.8 8h-108c-20 0-36-12-36-32v-576c0-20 14-32 34-32h112.6c15.8 0 29 10.4 29.4 25.6 0.2 7.8-2.6 15-8.2 20.6-5.4 5.6-12.8 9.8-20.6 9.8zM894 768h-112.6c-19 0-34.2-16.6-28-36.6 0.4-1.4 1-2.6 1.6-3.8 5.4-10.4 15.2-15.6 25.8-15.6h81.6c4.4 0 8-3.6 8-8v-511.8c0-4.4-3.6-8-8-8h-81c-15.8 0-29-12.4-29.4-27.8-0.2-7.8 2.6-15.2 8.2-20.8 5.4-5.6 12.8-7.6 20.6-7.6h113.2c20 0 34 12 34 32.8v575.2c0 20-14 32-34 32zM245 608c-15.4 0-28-12.6-28-27.8v-264.2c0-15.4 12.6-27.8 28-27.8s28 12.6 28 27.8v264.2c0 15.2-12.6 27.8-28 27.8zM779 288c15.4 0 28 12.6 28 27.8v264.4c0 15.4-12.6 27.8-28 27.8s-28-12.6-28-27.8v-264.2c0-15.4 12.6-28 28-28zM653 672c-15.4 0-28-13-28-28.8v-390.2c0-16 12.6-28.8 28-28.8s28 13 28 28.8v390.2c0 15.8-12.6 28.8-28 28.8zM371 672c-15.4 0-28-13-28-28.8v-390.2c0-16 12.6-28.8 28-28.8s28 13 28 28.8v390.2c0 15.8-12.4 28.8-28 28.8zM512 640c-15.4 0-28-12.8-28-28.4v-327c0-15.6 12.6-28.4 28-28.4s28 12.8 28 28.4v327c0 15.6-12.6 28.4-28 28.4z" />
<glyph unicode="&#xe921;" glyph-name="baseball" d="M512.6 811.6l19.4 6.2c9.4 3 19.4-2.2 22.4-11.4l0.2-0.8c3-9.4-2.2-19.4-11.4-22.4l-23-7.2c-4.2-1.4-6.4-5.8-5.2-9.8 4.2-13.8 9-27.4 14.4-41 3.8-9.2 7.8-18.4 12.2-27.4 2.2-4.4 7.6-6 11.8-3.2l17 11.6c8.2 5.4 19.2 3.4 24.6-4.8l0.4-0.6c5.4-8.2 3.4-19.2-4.8-24.6l-20.8-14.2c-3.6-2.4-4.6-7.2-2.4-10.8 14-22 29.8-43 47.4-62.6 3-3.4 8.4-3.6 11.6-0.4l15 15c7 7 18.2 7 25 0l0.6-0.6c7-7 7-18.2 0-25l-15-15c-3.2-3.2-3-8.6 0.4-11.6 20.4-18.2 42-34.6 65-48.8 3.6-2.2 8.4-1.2 10.8 2.4l13.8 20.4c5.4 8.2 16.6 10.2 24.6 4.8l0.6-0.4c8.2-5.4 10.2-16.6 4.8-24.6l-11-16.2c-2.8-4-1.2-9.6 3.2-11.8 8.2-3.8 16.4-7.6 24.8-11 14.2-5.8 28.6-10.8 43.4-15.2 4.2-1.2 8.6 1 10 5.2l7 21.6c3 9.4 13 14.4 22.4 11.4l0.8-0.2c9.4-3 14.4-13 11.4-22.4l-5.6-17.6c-1.4-4.6 1.4-9.4 6.2-10.4 14.2-2.6 28.6-4.6 43-5.8 0 0 0 0 0 0 0.2 5.2 0.4 10.6 0.4 15.8 0 229.8-186.2 416-416 416-5.4 0-10.6-0.2-16-0.4 1.4-15.4 3.4-30.6 6.2-45.8 0.8-5 5.8-7.8 10.4-6.4zM516 65.6c-0.8 4.8-5.6 7.8-10.4 6.4l-23.2-7.4c-9.4-3-19.4 2.2-22.4 11.4l-0.2 0.8c-3 9.4 2.2 19.4 11.4 22.4l27.6 8.8c4 1.4 6.4 5.6 5.2 9.8-4.6 15.8-10 31.2-16.2 46.6-3.2 8-6.6 15.8-10.4 23.6-2 4.4-7.6 6-11.8 3.2l-21.8-14.8c-8.2-5.4-19.2-3.4-24.6 4.8l-0.4 0.6c-5.4 8.2-3.4 19.2 4.8 24.6l26 17.6c3.6 2.4 4.6 7.2 2.4 10.8-14.4 23.4-31 45.4-49.6 66.2-3 3.4-8.4 3.6-11.6 0.4l-19.8-19.8c-7-7-18.2-7-25 0l-0.6 0.6c-7 7-7 18.2 0 25l19.8 19.8c3.2 3.2 3 8.6-0.4 11.6-20 18-41.2 34-63.8 48-3.6 2.2-8.4 1.2-10.8-2.4l-18-26.6c-5.4-8.2-16.6-10.2-24.6-4.8l-0.6 0.4c-8.2 5.4-10.2 16.6-4.8 24.6l15.2 22.6c2.8 4 1.2 9.6-3.2 11.8-8.6 4.2-17.2 8-26.2 11.6-14.6 5.8-29.2 11-44.2 15.4-4 1.2-8.6-1.2-9.8-5.2l-9.2-28.8c-3-9.4-13-14.4-22.4-11.4l-0.8 0.2c-9.4 3-14.4 13-11.4 22.4l8 24.8c1.4 4.6-1.4 9.6-6.2 10.4-11.6 2-23.4 3.6-35.2 4.8-0.2 0-0.6 0-0.8 0.2 0-2.8 0-5.6 0-8.4 0-229.8 186.2-416 416-416 2.8 0 5.6 0 8.4 0 0 0.2-0.2 0.6-0.2 0.8-1 10.8-2.4 21.8-4.2 32.6zM862.2 398.2l-11.8-36.8c-3-9.4-13-14.4-22.4-11.4l-0.8 0.2c-9.4 3-14.4 13-11.4 22.4l10.6 33.2c1.4 4.2-1 8.8-5.4 10.2-27 8-53.6 18.4-79.4 31.2-3.6 1.8-8 0.6-10.2-2.6l-21-30.8c-5.4-8.2-16.6-10.2-24.6-4.8l-0.6 0.4c-8.2 5.4-10.2 16.6-4.8 24.6l18.4 27.2c2.6 3.8 1.4 8.8-2.4 11.2-24.6 15.4-48.2 33.2-70.4 53.4-3.2 2.8-8 2.8-11-0.2l-25.6-25.6c-7-7-18.2-7-25 0l-0.6 0.6c-7 7-7 18.2 0 25l25.6 25.6c3 3 3.2 7.8 0.2 11-19.4 21.6-36.8 44.4-52 68-2.4 3.8-7.6 5-11.2 2.4l-26.6-18c-8.2-5.4-19.2-3.4-24.6 4.8l-0.4 0.6c-5.4 8.2-3.4 19.2 4.8 24.6l30.2 20.4c3.4 2.2 4.4 6.6 2.6 10.2-12.8 25.8-23.4 52.4-31.6 79.4-1.4 4.2-5.8 6.8-10.2 5.4l-31.8-10.2c-9.4-3-19.4 2.2-22.4 11.4l-0.2 0.8c-3 9.4 2.2 19.4 11.4 22.4l35.2 11.2c3.8 1.2 6.2 5.2 5.4 9.2-3.6 18.4-6.2 37.2-7.8 55.8-190.8-23.6-341.6-176.4-362-368.2 0.6 0 1.4 0 2 0 15-1.4 30-3.6 44.8-6.4 4-0.8 8 1.6 9.2 5.4l9.4 29.6c3 9.4 13 14.4 22.4 11.4l0.8-0.2c9.4-3 14.4-13 11.4-22.4l-8.4-26c-1.4-4.4 1-8.8 5.4-10.2 27.8-8.2 55-18.8 81.4-32 3.6-1.8 8-0.6 10.2 2.6l16.6 24.6c5.4 8.2 16.6 10.2 24.6 4.8l0.6-0.4c8.2-5.4 10.2-16.6 4.8-24.6l-14.2-21c-2.6-3.8-1.4-8.8 2.4-11.2 24.2-15.4 47.4-32.8 69.2-52.6 3.2-2.8 8-2.8 11 0.2l20.8 20.8c7 7 18.2 7 25 0l0.6-0.6c7-7 7-18.2 0-25l-20.4-20.8c-3-3-3.2-7.8-0.2-11 20.4-22.6 38.4-46.6 54-71.6 2.4-4 7.4-5 11.4-2.4l21.6 14.6c8.2 5.4 19.2 3.4 24.6-4.8l0.4-0.6c5.4-8.2 3.4-19.2-4.8-24.6l-25.4-17.2c-3.4-2.2-4.4-6.6-2.6-10.2 12.8-26.4 23.4-53.4 31.4-81.2 1.2-4.4 5.8-6.8 10.2-5.4l27.2 8.8c9.4 3 19.4-2.2 22.4-11.4l0.2-0.8c3-9.4-2.2-19.4-11.4-22.4l-31.2-10c-3.8-1.2-6.2-5.2-5.4-9.2 2.6-14 4.6-28.2 6-42.4 0-0.6 0-1.4 0-2 191.8 20.4 344.6 171.2 368.2 362-17.8 1.4-35.8 3.8-53.4 7.2-3.8 0.6-7.8-1.8-9-5.6z" />
<glyph unicode="&#xe922;" glyph-name="basket" d="M775.8 212.6h98.4l35 150.8h-133.4zM775.8 64h1c37.4 0 66.8 25 76.6 59l12 51.8h-89.6v-110.8zM530.8 175h207.4v-111h-207.4v111zM150 212.6h98v150.8h-133zM285.8 576h207.4v-175h-207.4v175zM530.8 576h207.4v-175h-207.4v175zM171 123.4c9.4-34 38.8-59.4 76.2-59.4h1v111h-89.4l12.2-51.6zM285.8 175h207.4v-111h-207.4v111zM530.8 363.4h207.4v-150.8h-207.4v150.8zM285.8 363.4h207.4v-150.8h-207.4v150.8zM928 576h-95.8v192c0 35.2-28.8 64-64 64h-512.4c-35.2 0-64-28.8-64-64v-192h-95.8c-20.6 0-35.8-19.2-31.2-39.2l39.4-135.8h143.8v347c0 15.4 12.6 28 28 28h472c15.4 0 28-12.6 28-28v-347h144l39.2 135.8c4.6 20-10.6 39.2-31.2 39.2z" />
<glyph unicode="&#xe923;" glyph-name="basketball" d="M437.2 347.2c28.6 23.6 56.6 48.8 82.8 75.2 4 4 8 8 12.2 12.2-5.6 5.8-11.2 11.6-16.6 17-99.8 99.8-215.4 179.2-343.6 236.2-36.8-52.2-62-113.2-71.6-179.2 64.4-4.6 126.4-21 184.4-49 57.6-27.8 108.8-65.6 152.4-112.4zM652.2 588.8c1-1 2.2-2.2 3.4-3.2 41.8 61 77.6 126.4 107 194.8-67.6 51-151.2 82-242 83.8 4.8-44.6 16-88.2 33.4-129.4 23-54.8 56.2-104 98.2-146zM798 490.4c41.4-17.6 85.2-28.8 130-33.4-2.4 112.6-49.6 214.2-124.4 287.8-30-67.6-66.6-132.6-108.8-193.6 31.6-24.8 66.4-45.2 103.2-60.8zM387.8 323.8c-42.2 42.2-91.2 75.2-145.8 98.4-46.4 19.6-95.4 31.2-145.8 34.8 0-3-0.2-6-0.2-8.8 0-97.4 33.4-187 89.6-257.8 74.6 34 145.4 75.8 210.8 124.8-3 2.8-5.8 5.8-8.6 8.6zM567.6 472.8c20.2 22.6 39.4 46.2 57.6 70.2-89 84.6-144.2 197.2-156.4 319-103.8-10.8-196.2-59.6-263-132.4 66.8-30.6 131-67.6 191.2-110.2 61-43.4 118.4-92.6 170.6-146.6zM602.8 434.4c77.8-88 141.8-186.4 190.6-292.8 72.8 67 121.8 159.6 132.4 263.4-95.4 9.4-185.6 45.2-261.6 104-19.2-25.4-40-50.6-61.4-74.6zM470.6 307.6c59.8-79 95-172.4 102-271.2 66 9.6 127 34.8 179 71.6-46.8 105.2-108.6 202-184.4 288.4-30.4-31.2-62.8-61-96.6-88.8zM429.8 275.4c-64.8-48.8-134.8-91-208-125.6 75-73 177.2-118 290.2-118 3 0 6 0 9 0.2-3.6 50.4-15.2 99.4-34.8 145.8-14.8 35-33.6 67.6-56.4 97.6z" />
<glyph unicode="&#xe924;" glyph-name="battery-charging" d="M792 672h-664c-52.8 0-96-43.2-96-96v-256c0-52.8 43.2-96 96-96h664c52.8 0 96 43.2 96 96v256c0 52.8-43.2 96-96 96zM832 320c0-22-18-40-40-40h-664c-22 0-40 18-40 40v256c0 22 18 40 40 40h664c22 0 40-18 40-40v-256zM928 550.8v-205.6c32 0 64 55.4 64 102.8s-32 102.8-64 102.8zM768 576h-616c-13.2 0-24-10.8-24-24v-208c0-13.2 10.8-24 24-24h616c13.2 0 24 10.8 24 24v208c0 13.2-10.8 24-24 24zM437.6 344l16.8 86h-54.4l90.4 122-16.8-86h54.4l-90.4-122z" />
<glyph unicode="&#xe925;" glyph-name="battery-dead" d="M792 672h-664c-52.8 0-96-43.2-96-96v-256c0-52.8 43.2-96 96-96h664c52.8 0 96 43.2 96 96v256c0 52.8-43.2 96-96 96zM832 320c0-22-18-40-40-40h-664c-22 0-40 18-40 40v256c0 22 18 40 40 40h664c22 0 40-18 40-40v-256zM928 550.8v-205.6c32 0 64 55.4 64 102.8s-32 102.8-64 102.8z" />
<glyph unicode="&#xe926;" glyph-name="battery-full" d="M792 672h-664c-52.8 0-96-43.2-96-96v-256c0-52.8 43.2-96 96-96h664c52.8 0 96 43.2 96 96v256c0 52.8-43.2 96-96 96zM832 320c0-22-18-40-40-40h-664c-22 0-40 18-40 40v256c0 22 18 40 40 40h664c22 0 40-18 40-40v-256zM928 550.8v-205.6c32 0 64 55.4 64 102.8s-32 102.8-64 102.8zM768 576h-616c-13.2 0-24-10.8-24-24v-208c0-13.2 10.8-24 24-24h616c13.2 0 24 10.8 24 24v208c0 13.2-10.8 24-24 24z" />
<glyph unicode="&#xe927;" glyph-name="beaker" d="M890.4 864h-633.4c-108.8 0-129-55.8-129-80.4 60.6-8.4 64-8.4 64-72.4 0-32 0-551 0-551 0-70.6 57.8-128 128.4-128h415.6c70.8 0 126 58.4 126 129v620.4c4 35 25 63.2 27.2 66.6 2.4 3.8 6.8 8.8 6.8 11 0 2.4-0.6 4.8-5.6 4.8zM224.4 805.4c0 0.2 0 0.2 0 0 12 2 24 2.6 32.6 2.6h553c-1.8-7.4-3-14.2-3.6-20-0.2-2.2-0.4-4.2-0.4-6.4v-141.6h-558v71c0 35.2 0 68.4-23.6 94.4z" />
<glyph unicode="&#xe928;" glyph-name="bed" d="M916.4 544h-0.8c-24 0-43.6-19.6-43.6-43.6 0-2.4-2-4.4-4.4-4.4h-711.2c-2.4 0-4.4 2-4.4 4.4 0 24-19.6 43.6-43.6 43.6h-0.8c-24 0-43.6-19.6-43.6-43.6v-360.8c0-24 19.6-43.6 43.6-43.6h0.8c24 0 43.6 19.6 43.6 43.6v12.4c0 4.4 3.6 8 8 8h704c4.4 0 8-3.6 8-8v-12.4c0-24 19.6-43.6 43.6-43.6h0.8c24 0 43.6 19.6 43.6 43.6v360.8c0 24-19.6 43.6-43.6 43.6zM168 532h45c4.4 0 8 3.6 8 8v26c0 17.6 14.4 32 32 32h195c17.6 0 32-14.4 32-32v-26c0-4.4 3.6-8 8-8h48c4.4 0 8 3.6 8 8v26c0 17.6 14.4 32 32 32h195c17.6 0 32-14.4 32-32v-26c0-4.4 3.6-8 8-8h45c8.8 0 16 7.2 16 16v188c0 35.2-28.8 64-64 64h-592c-35.2 0-64-28.8-64-64v-188c0-8.8 7.2-16 16-16z" />
<glyph unicode="&#xe929;" glyph-name="beer" d="M224 636c0 26.6 21.4 48 48 48h459c9.8 0 19.2-3 27-8.8v0c4-3 9.8 0 9.6 5-0.2 11.4-0.4 18.6-0.4 43.2 0 41.6-34.4 76.6-76.2 76.6h-0.4c-11.4 0.8-21.6 8-25.8 18.6-18 45.2-64.6 77.2-112.8 77.2-42 0-68.4-14-88-36.6-8.8-10-23.6-11.8-34.8-4.8-14.6 9.2-32.2 14.2-51 14.2-28.8 0-54.4-14.2-71.6-34.8-8-9.8-20.8-14-33.2-11.8-10.4 2-25.2 3.6-45.4 3.6-50 0-100-33.2-100-84.8v-8c0-57.6 32-45.8 32-83.6 0-35.8 0-101.6 0-101.6 0-26.8-22.4-38.6-22.4-70.4 0-17.6 16-33.6 33.6-33.6h52.8v192.4zM772 56h-552c-15.4 0-28-12.6-28-28s12.6-28 28-28h552c15.4 0 28 12.6 28 28s-12.6 28-28 28zM800 572h-64v48c0 17.6-14.4 32-32 32h-416c-17.6 0-32-14.4-32-32v-427.6c0-24.2-2.2-36.4-6.4-60.2l-0.2-1c-1.6-9.4 0.4-19 5.6-27 6.8-10.2 18.2-16.4 30.6-16.4h427.8c8.2 0 16.2 2.8 22.2 8.2 9.4 8.2 13 20.6 10.4 32-5.4 23.6-9 35.6-9.6 59.8h63.6c52.8 0 96 43.2 96 96v192c0 53-43.2 96.2-96 96.2zM840 284c0-22-18-40-40-40h-64v272h64c22 0 40-18 40-40v-192z" />
<glyph unicode="&#xe92a;" glyph-name="bicycle" d="M250.6 381.4c34.6 0 67.4-13.6 92.2-38.4s38.4-57.6 38.4-92.2c0-34.6-13.6-67.4-38.4-92.2s-57.6-38.4-92.2-38.4c-34.6 0-67.4 13.6-92.2 38.4-24.8 24.6-38.4 57.4-38.4 92s13.6 67.4 38.4 92.2c24.8 24.8 57.6 38.6 92.2 38.6zM250.6 437.4c-102.6 0-186.6-84-186.6-186.6 0-102.8 84-186.8 186.6-186.8s186.6 84 186.6 186.6c0.2 102.8-83.8 186.8-186.6 186.8v0zM639.6 704.4c35.6 0 64 28.4 64 64s-28 63.6-63.6 63.6c-35.6 0-64.4-28-64.4-63.6 0-35.4 28.6-64 64-64zM773.4 381.4c34.6 0 67.4-13.6 92.2-38.4s38.4-57.6 38.4-92.2c0-34.6-13.6-67.4-38.4-92.2-24.8-25-57.6-38.6-92.2-38.6s-67.4 13.6-92.2 38.4c-24.8 24.8-38.4 57.6-38.4 92.2s13.6 67.4 38.4 92.2c24.6 24.8 57.4 38.6 92.2 38.6zM773.4 437.4c-102.6 0-186.6-84-186.6-186.6s84-186.6 186.6-186.6c102.6 0 186.6 84 186.6 186.6s-84 186.6-186.6 186.6v0zM736 576h-96l-59 120.2c-11.2 18.6-31.8 31.8-54.2 31.8-16.8 0-33.6-7.4-44.8-18.6l-143.4-138.2c-11.2-11.2-18.6-28-18.6-44.8 0-34.8 25.2-47.2 37-54.2 91-52.4 123-58.2 123-84.4s0-131.8 0-131.8c0-17.6 14.4-32 32-32s32 14.4 32 32c0 0 0 153.6 0 180s-60.8 48-96.6 76l97.8 103c37.4-57 54.6-103 76-103s114.8 0 114.8 0c17.6 0 32 14.4 32 32s-14.4 32-32 32z" />
<glyph unicode="&#xe92b;" glyph-name="bluetooth" d="M757 294l-176.6 154 176.4 152.2c13.8 12 14.8 32.6 2.2 45.8l-233.6 242.8c-4.4 4.6-10.8 7.2-17.2 7.2v0c-12.2 0-22.2-9.8-22.2-21.6v-338.4l-172.6 146.6c-14.2 12-35.6 10.6-48.2-3v0c-13-14-11.6-35.8 3.2-48.2l217.6-183.4-216.2-181.8c-14.6-12.2-16.2-33.6-3.4-47.8l0.6-0.6c12.6-14 34.6-15.4 49-3l170 147.2v-339.6c0-12.4 10.2-22.4 23-22.4v0c6.4 0 12.4 2.6 16.8 7l233.4 241c12.6 13.2 11.6 33.8-2.2 46zM558.8 758.2l125.4-131.8c1.6-1.6 1.4-4.2-0.4-5.8l-125.4-106c-2.6-2.2-6.8-0.4-6.8 3v237.8c0.2 3.8 4.8 5.4 7.2 2.8zM551.8 140.2v236.6c0 3.4 4.2 5.2 6.8 3l125.4-106c1.8-1.4 1.8-4 0.4-5.8l-125.4-130.6c-2.6-2.6-7.2-0.8-7.2 2.8z" />
<glyph unicode="&#xe92c;" glyph-name="boat" d="M703.6 116c-52.4-18.4-133-29.8-192.2-29.8s-139.8 11.4-192.2 29.8c0 0-52.2-47.8-124.6-72.4-4.6-1.6-3-8.4 1.8-7.8 45.2 5.2 80.4 13 122.8 24 46-18 133.4-27.8 192.2-27.8s148.2 7.6 192.2 27.8c43-11.2 77.6-19.2 124-24.2 4.8-0.6 6.4 6.2 1.8 7.8-71.4 24.8-125.8 72.6-125.8 72.6zM891 434c0 0 0 0 0 0l-372.4 171c-4.2 2-9.2 2-13.4 0l-372.2-171c0 0 0 0 0 0-12.4-5.8-21-18.2-21-32.8 0-4.8 1-9.2 2.6-13.4l109.4-271.8c55 0 113.4 44 113.4 44 36-18 106.2-34.2 158.6-37.2 5.6-0.4 11-0.4 16-0.4s10.4 0.2 16 0.4c52.4 3 122.6 19 158.6 37.2 0 0 58.4-44 113.4-44l109.4 271.8c1.6 4.2 2.6 8.6 2.6 13.4 0 14.6-8.6 27-21 32.8zM424 384c-13.2 0-24 19.6-24 44s10.8 44 24 44 24-19.6 24-44-10.8-44-24-44zM600 384c-13.2 0-24 19.6-24 44s10.8 44 24 44 24-19.6 24-44-10.8-44-24-44zM783.8 706v0.2c-11.2 53.2-35 93.8-79.8 93.8h-69.2l-4 16c-7.2 28.2-32.8 48-62 48h-114c-29.2 0-54.8-19.8-62-48.2l-4-15.8h-68.8c-45.8 0-70.2-41.4-79.6-94l-36.4-193.6c-1.2-6.4 5.2-11.4 11.2-8.8l50.6 23.2c2.4 1 4 3.2 4.6 5.8l32.4 171.2c5 21.4 14.6 32 32.2 32h354.2c17.8 0 26.2-10 32.2-32l32.4-171.2c0.4-2.6 2.2-4.8 4.6-5.8l50.8-23.4c6-2.8 12.4 2.4 11.2 8.8l-36.6 193.8z" />
<glyph unicode="&#xe92d;" glyph-name="body" d="M608 800c0-53.019-42.981-96-96-96s-96 42.981-96 96c0 53.019 42.981 96 96 96s96-42.981 96-96zM848 672h-672c-26.6 0-48-21.4-48-48s21.4-48 48-48h197c11.2-2 26.4-7.6 34.4-28.4 9.4-24.2 4.8-67.2-1-103.4l-7.6-42.8c0-0.2 0-0.4-0.2-0.6 0 0 0 0 0 0l-60.8-344.4c-4.6-26 12.8-51 39-55.6s50.6 12.8 55.2 39l42 239.8v-0.4c0 0 12.4 65 37 65h2.2c25 0 37-65 37-65v0.2l42-239.8c4.6-26 29.4-43.4 55.4-38.8 26.2 4.6 43.4 29.6 38.8 55.6l-60.8 344.4c0 0 0 0 0 0 0 0.2 0 0.4-0.2 0.6l-7.6 42.8c-5.8 36.2-10.4 79.2-1 103.4 8 20.8 23.2 26.4 34.4 28.4h196.8c26.6 0 48 21.4 48 48s-21.4 48-48 48z" />
<glyph unicode="&#xe92e;" glyph-name="bonfire" d="M541.8 258.8c-1.4 16.4-15.2 29.2-31.8 29.2-15.2 0-28-10.8-31.2-25v0l-31.2-157c-1-4.6-1.6-9.2-1.6-14 0-35.4 28.6-60 64-60s64 24.6 64 60c0 5.8-0.8 11.4-2.2 16.8l-30 150zM611.8 250v0 0zM777.8 187.4c-3.4 2.8-6.6 5.8-10.2 7.8l-119.2 87c-11.6 7.6-24 7.4-33-1.8-8.2-8.2-9.4-20.8-3.4-30.8l90-123.6c1.8-3 4.4-5.6 6.8-8.4 15.6-18.2 50.2-19.2 69.2 0 18.8 19.6 18.6 54.4-0.2 69.8zM745 290v0 0zM870.8 320c-15.6 0-111.2 0-119 0s-14.8-4.4-16.2-12.4c-1.2-7.2 2.6-14.2 9.4-17.6v0c0 0 0.2 0 0.2 0l115.4-35.6c16.6-3.8 35.4 11 35.4 29.6 0 23.6-9.6 36-25.2 36zM278.4 290v0 0zM278.4 290v0c6.6 3.2 10.6 10.4 9.4 17.6-1.4 8-7.8 12.4-16.2 12.4s-103.8 0-119 0-24.6-16.6-24.6-35.2c0-18.6 18.2-34.2 34.8-30.4l115.4 35.6c0 0 0.2 0 0.2 0zM375.8 282.4l-119.2-86.8c-3.6-2.2-7.2-4.8-10.2-7.8-19.2-19.2-19.2-50.2 0-69.2 19.2-19.2 50.2-19.2 69.2 0 2.6 2.6 4.8 5.4 6.8 8.4l90 123.2c6 10 5 22.4-3.4 30.6-9.2 9-23.6 9.6-33.2 1.6zM717.4 682.6c0 115.2-144.8 181.4-192 181.4 24-161.6-203.4-226-224-362.6s96-181.4 96-181.4c32.6 113.2 144.8 151.2 219.4 199.6 81.4 52.8 100.6 102.6 100.6 163zM717.4 440.8c10 29.4 3.8 98.6-6 126.8-18-35-52.6-64.8-94.4-92-17.2-11.2-41.8-21.6-59.6-31.8-37.4-21-68-41.2-92.6-68.8 22.6-32.8 62.6-55.4 92.6-55.4 72 0.4 128 27.4 160 121.2zM323.6 616.2c23.4 30.2 49.8 47.6 76.4 72.4 26.8 25 44.2 42.4 55 62.6-21.4 40.2-61.6 56.2-89.4 52.2 4.6-57.2-60-88-64-129.6-2.6-25.2 10.8-50 22-57.6z" />
<glyph unicode="&#xe92f;" glyph-name="book" d="M292 831.8c108.2 0 200-55.8 200-164v-599.8c0-4.4-6.2-5.4-7.6-1.4 0 0 0 0 0 0.2-20.6 68.4-76.4 135.2-164.6 141-68.4 4.4-133.8-25.8-186.2-74.2-3.2-3-8.6-5.8-13.2-5.8h-9c-7.4 0-15.2 5.4-15.2 12.2v579.6c-0.2 64.2 87.6 112.2 195.8 112.2zM732 832c-108.2 0-200-55.8-200-164v-599.8c0-4.4 6.2-5.4 7.6-1.4 0 0 0 0 0 0.2 20.6 68.4 78.8 135.8 164.6 141 65.8 4 127.8-22 186.2-74.2 3.2-2.8 8.6-5.8 13.2-5.8h9c7.4 0 15.2 5.4 15.2 12.2v579.8c0.2 64-87.6 112-195.8 112z" />
<glyph unicode="&#xe930;" glyph-name="bookmark" d="M256 800v-760c0-6.6 7.6-10.4 12.8-6.4l233.6 184c5.8 4.2 13.6 4.2 19.2 0l233.6-184c5.2-4 12.8-0.2 12.8 6.4v760c0 35.4-28.6 64-64 64h-384c-35.4 0-64-28.6-64-64z" />
<glyph unicode="&#xe931;" glyph-name="bookmarks" d="M832 896v-255.8l-45.8 29-18.2 12.8-18.2-12.8-45.8-29v255.8h-81.8c-0.4 0-0.6 0-1 0-45-0.4-81.2-37.6-81.2-82.8v-626.4c0-15-11.6-28-26.6-28.8-16-0.8-29.4 12-29.4 28v627.2c0 45.2-36.2 82.4-81.2 82.8-0.4 0-0.6 0-1 0h-211.6c-60.6 0-110.2-49.6-110.2-110.2v-579.6c0-60.6 49.6-110.2 110.2-110.2l216 0.2c8.4-0.2 16.6-1.2 24.4-2.8 30.6-6.2 53.6-33.2 53.2-64.4-0.2-14.4 10.4-27.2 24.8-28.8 17-1.8 31.4 11.4 31.2 28.2-0.4 31.6 22.8 58.8 53.8 65 7.6 1.6 15.8 2.4 24 2.6l216-0.2c60.6 0 110.2 49.6 110.2 110.2v579.8c0.2 60.6-51.2 110.2-111.8 110.2z" />
<glyph unicode="&#xe932;" glyph-name="bowtie" d="M581.6 533c-9.6 17-27.6 22.6-49.6 22.6v0.4c-12 0-28.6-2.6-45.2-5.8-23.8-4.6-39.4-14.2-39.4-14.2s7.2-54.6 0.2-117c-7-62.4-15.8-85-15.8-85s10.6-24.2 80-30c7.8-0.6 15.2-1 22-1 49 0 72.8 14.6 72.8 14.6s6.6 10.8 8.6 44.2c3.8 64.4-14 137-33.6 171.2zM411.4 542.4c-44 80.4-172.4 193.6-242.6 193.6-53 0-104.8-137-104.8-288s46-288 103-288c66.8 0 221 160 221 160s11.4 25.2 19.8 67.2l3.6 20.8c1.4 9.4 2.6 19.4 3.4 30 0.6 7 1 13.6 1.2 19.8l0.6 19.6c1.4 32-5.2 65-5.2 65zM855.2 736c-72.8 0-192.8-113-236.6-193.6l-1.6-2.8c0 0 2.8-5 3.8-6.8 6.8-12 13.4-28.6 18.8-48l5.8-23.4c4.4-20.4 7.4-42.4 8.4-64.4l0.4-18c0-5.8-0.2-11.4-0.6-17-2-33.4-9.2-44.2-9.2-44.2 15.2-21 138-157.8 212.4-157.8 57 0 103 137 103 288s-51.6 288-104.6 288z" />
<glyph unicode="&#xe933;" glyph-name="briefcase" d="M160 64h704c35.4 0 64 28.6 64 64v384h-832v-384c0-35.4 28.6-64 64-64zM864 704h-16v16c0 8.8-7.2 16-16 16h-64c-8.8 0-16-7.2-16-16v-16h-56v64c0 35.2-28.8 64-64 64h-240c-35.2 0-64-28.8-64-64v-64h-56v16c0 8.8-7.2 16-16 16h-64c-8.8 0-16-7.2-16-16v-16h-16c-35.4 0-64-28.6-64-64v-80h832v80c0 35.4-28.6 64-64 64zM640 704h-256v56c0 8.8 7.2 16 16 16h224c8.8 0 16-7.2 16-16v-56z" />
<glyph unicode="&#xe934;" glyph-name="browsers" d="M96 597.2v-485.2c0-44.2 35.8-80 80-80h485.2c44.2 0 80 35.8 80 80v485.2c0 44.2-35.8 80-80 80h-485.2c-44.2 0-80-35.8-80-80zM282.8 784v-56.8c0-4.4 3.6-8 8-8h396.4c52.8 0 96-43.2 96-96v-396.4c0-4.4 3.6-8 8-8h56.8c44.2 0 80 35.8 80 80v485.2c0 44.2-35.8 80-80 80h-485.2c-44.2 0-80-35.8-80-80z" />
<glyph unicode="&#xe935;" glyph-name="brush" d="M299.2 393.4c-103.8 0-167.8-91.4-167.8-190.2 0-42.6-21.8-74.2-62.8-92.8-4.4-2-6-7.6-3.4-11.6 33.4-49.2 126.6-66.6 190.6-66.6 16.8 0 31.8 1.2 43.6 3.4 71.2 12.8 160.2 49.8 181.4 154 24.4 121-77.8 203.8-181.6 203.8zM935.4 839.2c-15.4 15.4-33.6 24.8-52.2 24.8-12.6 0-25.4-4.4-37.6-14l-330.2-290.6c-10.8-9.6-24.8-14.8-39.4-14.8h-0.2c0 0-0.2 0-0.2 0-11.2 0-22.2-4.2-30.8-11.6l-107.2-87.6c-4.2-3.6-5.4-9.6-2.8-14.4v0c1.8-3.4 5.2-5.8 9-6.2 91.2-9 174-74 174.6-173.2 0-3.4 1.4-6.8 4-9 5-4.2 12-3.4 16 1.2l90.2 104.4c7 8 11.6 18.2 12 29 0 0.8 0 1.6 0 2.4 0 15 6 29.6 16 40.8l289.6 328.8c23.8 30.2 15.2 64.2-10.8 90z" />
<glyph unicode="&#xe936;" glyph-name="bug" d="M749.2 705.4c-58.4 77.6-143 126.6-237.2 126.6s-178.8-49-237.2-126.6c12.8-31.2 31.6-60 56.2-84.6 48.4-48.4 112.6-75 181-75s132.6 26.6 181 75c24.6 24.6 43.6 53.2 56.2 84.6zM244 660c0 0-7.6 3.2-11.8 6.6s-10 9.8-13 16.8c10.8 22.6 2.4 50-19.8 62.6-23.6 13.2-53.8 4.4-66.2-20-9-17.8-5.8-39.6 7.6-54.2 3.6-3.8 7.4-6.8 11.4-9.2 5.6-3.2 9.8-8 12.8-13.6 5.4-10.4 12.8-21.4 22.2-29.2 8.4-7 17.6-14.2 30.4-21.4-14.4-40.6-23.2-84.6-25-130.8-22-0.4-37.2-4.2-51-8.2-8.4-2.4-16.4-6.8-23.6-11.8-2 0.2-3.8 0.4-5.8 0.4-27.6 0-49.6-23.2-48-51.2 1.4-23.6 20.6-43 44.4-44.8 22-1.6 41.2 11.8 48.6 31 4 10.6 13.4 18.4 24.8 19.8 3.8 0.4 7.8 0.8 12.4 0.8 6.4-66 26.6-127 57.2-178.4-28.4-22-45.8-46-53.2-72.6 0 0-1.6-0.8-3.8-2.8-2-1.6-3.8-3.2-5.6-5.2-17.8-19.8-16.2-50 3.6-67.8s50-16.2 67.8 3.6c12.4 13.8 15.2 32.6 9.2 49-4.4 12-1.4 25.4 7.8 34 3.2 3 7 6.2 11.4 9.8 54.2-63.4 118.8-104 199.4-108.8v429.8c-106.6 5.8-199.4 75.2-244.2 165.8zM912 447.8c-2 0-4-0.2-5.8-0.4-7.2 5-15.4 9.2-23.6 11.8-13.8 4-28.8 7.8-51 8.2-2 46.2-10.8 90.4-25 130.8 12.8 7.2 22 14.4 30.4 21.4 9.8 8.2 17.4 20 23 30.6 2.6 5 6.6 9 11.6 11.8 0 0 0.2 0 0.2 0.2 23.2 13 31.4 42.2 18.4 65.4s-42.2 31.4-65.4 18.4c-22.2-12.4-30.6-39.8-19.8-62.6-3.2-6.8-6.8-11.4-13-16.8-4.6-4-11.8-8.6-11.8-8.6-44.8-90.6-137.6-158-244-163.8v-430.2c80.6 4.8 145.2 45.6 199.4 108.8 4.2-3.4 7.8-6.4 10.8-9.2 9.6-8.8 12.8-22.6 8.4-35-6-16.2-3-35 9.4-48.6 17.8-19.8 48-21.4 67.8-3.6s21.4 48 3.6 67.8c-1.8 2-3.6 3.6-5.6 5.2-2.2 1.8-3.8 2.8-3.8 2.8-7.4 26.6-24.8 50.6-53.2 72.6 30.6 51.4 50.8 112.4 57.2 178.4 4.2 0 8.2-0.4 11.8-0.8 11.8-1.4 21.4-9.4 25.8-20.4 7.4-18.8 26.4-31.8 48.2-30.2 23.6 1.8 42.8 21 44.4 44.8 1.2 28-20.8 51.2-48.4 51.2z" />
<glyph unicode="&#xe937;" glyph-name="build" d="M882.2 697.8l-89.8-90.2c-1.8-1.8-4.6-2.6-7-2.2l-92.8 16.8c-3.2 0.6-5.8 3.2-6.4 6.4l-16.6 92.8c-0.4 2.6 0.4 5.2 2.2 7l89.6 90c7 7 6 18.6-2 24.2-20.2 14.4-44.2 21.4-63.6 21.4-1.4 0-2.8 0-4-0.2-25-1.4-78.6-15.4-120-59.4-40.2-42.4-82.2-121.2-45-209 4.4-10.6 9.4-24.6-5.4-39.4-15.2-14.8-399.4-376.6-399.4-376.6-36-31-33.4-88.4-0.2-121.8 17-16.8 40-25.6 62.6-25.6 22.2 0 43.8 8.4 59.2 26.2 0 0 358.8 382.2 376.4 399.6 8 7.8 15.4 10.2 22.2 10.2 6.6 0 12.6-2.4 17.2-4.8 19.8-10.2 42-14.8 64.8-14.8 53.6 0 110 24.8 144.4 59.2 48.8 48.8 57.8 96 59.2 120.2 1.2 19.8-4.4 45.2-21.4 68.4-5.8 7.6-17.2 8.4-24.2 1.6zM205 101.4c-11-10.8-28.8-10.8-39.8 0-10.8 11-10.8 28.8 0 39.8 11 10.8 28.8 10.8 39.8 0 10.8-11.2 10.8-29 0-39.8z" />
<glyph unicode="&#xe938;" glyph-name="bulb" d="M808 582.2c0 155.8-140.2 281.8-296 281.8s-296-126.2-296-281.8c0-62 26.4-112.2 60.4-160.2h-0.6c21.8-30 42.8-35.4 63-70 29.4-50.4 36.2-81.4 37.4-111.4 0.8-17.2 15-30.6 32-30.6h17.8c4.4 0 8 3.6 8 8v189c0 10-2.4 19.6-6.8 28.6l-42 84c-7 14 3.2 30.4 18.8 30.4v0c8 0 15.4-4.6 18.8-11.8l50.6-102.8c4.4-8.8 6.6-18.4 6.6-28.2v-189.2c0-4.4 3.6-8 8-8h48c4.4 0 8 3.6 8 8v189.2c0 9.8 2.2 19.4 6.6 28.2l50.8 103.2c3.4 6.8 10.4 11.2 18 11.2v0c15 0 24.8-15.8 18-29.2l-42.6-85.2c-4.4-9-6.8-18.8-6.8-28.6v-188.8c0-4.4 3.6-8 8-8h20c17 0 31 13.2 32 30 1.8 30.8 9.4 64.6 36.8 112 20.2 34.6 41.2 40 63 70h-0.2c34 48 60.4 98.2 60.4 160.2zM476 32h72c15.4 0 28 12.6 28 28v0c0 15.4-12.6 28-28 28h-72c-15.4 0-28-12.6-28-28v0c0-15.4 12.6-28 28-28zM436 120h152c15.4 0 28 12.6 28 28v0c0 15.4-12.6 28-28 28h-152c-15.4 0-28-12.6-28-28v0c0-15.4 12.6-28 28-28z" />
<glyph unicode="&#xe939;" glyph-name="bus" d="M219.2 126.6c-3.8 3.8-11.4 1-11.2-4.4 2-43 2.8-58 11-58 9.2 0 101.4 0 110.2 0s6.6 23 6.6 44c-68.6-0.2-93.8-4.6-116.6 18.4zM804.8 126.6c3.8 3.8 11.4 1 11.2-4.4-2-43-2.8-58-11-58-9.2 0-101.4 0-110.2 0s-6.6 23-6.6 44c68.6-0.2 93.8-4.6 116.6 18.4zM768 832h-512c-35.2 0-64-28.8-64-64v0-552c0-44 36-80 80-80h480c44 0 80 36 80 80v552c0 35.2-28.8 64-64 64zM324 208.2c-29.6-2.4-54 22.2-51.8 51.8 1.8 23.2 20.6 42.2 44 44 29.6 2.4 54-22.2 51.8-51.8-2-23.4-20.8-42.2-44-44zM476 364h-195.6c-17.8 0-32.4 14.6-32.4 32.4v231.2c0 17.8 14.6 32.4 32.4 32.4h195.6c4.4 0 8-3.6 8-8v-280c0-4.4-3.6-8-8-8zM707.8 208.2c-29.6-2.4-54 22.2-51.8 51.8 1.8 23.2 20.6 42.2 44 44 29.6 2.4 54-22.2 51.8-51.8-1.8-23.4-20.6-42.2-44-44zM776 396c0-17.6-14.4-32-32-32h-196c-4.4 0-8 3.6-8 8v280c0 4.4 3.6 8 8 8h196c17.6 0 32-14.4 32-32v-232zM746 720h-468c-17.6 0-30 12.6-30 28s12.4 28 30 28h468c17.6 0 30-12.6 30-28s-12.4-28-30-28z" />
<glyph unicode="&#xe93a;" glyph-name="business" d="M292 800h440c19.8 0 36 16.2 36 36v0c0 19.8-16.2 36-36 36h-440c-19.8 0-36-16.2-36-36v0c0-19.8 16.2-36 36-36zM796 760h-568c-19.8 0-36-16.2-36-36 0-18.6 13.8-34.2 32-36v-600c0-26.4 21.6-48 48-48h176c8.8 0 16 7.2 16 16v80c0 8.8 7.2 16 16 16h64c8.8 0 16-7.2 16-16v-80c0-8.8 7.2-16 16-16h176c26.4 0 48 21.6 48 48v600c18.2 1.8 32 17.4 32 36 0 19.8-16.2 36-36 36zM384 232c0-8.8-7.2-16-16-16h-32c-8.8 0-16 7.2-16 16v32c0 8.8 7.2 16 16 16h32c8.8 0 16-7.2 16-16v-32zM384 360c0-8.8-7.2-16-16-16h-32c-8.8 0-16 7.2-16 16v32c0 8.8 7.2 16 16 16h32c8.8 0 16-7.2 16-16v-32zM384 488c0-8.8-7.2-16-16-16h-32c-8.8 0-16 7.2-16 16v32c0 8.8 7.2 16 16 16h32c8.8 0 16-7.2 16-16v-32zM384 616c0-8.8-7.2-16-16-16h-32c-8.8 0-16 7.2-16 16v32c0 8.8 7.2 16 16 16h32c8.8 0 16-7.2 16-16v-32zM544 232c0-8.8-7.2-16-16-16h-32c-8.8 0-16 7.2-16 16v32c0 8.8 7.2 16 16 16h32c8.8 0 16-7.2 16-16v-32zM544 360c0-8.8-7.2-16-16-16h-32c-8.8 0-16 7.2-16 16v32c0 8.8 7.2 16 16 16h32c8.8 0 16-7.2 16-16v-32zM544 488c0-8.8-7.2-16-16-16h-32c-8.8 0-16 7.2-16 16v32c0 8.8 7.2 16 16 16h32c8.8 0 16-7.2 16-16v-32zM544 616c0-8.8-7.2-16-16-16h-32c-8.8 0-16 7.2-16 16v32c0 8.8 7.2 16 16 16h32c8.8 0 16-7.2 16-16v-32zM704 232c0-8.8-7.2-16-16-16h-32c-8.8 0-16 7.2-16 16v32c0 8.8 7.2 16 16 16h32c8.8 0 16-7.2 16-16v-32zM704 360c0-8.8-7.2-16-16-16h-32c-8.8 0-16 7.2-16 16v32c0 8.8 7.2 16 16 16h32c8.8 0 16-7.2 16-16v-32zM704 488c0-8.8-7.2-16-16-16h-32c-8.8 0-16 7.2-16 16v32c0 8.8 7.2 16 16 16h32c8.8 0 16-7.2 16-16v-32zM704 616c0-8.8-7.2-16-16-16h-32c-8.8 0-16 7.2-16 16v32c0 8.8 7.2 16 16 16h32c8.8 0 16-7.2 16-16v-32z" />
<glyph unicode="&#xe93b;" glyph-name="cafe" d="M739.4 152h-519.2c-15.2 0-28.2-11.6-28.8-26.8-0.8-16 12-29.2 28-29.2h519.2c15.2 0 28.2 11.6 28.8 26.8 0.6 16-12.2 29.2-28 29.2zM798.4 723c0.2 21.6-8.4 41.8-24.4 56.8-14.4 13.2-33.4 20.2-53 20.2h-547.4c-19.8 0-39.4-7.2-53.8-20.8-16.2-15.4-24.8-36.4-23.8-58.6 4.8-104.6 20.6-196.6 47.6-273.2 22-63.2 51.6-116.2 87.8-157.8 63.6-73.2 137.6-97.6 155.8-97.6h120.2c11 0 50 14.4 88.4 39 44.8 28.8 84.8 73.4 116.2 129.2 0 0 0 0 0 0 4-0.2 8-0.4 11.8-0.4 54.4 0 105.6 19.4 144.2 54.8 38.8 35.6 60.2 82.8 60.2 133.2-0.2 77.8-51.8 147-129.8 175.2 0 0 0 0 0 0zM739 416.8c28.4 69 47.2 152 55.6 246.8 0 0 0 0.2 0.2 0 20.6-10 38.2-24.4 51.6-41.8 16.8-21.8 25.6-47.4 25.6-74 0-68-58.4-124.2-133-131 0 0 0 0 0 0z" />
<glyph unicode="&#xe93c;" glyph-name="calculator" d="M744 864h-464c-35.4 0-64-28.6-64-64v-704c0-35.4 28.6-64 64-64h464c35.4 0 64 28.6 64 64v704c0 35.4-28.6 64-64 64zM720 320v-160c0-26.6-21.4-48-48-48v0c-26.6 0-48 21.4-48 48v160c0 26.6 21.4 48 48 48v0c26.6 0 48-21.4 48-48zM720 480v0c0-26.6-21.4-48-48-48v0c-26.6 0-48 21.4-48 48v0c0 26.6 21.4 48 48 48v0c26.6 0 48-21.4 48-48zM560 160v0c0-26.6-21.4-48-48-48v0c-26.6 0-48 21.4-48 48v0c0 26.6 21.4 48 48 48v0c26.6 0 48-21.4 48-48zM560 320v0c0-26.6-21.4-48-48-48v0c-26.6 0-48 21.4-48 48v0c0 26.6 21.4 48 48 48v0c26.6 0 48-21.4 48-48zM560 480v0c0-26.6-21.4-48-48-48v0c-26.6 0-48 21.4-48 48v0c0 26.6 21.4 48 48 48v0c26.6 0 48-21.4 48-48zM400 160v0c0-26.6-21.4-48-48-48v0c-26.6 0-48 21.4-48 48v0c0 26.6 21.4 48 48 48v0c26.6 0 48-21.4 48-48zM400 320v0c0-26.6-21.4-48-48-48v0c-26.6 0-48 21.4-48 48v0c0 26.6 21.4 48 48 48v0c26.6 0 48-21.4 48-48zM400 480v0c0-26.6-21.4-48-48-48v0c-26.6 0-48 21.4-48 48v0c0 26.6 21.4 48 48 48v0c26.6 0 48-21.4 48-48zM304 640v96c0 17.6 14.4 32 32 32h352c17.6 0 32-14.4 32-32v-96c0-17.6-14.4-32-32-32h-352c-17.6 0-32 14.4-32 32z" />
<glyph unicode="&#xe93d;" glyph-name="calendar" d="M848 768h-80v-48c0-8.8-7.2-16-16-16h-32c-8.8 0-16 7.2-16 16v48h-384v-48c0-8.8-7.2-16-16-16h-32c-8.8 0-16 7.2-16 16v48h-80c-44 0-80-36-80-80v-544c0-44 36-80 80-80h672c44 0 80 36 80 80v544c0 44-36 80-80 80zM864 168c0-22-18-40-40-40h-624c-22 0-40 18-40 40v360c0 8.8 7.2 16 16 16h672c8.8 0 16-7.2 16-16v-360zM320 816c0 8.8-7.2 16-16 16h-32c-8.8 0-16-7.2-16-16v-48h64v48zM768 816c0 8.8-7.2 16-16 16h-32c-8.8 0-16-7.2-16-16v-48h64v48z" />
<glyph unicode="&#xe93e;" glyph-name="call" d="M873.8 230.4c-29.4 29.4-100 73.6-134.8 90.2-40.4 19.4-55.2 19-83.8-1.6-23.8-17.2-39.2-33.2-66.6-27.2-27.4 5.8-81.4 46.8-133.8 99-52.4 52.4-93.2 106.4-99 133.8-5.8 27.6 10.2 42.8 27.2 66.6 20.6 28.6 21.2 43.4 1.6 83.8-16.6 35-60.6 105.4-90.2 134.8-29.4 29.4-36 23-52.2 17.2 0 0-24-9.6-47.8-25.4-29.4-19.6-45.8-36-57.4-60.6-11.4-24.6-24.6-70.4 42.6-190 54.2-96.6 107.4-169.8 186.4-248.6v0c0 0 0 0 0.2-0.2 0 0 0 0 0.2-0.2v0c79-79 152-132.2 248.6-186.4 119.6-67.2 165.4-54 190-42.6s41 27.8 60.6 57.4c15.8 23.8 25.4 47.8 25.4 47.8 5.8 16.2 12.4 22.8-17.2 52.2z" />
<glyph unicode="&#xe93f;" glyph-name="camera" d="M627 410c0-63.513-51.487-115-115-115s-115 51.487-115 115c0 63.513 51.487 115 115 115s115-51.487 115-115zM835 640h-109c-9.2 0-17.8 4-24 10.8-56.8 63.6-78.2 85.2-101.4 85.2h-171c-23.4 0-46.4-21.6-103.4-85.4-6-6.8-14.8-10.6-23.8-10.6h-8.2v16c0 8.8-7.2 16-16 16h-52c-8.8 0-16-7.2-16-16v-16h-15c-35.4 0-67.2-26.4-67.2-61.4v-352c0-35 31.8-66.6 67-66.6h640c35.2 0 61 31.6 61 66.6v352c0 35-25.8 61.4-61 61.4zM520 239.2c-100.6-4.6-183.4 78.2-178.8 178.8 4 87.8 75 158.8 162.8 162.8 100.6 4.6 183.4-78.2 178.8-178.8-4-87.8-75-158.8-162.8-162.8zM704 524c-14.4 0-26 11.6-26 26s11.6 26 26 26 26-11.6 26-26-11.6-26-26-26z" />
<glyph unicode="&#xe940;" glyph-name="car" d="M832 567.6c-27.6 61.6-98 184.4-200 184.4h-240c-102 0-169.6-118.8-200-184.4-48-46-96-91.4-96-169.6v-152c0-7.4 5.2-14 12.4-15.6 29.8-6.8 124.4-20.4 403.6-20.4s373.8 13.6 403.6 20.4c7.2 1.6 12.4 8.2 12.4 15.6v152c0 78-44.6 126.2-96 169.6zM380 704c70 0 183 0 264 0s124-120 124-140h-512c0 20 54 140 124 140zM224 296.6c-35.4 0-64 28.6-64 64s28.6 64 64 64c35.4 0 64-28.6 64-64 0-35.2-28.6-64-64-64zM656 360c0-17.6-14.4-32-32-32h-224c-17.6 0-32 14.4-32 32v0c0 17.6 14.4 32 32 32h224c17.6 0 32-14.4 32-32v0zM800 296c-35.4 0-64 28.6-64 64s28.6 64 64 64 64-28.6 64-64c0-35.4-28.6-64-64-64zM320 192c-95.8 0-192 10-192 10 0-34-0.6-58 12-58s157.4 0 170 0 10 26.4 10 48zM704 192c96 0 192 10 192 10 0-32 4-58-10-58s-158.6 0-172 0-10 27-10 48z" />
<glyph unicode="&#xe941;" glyph-name="card" d="M960 704c0 35.2-28.8 64-64 64h-768c-35.2 0-64-28.8-64-64v-96h896v96zM64 192c0-35.2 28.8-64 64-64h768c35.2 0 64 28.8 64 64v320h-896v-320zM348 288h328c15.4 0 28-12.6 28-28v0c0-15.4-12.6-28-28-28h-328c-15.4 0-28 12.6-28 28v0c0 15.4 12.6 28 28 28zM204 288h24c15.4 0 28-12.6 28-28v0c0-15.4-12.6-28-28-28h-24c-15.4 0-28 12.6-28 28v0c0 15.4 12.6 28 28 28z" />
<glyph unicode="&#xe942;" glyph-name="cart" d="M367.981 112.91c0.489-26.504-20.602-48.386-47.106-48.875s-48.386 20.602-48.875 47.106c-0.489 26.504 20.602 48.386 47.106 48.875s48.386-20.602 48.875-47.106zM770.182 159.994c26.502-0.631 47.474-22.627 46.842-49.129s-22.627-47.474-49.129-46.842c-26.502 0.631-47.474 22.627-46.842 49.129s22.627 47.474 49.129 46.842zM927.6 695.6c-1.4 4.8-5.6 8-10.4 8.4l-651.4 63c-5.6 0.6-12.4 4.2-15 9.4-7.6 14.2-12.4 22.2-24.4 37.2-15.4 18.8-44.4 18.2-97.6 18.6-18 0.2-32.6-10.4-32.6-28.2 0-17.4 13.8-28.2 31.2-28.2s42.6-1 52-3.8c9.4-2.8 17-18.2 19.8-31.6 0-0.2 0-0.4 0.2-0.6 0.4-2.4 4-20.4 4-20.6l80-423.2c4.8-29 14.6-53 29-71.4 16.8-21.6 39-32.4 65.8-32.4h473.2c15.2 0 28.2 11.6 28.8 26.8 0.8 16-12 29.2-28 29.2h-474.4c-4 0-9.8 0-16.6 5.6-7 6-16.6 19.8-23 52l-8.6 47.4c0 0.6 0.2 1 0.8 1.2l555.4 94c5.2 0.8 9.2 5 9.8 10.4l32 231.6c0.4 1.6 0.4 3.4 0 5.2z" />
<glyph unicode="&#xe943;" glyph-name="cash" d="M932 248.2h-840c-15.4 0-28-12.6-28-28s12.6-28 28-28h840c15.4 0 28 12.6 28 28s-12.6 28-28 28zM932 152.2h-840c-15.4 0-28-12.6-28-28s12.6-28 28-28h840c15.4 0 28 12.6 28 28s-12.6 28-28 28zM889.8 799.8h-755.6c-38.6 0-70.2-31.6-70.2-70.2v-355.6c0-38.6 31.6-70.2 70.2-70.2h755.6c38.6 0 70.2 31.6 70.2 70.2v355.6c0 38.6-31.6 70.2-70.2 70.2zM228 367.8h-72c-15.4 0-28 12.6-28 28s12.6 28 28 28h72c15.4 0 28-12.6 28-28s-12.6-28-28-28zM228 679.8h-72c-15.4 0-28 12.6-28 28s12.6 28 28 28h72c15.4 0 28-12.6 28-28s-12.6-28-28-28zM512 391.8c-88.2 0-160 71.8-160 160s71.8 160 160 160c88.2 0 160-71.8 160-160s-71.8-160-160-160zM868 367.8h-72c-15.4 0-28 12.6-28 28s12.6 28 28 28h72c15.4 0 28-12.6 28-28s-12.6-28-28-28zM868 679.8h-72c-15.4 0-28 12.6-28 28s12.6 28 28 28h72c15.4 0 28-12.6 28-28s-12.6-28-28-28zM618 548c0-58.542-47.458-106-106-106s-106 47.458-106 106c0 58.542 47.458 106 106 106s106-47.458 106-106z" />
<glyph unicode="&#xe944;" glyph-name="cellular" d="M816.8 856.4c-5.2 5-12.2 7.6-19.4 7.6-7.4 0-14.4-2.8-19.8-7.8-5.4-5.2-8.2-12-8.2-19.2s3-14 8.4-19.2c60.8-57 94.2-133 94.2-214.2v0c0-81-33.4-157-94.2-214.2-5.4-5-8.4-11.8-8.4-19.2 0-7.2 2.8-14 8.2-19.2 5.2-5 12.2-7.8 19.8-7.8 7.4 0 14.2 2.8 19.4 7.6 71.8 67.2 111.2 157 111.2 252.8v0 0.2c0 95.8-39.6 185.4-111.2 252.6zM702 766.4c-4.8 4.6-11.2 7-18 7-6.6 0-13-2.4-17.8-6.8-5-4.6-7.8-10.8-7.8-17.4s2.6-12.8 7.6-17.4c36-34 55.6-79.6 55.6-128v0c0-48.4-19.8-94-55.6-128-5-4.6-7.6-10.8-7.6-17.4s2.8-12.8 7.8-17.4c4.8-4.4 11-6.8 17.8-6.8s13.2 2.6 18 7c45.6 43.4 70.8 101 70.8 162.6v0 0.2c0 61.4-25.2 119-70.8 162.4zM246.2 817.8c5.4 5 8.4 11.8 8.4 19.2 0 7.2-2.8 14-8.2 19.2-5.2 5-12.2 7.8-19.8 7.8v0c-7.4 0-14.2-2.8-19.4-7.6-71.8-67.2-111.2-157-111.2-252.8v-0.4c0-95.6 39.6-185.2 111.2-252.4 5.2-5 12.2-7.6 19.4-7.6 7.4 0 14.4 2.8 19.8 7.8 5.4 5.2 8.2 12 8.2 19.2s-3 14-8.4 19.2c-60.8 57-94.2 133-94.2 214.2v0c-0.2 81.2 33.4 157.2 94.2 214.2zM358 731.8c5 4.6 7.6 10.8 7.6 17.4s-2.8 12.8-7.8 17.4c-4.8 4.4-11 6.8-17.8 6.8s-13.2-2.6-18-7c-45.6-43.4-70.8-101-70.8-162.6v-0.2c0-61.6 25.2-119.2 70.8-162.4 4.8-4.6 11.2-7 18-7 6.6 0 13 2.4 17.8 6.8 5 4.6 7.8 10.8 7.8 17.4s-2.6 12.8-7.6 17.4c-36 34-55.6 79.6-55.6 128v0c-0.2 48.4 19.6 93.8 55.6 128zM512 713.6c-53 0-96-43-96-96 0-43.2 28.6-79.8 68-91.8v-466c0-15.4 12.6-27.8 28-27.8s28 12.4 28 27.8v466c39.4 12 68 48.6 68 91.8 0 53-43 96-96 96z" />
<glyph unicode="&#xe945;" glyph-name="chatboxes" d="M851.8 619.2h-443.2c-42 0-76.2-34.2-76.2-76.2v-308.6c0-42 34.2-76 76.2-76h253.6c5.6 0 11.2-2.4 15.2-6.4l126-116.2c7-6.8 18.6-4 18.6 5.8v101.2c0 12 7.6 15.8 19.6 15.8h2c42 0 84.2 33.8 84.2 76v308.4c0.2 42.2-34 76.2-76 76.2zM348.8 668.2h354.8v130.6c0 36-29.2 65.2-65.2 65.2h-477.2c-36 0-65.2-29.2-65.2-65.2v-330.4c0-36 29.2-65.2 65.2-65.2h122.2v199.8c0.2 36 29.4 65.2 65.4 65.2z" />
<glyph unicode="&#xe946;" glyph-name="chatbubbles" d="M862 318.8c0 8.8 2.4 17.2 6.6 24.4 1.2 2.2 2.8 4.2 4.2 6.2 34.8 52 55.2 114.2 55.2 180.6 0.6 184.4-155 334-347.4 334-167.8 0-307.8-114.2-340.6-265.8-4.8-22.2-7.4-44.8-7.4-68.4 0-184.6 149.6-338.2 342-338.2 30.6 0 71.8 9.2 94.4 15.4s45 14.4 50.8 16.6c5.8 2.2 12.2 3.4 18.6 3.4 7.2 0 14-1.4 20.2-4l113.4-40.2c0 0 4.8-2 7.8-2 8.8 0 16 7 16 16 0 2-1 5.4-1 5.4l-32.8 116.6zM637 175c-7.2-2-16.4-4.2-26.4-6.4-21-4.4-47.8-9-68-9-192.4 0-342 153.6-342 338.2 0 13.2 1.4 30 3 42.8 1.2 8.6 2.6 17.2 4.6 25.6 2 9 4.4 18 7 26.8l-16-14.2c-65.6-57.2-103.2-138.8-103.2-223.8 0-58.6 17-115 49.6-164 4.6-7 7.2-12.4 6.4-16s-23.8-124-23.8-124c-1.2-5.8 1-11.6 5.4-15.4 3-2.4 6.6-3.6 10.2-3.6 2 0 4 0.4 5.8 1.2l112.2 44.2c3.6 1.4 7.4 2.2 11.4 2.2 0 0 4.8 0.4 12.6-2.6 37.8-14.8 79.6-24 121.4-24 93.2 0 180.8 40.2 240.2 110.2 0 0 6.4 8.8 13.8 19.2-7.4-2.6-15.8-5.2-24.2-7.4z" />
<glyph unicode="&#xe947;" glyph-name="checkbox-outline" d="M832 832h-640c-35.4 0-64-28.6-64-64v-640c0-35.4 28.6-64 64-64h640c35.4 0 64 28.6 64 64v640c0 35.4-28.6 64-64 64zM840 136c0-8.8-7.2-16-16-16h-624c-8.8 0-16 7.2-16 16v624c0 8.8 7.2 16 16 16h624c8.8 0 16-7.2 16-16v-624zM727.2 574.2l-35.2 36.2c-1.4 1.6-3.6 2.4-5.6 2.4 0 0 0 0 0 0-2.2 0-4.2-0.8-5.6-2.4l-244-245.8-88.8 88.8c-1.6 1.6-3.6 2.4-5.6 2.4s-4-0.8-5.6-2.4l-35.6-35.6c-3.2-3.2-3.2-8.2 0-11.4l112-112c7.2-7.2 16-11.4 23.4-11.4 10.6 0 19.8 7.8 23.2 11 0 0 0 0 0.2 0l267.4 268.8c2.8 3.4 2.8 8.4-0.2 11.4z" />
<glyph unicode="&#xe948;" glyph-name="checkbox" d="M832 832h-640c-35.4 0-64-28.6-64-64v-640c0-35.4 28.6-64 64-64h640c35.4 0 64 28.6 64 64v640c0 35.4-28.6 64-64 64zM727 563l-267.4-268.6c0 0 0 0-0.2 0-3.4-3.4-12.6-11-23.2-11-7.6 0-16.2 4.2-23.4 11.4l-112 112c-3.2 3.2-3.2 8.2 0 11.4l35.6 35.6c1.6 1.6 3.6 2.4 5.6 2.4s4-0.8 5.6-2.4l88.8-88.8 244 245.8c1.6 1.6 3.6 2.4 5.6 2.4 0 0 0 0 0 0 2.2 0 4.2-0.8 5.6-2.4l35-36.2c3.6-3.4 3.6-8.4 0.4-11.6z" />
<glyph unicode="&#xe949;" glyph-name="checkmark-circle-outline" d="M725.2 574.2l-35.2 36.2c-1.4 1.6-3.6 2.4-5.6 2.4 0 0 0 0 0 0-2.2 0-4.2-0.8-5.6-2.4l-244-245.8-88.8 88.8c-1.6 1.6-3.6 2.4-5.6 2.4s-4-0.8-5.6-2.4l-35.6-35.6c-3.2-3.2-3.2-8.2 0-11.4l112-112c7.2-7.2 16-11.4 23.4-11.4 10.6 0 19.8 7.8 23.2 11 0 0 0 0 0.2 0l267.4 268.8c2.8 3.4 2.8 8.4-0.2 11.4zM512 808c96.2 0 186.6-37.4 254.6-105.4s105.4-158.4 105.4-254.6-37.4-186.6-105.4-254.6-158.4-105.4-254.6-105.4c-96.2 0-186.6 37.4-254.6 105.4s-105.4 158.4-105.4 254.6 37.4 186.6 105.4 254.6c68 68 158.4 105.4 254.6 105.4zM512 864c-229.8 0-416-186.2-416-416s186.2-416 416-416c229.8 0 416 186.2 416 416s-186.2 416-416 416v0z" />
<glyph unicode="&#xe94a;" glyph-name="checkmark-circle" d="M512 864c-229.8 0-416-186.2-416-416s186.2-416 416-416c229.8 0 416 186.2 416 416s-186.2 416-416 416zM725 563l-267.4-268.6c0 0 0 0-0.2 0-3.4-3.4-12.6-11-23.2-11-7.6 0-16.2 4.2-23.4 11.4l-112 112c-3.2 3.2-3.2 8.2 0 11.4l35.6 35.6c1.6 1.6 3.6 2.4 5.6 2.4s4-0.8 5.6-2.4l88.8-88.8 244 245.8c1.6 1.6 3.6 2.4 5.6 2.4 0 0 0 0 0 0 2.2 0 4.2-0.8 5.6-2.4l35-36.2c3.6-3.4 3.6-8.4 0.4-11.6z" />
<glyph unicode="&#xe94b;" glyph-name="checkmark" d="M725.2 574.2l-35.2 36.2c-1.4 1.6-3.6 2.4-5.6 2.4 0 0 0 0 0 0-2.2 0-4.2-0.8-5.6-2.4l-244-245.8-88.8 88.8c-1.6 1.6-3.6 2.4-5.6 2.4s-4-0.8-5.6-2.4l-35.6-35.6c-3.2-3.2-3.2-8.2 0-11.4l112-112c7.2-7.2 16-11.4 23.4-11.4 10.6 0 19.8 7.8 23.2 11 0 0 0 0 0.2 0l267.4 268.8c2.8 3.4 2.8 8.4-0.2 11.4z" />
<glyph unicode="&#xe94c;" glyph-name="clipboard" d="M281 640v-480c0-17.6 14.4-32 32-32h400c17.6 0 32 14.4 32 32v480c0 17.6-14.4 32-32 32h-400c-17.6 0-32-14.4-32-32zM643 798h-34c0 11.2-2 22-5.4 32-4.2 12-10.6 22.8-18.8 32-17.6 19.8-43.2 34-71.8 34s-54.2-14.2-71.8-34c-8.2-9.2-14.6-20-18.8-32-3.4-10-5.4-20.8-5.4-32h-29c-19.2 0-35-15.8-35-35v-31c0-2.2 1.8-4 4-4h312c2.2 0 4 1.8 4 4v36c0 16.6-13.4 30-30 30zM517.2 767c-21-2.6-38.6 15-35.8 35.8 1.8 14.2 13.4 25.8 27.6 27.6 21 2.6 38.6-15 35.8-35.8-1.8-14.4-13.4-25.8-27.6-27.6zM800 864h-150.4c-3.4 0-5.2-3.8-3.2-6.4 5.8-7.8 10.6-16.2 14-25.6 0.6-1.6 2-2.6 3.8-2.6h1c37.4 0 53.8-29.8 55-67v0-30.4c0-2.2 1.8-4 4-4h40.6c17.6 0 32-14.4 32-32v-594.8c0-17.6-14.4-32-32-32h-506c-17.6 0-32 14.4-32 32v594.8c0 17.6 14.4 32 32 32h42.6c2.2 0 4 1.8 4 4v17.6c0 38.2 11.2 73.4 55.2 73.4h0.6c1.8 0 3.6 1.2 3.8 3.2 3 13.8 8.2 23.4 14.4 31.6 2 2.6 0.2 6.4-3.2 6.4l-152.6 0.2c-35-0.2-63.6-28.6-63.6-63.8v-688.6c0-83.4 28.6-112 64-112h577c34.8 0 63 28.2 63 63v737c0 35.4-28.6 64-64 64z" />
<glyph unicode="&#xe94d;" glyph-name="clock" d="M806.2 742.2c-162.4 162.4-425.8 162.4-588.4 0s-162.4-425.8 0-588.4c162.4-162.4 425.8-162.4 588.4 0 162.4 162.4 162.4 426 0 588.4zM179.2 432.4c-11.2-2.2-21 7.6-18.8 18.8 1.2 6.2 6.2 11.4 12.6 12.6 11.2 2.2 21-7.6 18.8-18.8-1.2-6.4-6.4-11.4-12.6-12.6zM231.6 268c-8.6-7.4-22-3.8-25.6 7-2 6-0.2 13 4.6 17 8.6 7.4 22 3.8 25.6-7 2-6 0.2-12.8-4.6-17zM236.2 611c-3.8-10.8-17-14.4-25.6-7-4.8 4.2-6.6 11-4.6 17 3.8 10.8 17 14.4 25.6 7 4.8-4.2 6.6-11 4.6-17zM359.2 152c-3.8-10.8-17-14.4-25.6-7-4.8 4.2-6.6 11-4.6 17 3.8 10.8 17 14.4 25.6 7 4.8-4.2 6.6-11 4.6-17zM354.6 727c-8.6-7.4-22-3.8-25.6 7-2 6-0.2 13 4.6 17 8.6 7.4 22 3.8 25.6-7 2-6 0.2-12.8-4.6-17zM425.4 574.4c-4.6 7.6-2 17.4 5.4 22 7.6 4.6 17.4 2 22-5.4l67.4-124.6c5-9.4 7.8-19.8 7.8-30.4v-244c0-10-6-16-16-16s-16 6-16 16v244c0 5.4-1.4 10.6-3.8 15.2l-66.8 123.2zM515.2 96.4c-11.2-2.2-21 7.6-18.8 18.8 1.2 6.2 6.2 11.4 12.6 12.6 11.2 2.2 21-7.6 18.8-18.8-1.2-6.4-6.4-11.4-12.6-12.6zM515.2 768.4c-11.2-2.2-21 7.6-18.8 18.8 1.2 6.2 6.2 11.4 12.6 12.6 11.2 2.2 21-7.6 18.8-18.8-1.2-6.4-6.4-11.4-12.6-12.6zM690.6 145c-8.6-7.4-22-3.8-25.6 7-2 6-0.2 13 4.6 17 8.6 7.4 22 3.8 25.6-7 2-6 0.2-12.8-4.6-17zM695.2 734c-3.8-10.8-17-14.4-25.6-7-4.8 4.2-6.6 11-4.6 17 3.8 10.8 17 14.4 25.6 7 4.8-4.2 6.6-11 4.6-17zM818.2 275c-3.8-10.8-17-14.4-25.6-7-4.8 4.2-6.6 11-4.6 17 3.8 10.8 17 14.4 25.6 7 4.8-4.2 6.6-11 4.6-17zM813.6 604c-8.6-7.4-22-3.8-25.6 7-2 6-0.2 13 4.6 17 8.6 7.4 22 3.8 25.6-7 2-6 0.2-12.8-4.6-17zM851.2 432.4c-11.2-2.2-21 7.6-18.8 18.8 1.2 6.2 6.2 11.4 12.6 12.6 11.2 2.2 21-7.6 18.8-18.8-1.2-6.4-6.4-11.4-12.6-12.6z" />
<glyph unicode="&#xe94e;" glyph-name="close-circle-outline" d="M662.6 342.6l-105.4 105.4 105.4 105.4c12.4 12.4 12.4 32.8 0 45.2s-32.8 12.4-45.2 0l-105.4-105.4-105.4 105.4c-12.4 12.4-31.2 14.2-45.2 0-14.2-14.2-12-33.2 0-45.2s105.4-105.4 105.4-105.4-92-92-105.4-105.4c-13.4-13.4-12.8-32.6 0-45.2 12.8-12.8 32.8-12.4 45.2 0l105.4 105.4 105.4-105.4c12.4-12.4 32.8-12.4 45.2 0 12.6 12.4 12.6 32.8 0 45.2zM512 808c96.2 0 186.6-37.4 254.6-105.4s105.4-158.4 105.4-254.6-37.4-186.6-105.4-254.6-158.4-105.4-254.6-105.4c-96.2 0-186.6 37.4-254.6 105.4s-105.4 158.4-105.4 254.6 37.4 186.6 105.4 254.6c68 68 158.4 105.4 254.6 105.4zM512 864c-229.8 0-416-186.2-416-416s186.2-416 416-416c229.8 0 416 186.2 416 416s-186.2 416-416 416v0z" />
<glyph unicode="&#xe94f;" glyph-name="close-circle" d="M512 864c-229.8 0-416-186.2-416-416s186.2-416 416-416c229.8 0 416 186.2 416 416s-186.2 416-416 416zM617.4 297.4l-105.4 105.4-105.4-105.4c-12.4-12.4-32.8-12.4-45.2 0-6.2 6.2-9.4 14.4-9.4 22.6s3.2 16.4 9.4 22.6l105.4 105.4-105.4 105.4c-6.2 6.2-9.4 14.4-9.4 22.6s3.2 16.4 9.4 22.6c12.4 12.4 32.8 12.4 45.2 0l105.4-105.4 105.4 105.4c12.4 12.4 32.8 12.4 45.2 0s12.4-32.8 0-45.2l-105.4-105.4 105.4-105.4c12.4-12.4 12.4-32.8 0-45.2-12.4-12.6-32.8-12.6-45.2 0z" />
<glyph unicode="&#xe950;" glyph-name="close" d="M557.2 448l136.4 136.4c12.4 12.4 12.4 32.8 0 45.2s-32.8 12.4-45.2 0l-136.4-136.4-136.4 136.4c-12.4 12.4-32.8 12.4-45.2 0-6.2-6.2-9.4-14.4-9.4-22.6s3.2-16.4 9.4-22.6l136.4-136.4-136.4-136.4c-6.2-6.2-9.4-14.4-9.4-22.6s3.2-16.4 9.4-22.6c12.4-12.4 32.8-12.4 45.2 0l136.4 136.4 136.4-136.4c12.4-12.4 32.8-12.4 45.2 0s12.4 32.8 0 45.2l-136.4 136.4z" />
<glyph unicode="&#xe951;" glyph-name="cloud-circle" d="M512 864c-229.8 0-416-186.2-416-416s186.2-416 416-416c229.8 0 416 186.2 416 416s-186.2 416-416 416zM677.2 320h-330.4c-50.2 0-90.8 42.8-90.8 94.4 0 42 26.4 79.6 66.4 92.4 0.6 40 32.4 72.2 71.4 72.2 10.6 0 20.8-2.4 29.8-6.8 26.2 41 73.8 67.6 125 67.6 75.4 0 135-58.6 142.8-133.8 43.4-7 76.6-45.4 76.6-91.8 0-51.4-40.6-94.2-90.8-94.2z" />
<glyph unicode="&#xe952;" glyph-name="cloud-done" d="M874.2 500.4c-16.2 150.4-143.4 267.6-298.2 267.6-102.4 0-192.6-51.2-246.8-129.4-16.6 6.8-34.8 10.6-53.8 10.6-78.2 0-141.6-68.8-142.8-146.8-79.8-25.4-132.6-103.4-132.6-185.4 0-100.4 81.4-189 181.8-189h660.6c100.4 0 181.8 88.6 181.8 189-0.2 89.4-64.8 168.2-150 183.4zM725 535l-267.4-268.6c0 0 0 0-0.2 0-3.4-3.4-12.6-11-23.2-11-7.6 0-16.2 4.2-23.4 11.4l-112 112c-3.2 3.2-3.2 8.2 0 11.4l35.6 35.6c1.6 1.6 3.6 2.4 5.6 2.4s4-0.8 5.6-2.4l88.8-88.8 244 245.8c1.6 1.6 3.6 2.4 5.6 2.4 0 0 0 0 0 0 2.2 0 4.2-0.8 5.6-2.4l35-36.2c3.6-3.4 3.6-8.4 0.4-11.6z" />
<glyph unicode="&#xe953;" glyph-name="cloud-download" d="M874.2 628.4c-16.2 150.4-143.4 267.6-298.2 267.6-102.4 0-192.6-51.2-246.8-129.4-16.6 6.8-34.8 10.6-53.8 10.6-78.2 0-141.6-68.8-142.8-146.8-79.8-25.4-132.6-103.4-132.6-185.4 0-100.4 81.4-189 181.8-189h304.2v282c0 14.4 11.6 26 26 26s26-11.6 26-26v-282h304.2c100.4 0 181.8 88.6 181.8 189 0 89.4-64.6 168.2-149.8 183.4zM486 88.2l-95.8 94.4c-10.2 10-26.6 10-36.8-0.2-10-10.2-10-26.6 0.2-36.8l140-138c5-4.8 11.6-7.4 18.2-7.4 3.4 0 6.8 0.6 10 2 3 1.2 5.8 3.2 8.2 5.4 0 0 0 0 0 0l140 138c10.2 10 10.4 26.6 0.2 36.8-10 10.2-26.6 10.4-36.8 0.2l-95.4-94.4v167.8h-52v-167.8z" />
<glyph unicode="&#xe954;" glyph-name="cloud-outline" d="M576 712c60.6 0 118.6-22.4 163.6-63 44.6-40.2 72.6-95.2 79-154.6l2.4-22.2c1.2-11.6 10-21 21.4-23l22-4c28-5 54-20.8 73.4-44.2 19.6-24 30.4-53.8 30.4-84.2 0-34-13.8-68.2-37.8-93.6-24.4-25.2-55.6-39.2-88.2-39.2h-660.4c-32.6 0-63.8 14-87.8 39.4s-37.8 59.4-37.8 93.6c0 28.8 9.2 57.8 26.2 81.8 17.2 24.4 40.4 41.8 67.4 50.2l20.6 6.6c10.6 3.4 18 13.2 18.2 24.4l0.4 21.6c0.4 23.6 10.2 47.2 27 64.8 16.6 17.4 37.8 26.8 59.8 26.8 11.2 0 22.2-2.2 32.6-6.4l22.2-9c11.4-4.6 24.4-0.8 31.4 9.4l13.6 19.6c45.2 65.8 120.4 105.2 200.4 105.2zM576 768c-102.4 0-192.6-51.2-246.8-129.4-16.6 6.8-34.8 10.6-53.8 10.6-78.2 0-141.6-68.8-142.8-146.8-79.8-25.4-132.6-103.4-132.6-185.4 0-100.4 81.4-189 181.8-189h660.6c100.4 0 181.8 88.6 181.8 189 0 89.4-64.6 168.2-149.8 183.4-16.4 150.4-143.6 267.6-298.4 267.6v0z" />
<glyph unicode="&#xe955;" glyph-name="cloud-upload" d="M874.2 628.4c-16.2 150.4-143.4 267.6-298.2 267.6-102.4 0-192.6-51.2-246.8-129.4-16.6 6.8-34.8 10.6-53.8 10.6-78.2 0-141.6-68.8-142.8-146.8-79.8-25.4-132.6-103.4-132.6-185.4 0-100.4 81.4-189 181.8-189h304.2v283.8l-95.8-94.4c-10.2-10-26.6-10-36.8 0.2-10 10.2-10 26.6 0.2 36.8l140 138c0 0 0 0 0 0 2.4 2.2 5 4.2 8.2 5.4 3.2 1.4 6.6 2 10 2 6.8 0 13.2-2.6 18.2-7.4l140-138c10.2-10 10.4-26.6 0.2-36.8-10-10.2-26.6-10.4-36.8-0.2l-95.4 94.4v-283.8h304.2c100.4 0 181.8 88.6 181.8 189 0 89.4-64.6 168.2-149.8 183.4zM486 26c0-14.4 11.6-26 26-26s26 11.6 26 26v230h-52v-230z" />
<glyph unicode="&#xe956;" glyph-name="cloud" d="M874.2 500.4c-16.2 150.4-143.4 267.6-298.2 267.6-102.4 0-192.6-51.2-246.8-129.4-16.6 6.8-34.8 10.6-53.8 10.6-78.2 0-141.6-68.8-142.8-146.8-79.8-25.4-132.6-103.4-132.6-185.4 0-100.4 81.4-189 181.8-189h660.6c100.4 0 181.8 88.6 181.8 189-0.2 89.4-64.8 168.2-150 183.4z" />
<glyph unicode="&#xe957;" glyph-name="cloudy-night" d="M555.6 370.4c-1 0-2.2 0.2-3.2 0.2-5.2 0-10.4 0-15.6-0.6-18.6 81.6-91.8 143-179.4 143-101.6 0-183.8-81.8-183.8-182.8 0-6.2 0.4-12.2 1-18.2-62-5.4-110.6-60.2-110.6-123.2 0-66.8 53.6-124.8 120.6-124.8h371c83.8 0 151.6 69.4 151.6 152.6s-67.8 153.8-151.6 153.8zM904.2 349.2c-5-0.2-10-0.4-15.2-0.4-83.4 0-161.6 31.4-220.6 88.6-59 57-91.4 133-91.4 213.6 0 46 10.6 90.4 30.4 130.6l23.4 38.4c3.4 5.8-1.6 13-8.2 12-15.2-2.4-31.4-8-46.4-12.6-119-36.4-208.8-136.2-227.4-258.6 2.8 0.2 5.8 0.2 8.6 0.2 53 0 104.8-18.4 146-51.8 30.2-24.4 53.8-56 68.4-91.4 47.4-4 91.4-24.8 125.4-59.6 37.4-38.2 58-88.4 58-141.4 0-4.6-0.2-9.2-0.4-13.6 68.4 16.2 128.6 53.2 172.8 103.6 9.6 11 22.6 25.6 30.6 37 4 5.6-0.6 13.4-7.6 12.6-13.6-2-31.8-6.4-46.4-7.2z" />
<glyph unicode="&#xe958;" glyph-name="cloudy" d="M472 768c-140 0-255.6-119.4-255.6-261.6 0-8.6 0.6-17.2 1.6-25.6-86.4-7.8-154-88-154-176.8 0-94 75.8-176 169.2-176h515.6c116.6 0 211.2 98.8 211.2 216s-94.6 217.6-211.2 217.6c-4.6 0-9.6 0.4-14.4 0.4-4.2 0-8.4 0-12.2-0.2-23.6 107-110.2 206.2-250.2 206.2v0z" />
<glyph unicode="&#xe959;" glyph-name="code-download" d="M664 674.6c-2.4 2.2-5.4 3.4-8.2 3.4s-6-1.2-8.2-3.4l-27.6-26.4c-2.4-2.2-3.8-5.4-3.8-8.6s1.4-6.4 3.8-8.6l191.6-183-191.6-183c-2.4-2.2-3.8-5.4-3.8-8.6s1.4-6.4 3.8-8.6l27.6-26.4c2.4-2.2 5.2-3.4 8.2-3.4s6 1.2 8.2 3.4l228.4 218c2.4 2.2 3.8 5.4 3.8 8.6s-1.4 6.4-3.8 8.6l-228.4 218zM212.6 448l191.6 183c2.4 2.2 3.8 5.4 3.8 8.6s-1.4 6.4-3.8 8.6l-27.6 26.4c-2.4 2.2-5.4 3.4-8.2 3.4s-6-1.2-8.2-3.4l-228.4-218c-2.4-2.2-3.8-5.4-3.8-8.6s1.4-6.4 3.8-8.6l228.4-218c2.4-2.2 5.4-3.4 8.2-3.4 3 0 6 1.2 8.2 3.4l27.6 26.4c2.4 2.2 3.8 5.4 3.8 8.6s-1.4 6.4-3.8 8.6l-191.6 183zM665.6 425.6c0.2 7.8-2.8 15.2-8.4 20.8l-0.2 0.2c-5.4 5.4-12.4 8.4-20 8.4-7 0-13.6-2.6-18.8-7.2l-77.8-69.2v212.2c0 15.6-12.8 28.4-28.4 28.4s-28.4-12.8-28.4-28.4v-212.4l-77.8 69.2c-5.2 4.6-12 7.2-18.8 7.2-7.6 0-14.8-3-20.2-8.4l-0.2-0.2c-5.6-5.6-8.4-12.8-8.4-20.8 0.2-7.8 3.4-15 9.2-20.4l125.6-115.4c5.2-4.8 12-7.4 19-7.4s13.8 2.6 19 7.4l125.6 115.4c5.6 5.6 9 12.8 9 20.6z" />
<glyph unicode="&#xe95a;" glyph-name="code-working" d="M892.2 456.8l-228.2 217.8c-2.4 2.2-5.4 3.4-8.2 3.4s-6-1.2-8.2-3.4l-27.6-26.4c-2.4-2.2-3.8-5.4-3.8-8.6s1.4-6.4 3.8-8.6l191.6-183-191.6-183c-2.4-2.2-3.8-5.4-3.8-8.6s1.4-6.4 3.8-8.6l27.6-26.4c2.4-2.2 5.2-3.4 8.2-3.4s6 1.2 8.2 3.4l228.4 218c2.4 2.2 3.8 5.4 3.8 8.6-0.2 3.4-1.6 6.4-4 8.8zM212.6 448l191.6 183c2.4 2.2 3.8 5.4 3.8 8.6s-1.4 6.4-3.8 8.6l-27.6 26.4c-2.4 2.2-5.4 3.4-8.2 3.4s-6-1.2-8.2-3.4l-228.4-218c-2.4-2.2-3.8-5.4-3.8-8.6s1.4-6.4 3.8-8.6l228.4-218c2.4-2.2 5.4-3.4 8.2-3.4 3 0 6 1.2 8.2 3.4l27.6 26.4c2.4 2.2 3.8 5.4 3.8 8.6s-1.4 6.4-3.8 8.6l-191.6 183zM556 448c0-24.301-19.699-44-44-44s-44 19.699-44 44c0 24.301 19.699 44 44 44s44-19.699 44-44zM428 448c0-24.301-19.699-44-44-44s-44 19.699-44 44c0 24.301 19.699 44 44 44s44-19.699 44-44zM684 448c0-24.301-19.699-44-44-44s-44 19.699-44 44c0 24.301 19.699 44 44 44s44-19.699 44-44z" />
<glyph unicode="&#xe95b;" glyph-name="code" d="M664 674.6c-2.4 2.2-5.4 3.4-8.2 3.4s-6-1.2-8.2-3.4l-27.6-26.4c-2.4-2.2-3.8-5.4-3.8-8.6s1.4-6.4 3.8-8.6l191.6-183-191.6-183c-2.4-2.2-3.8-5.4-3.8-8.6s1.4-6.4 3.8-8.6l27.6-26.4c2.4-2.2 5.2-3.4 8.2-3.4s6 1.2 8.2 3.4l228.4 218c2.4 2.2 3.8 5.4 3.8 8.6s-1.4 6.4-3.8 8.6l-228.4 218zM408 639.6c0 3.2-1.4 6.4-3.8 8.6l-27.6 26.4c-2.4 2.2-5.4 3.4-8.2 3.4s-6-1.2-8.2-3.4l-228.4-218c-2.4-2.2-3.8-5.4-3.8-8.6s1.4-6.4 3.8-8.6l228.4-218c2.4-2.2 5.4-3.4 8.2-3.4 3 0 6 1.2 8.2 3.4l27.6 26.4c2.4 2.2 3.8 5.4 3.8 8.6s-1.4 6.4-3.8 8.6l-191.6 183 191.6 183c2.4 2.2 3.8 5.4 3.8 8.6z" />
<glyph unicode="&#xe95c;" glyph-name="cog" d="M913.8 475.6l-52.2 8.4c-7 1.2-12.2 6.6-13.2 13.6-1 6.4-2 12.8-3.4 19-1.4 6.8 1.8 13.8 7.8 17.2l46.2 25.6c7.2 3.6 10.6 12.2 7.8 19.8l-8 22c-2.8 7.6-10.8 12-18.8 10l-51.8-10c-6.8-1.4-13.8 2-17.2 8.2-3 5.6-6.2 11.2-9.6 16.8-3.6 6-3.2 13.6 1.4 19l34.6 39.8c5.6 6 5.8 15 0.6 21.2l-15 18c-5.2 6.2-14.2 7.6-21 3l-45.4-27.2c-6-3.6-13.6-2.8-18.8 1.8-4.8 4.2-9.8 8.4-14.8 12.4-5.4 4.4-7.6 11.8-5 18.2l18.8 49.4c3.2 7.4 0.4 16.2-6.6 20.2l-20.4 11.8c-7 4-16 2.2-20.8-4.4l-33.2-41.6c-4-5-9.8-7.6-17-5 0 0-11.2 4.6-19.6 7.4-6.6 2.2-11.2 8.4-11 15.4l0.8 52.8c0.4 8.2-5.2 15.4-13.2 16.8l-23.2 4c-8 1.4-15.8-3.4-18.2-11.2l-17.2-50c-2.2-6.6-8.6-11-15.6-10.8-3.2 0-6.6 0.2-9.8 0.2s-6.6 0-9.8-0.2c-7-0.2-13.2 4.2-15.6 10.8l-17.2 50c-2.4 7.8-10.2 12.6-18.2 11.2l-23.2-4c-8-1.4-13.6-8.6-13.2-16.8l0.8-52.8c0.2-7-4.2-12.8-11-15.4-4.6-1.8-14.6-5.6-19.4-7.4-5.6-2-12.2-0.4-17.6 5.8l-33 40.6c-4.8 6.6-13.8 8.4-20.8 4.4l-20.4-11.8c-7-4-10-12.8-6.6-20.2l18.8-49.4c2.4-6.6 0.4-14-5-18.2-5-4-10-8.2-14.8-12.4-5.2-4.6-12.8-5.4-18.8-1.8l-44.8 27.6c-6.8 4.4-15.8 3.2-21-3l-15-18c-5.2-6.2-5-15.4 0.6-21.2l34.6-39.8c4.6-5.2 5.2-13 1.4-19-3.4-5.4-6.6-11-9.6-16.8-3.4-6.2-10.2-9.4-17.2-8.2l-51.8 10c-8 1.8-16-2.4-18.8-10l-8-22c-2.8-7.6 0.6-16.2 7.8-19.8l46.2-25.6c6.2-3.4 9.2-10.4 7.8-17.2-1.2-6.4-2.4-12.6-3.4-19-1-7-6.4-12.4-13.2-13.6l-52.2-8.4c-8-1-14.2-7.8-14.2-15.8v-23.4c0-8.2 6-15 14.2-15.8l52.2-8.4c7-1.2 12.2-6.6 13.2-13.6 1-6.4 2-12.8 3.4-19 1.4-6.8-1.8-13.8-7.8-17.2l-46.2-25.6c-7.2-3.6-10.6-12.2-7.8-19.8l8-22c2.8-7.6 10.8-12 18.8-10l51.8 10c6.8 1.4 13.8-2 17.2-8.2 3-5.6 6.2-11.2 9.6-16.8 3.6-6 3.2-13.6-1.4-19l-34.6-39.8c-5.6-6-5.8-15-0.6-21.2l15-18c5.2-6.2 14.2-7.6 21-3l45.4 27.2c6 3.6 13.6 2.8 18.8-1.8 4.8-4.2 9.8-8.4 14.8-12.4 5.4-4.4 7.6-11.8 5-18.2l-18.8-49.4c-3.2-7.4-0.4-16.2 6.6-20.2l20.4-11.8c7-4 16-2.2 20.8 4.4l33.6 41.2c4.2 5.2 11 7.4 16.4 5.2 6.8-2.8 11.4-4.4 19.8-7.2 6.6-2.2 11.2-8.4 11-15.4l-0.8-52.8c-0.4-8.2 5.2-15.4 13.2-16.8l23.2-4c8-1.4 15.8 3.4 18.2 11.2l17.2 50c2.2 6.6 8.6 11 15.6 10.8 3.2 0 6.6-0.2 9.8-0.2s6.6 0 9.8 0.2c7 0.2 13.2-4.2 15.6-10.8l17.2-50c2.4-7.8 10.2-12.6 18.2-11.2l23.2 4c8 1.4 13.6 8.6 13.2 16.8l-0.8 52.8c-0.2 7 4.4 13.2 11 15.4 8.4 2.8 14 5 19.2 7 5.2 1.8 11.6 2 16.6-4.2l34-41.8c4.8-6.6 13.8-8.4 20.8-4.4l20.4 11.8c7 4 10 12.8 6.6 20.2l-18.8 49.4c-2.4 6.6-0.4 14 5 18.2 5 4 10 8.2 14.8 12.4 5.2 4.6 12.8 5.4 18.8 1.8l45.4-27.2c6.8-4.4 15.8-3.2 21 3l15 18c5.2 6.2 5 15.4-0.6 21.2l-34.6 39.8c-4.6 5.2-5.2 13-1.4 19 3.4 5.4 6.6 11 9.6 16.8 3.4 6.2 10.2 9.4 17.2 8.2l51.8-10c8-1.8 16 2.4 18.8 10l8 22c2.8 7.6-0.6 16.2-7.8 19.8l-46.2 25.6c-6.2 3.4-9.2 10.4-7.8 17.2 1.2 6.4 2.4 12.6 3.4 19 1 7 6.4 12.4 13.2 13.6l52.2 8.4c8 1 14.2 7.8 14.2 15.8v23.4c-0.4 7.6-6.4 14.6-14.6 15.4zM363.6 246.2c-10.4-18-34.8-21.4-50-7.2-55.2 52.6-89.6 126.8-89.6 209 0 81.8 34.2 155.8 89 208.2 15 14.4 39.6 11 50-7l112-193.2c2.8-5 2.8-11 0-16l-111.4-193.8zM792 380.6c-30.2-126.6-144.2-220.6-280-220.6-28.2 0-55.6 4-81.2 11.6-19.8 5.8-29 28.8-18.6 46.6l111.4 193.8c2.8 5 8.2 8 13.8 8h223.4c20.8 0 36-19.2 31.2-39.4zM761 476h-223.6c-5.8 0-11 3-13.8 8l-112.2 193.4c-10.4 17.8-1.4 40.8 18.4 46.8 26 7.8 53.6 11.8 82.2 11.8 135.8 0 249.8-94 280-220.6 4.8-20.2-10.4-39.4-31-39.4z" />
<glyph unicode="&#xe95d;" glyph-name="color-fill" d="M463 723.4c0.2 0 0.2 0.2 0 0l-112.4 112.6c-18.6 18.6-43.2 28-67.8 28s-49.2-9.4-67.8-28v0c-37.4-37.4-37.4-98.4 0-135.8l98.6-98.6-169-168c-22.2-22.2-22-58.4 0.6-80l262.4-252c21.8-20.8 56-20.8 77.8 0.2 75.6 73.2 236.6 229 253.4 245.8 11.6 11.6 36.4 14.2 57.4 14.2 0.2 0 0.4 0 0.6 0 11.8 0 17.6 14.2 9.2 22.4l-343 339.2zM255.2 739.2c-14.4 14.4-16.6 37.6-4 53.6 7.6 9.8 19.2 15.2 31.6 15.2 10.8 0 20.8-4.2 28.2-11.6l98.6-98.6-56.6-56.6-97.8 98zM806 281c-3.2 3.8-9 3.8-12.2 0-21-24.4-90-107.8-90-152.8 0-53.2 43-96.2 96-96.2 0 0 0 0 0 0 53 0 96 43.2 96 96.2 0.2 45.2-68.6 128.4-89.8 152.8z" />
<glyph unicode="&#xe95e;" glyph-name="color-filter" d="M884 462.2c-31.4 41.2-75.4 71.8-124.2 87.2 2 12.6 2.8 25.4 2.8 38.2 0 67.4-26 130.8-73.4 178.4-47.2 47.8-110.2 74-177.2 74s-130-26.2-177.2-74c-47.4-47.6-73.4-111-73.4-178.4 0-12.8 1-25.6 2.8-38.2-49-15.4-92.8-46.2-124.2-87.2-34-44.4-52-97.6-52-153.8 0-67.4 26-130.8 73.4-178.4s110.4-74 177.2-74c65.2 0 126.4 24.8 173.4 70 46.8-45.2 108.2-70 173.4-70 67 0 130 26.2 177.2 74 47.4 47.6 73.4 111 73.4 178.4 0 56.2-18 109.4-52 153.8zM512 789c110.2 0 200-90.4 200-201.4 0-9.4-0.6-18.8-2-28.2-8.2 0.8-16.4 1.2-24.8 1.2-65.2 0-126.4-24.8-173.4-70-46.8 45.2-108.2 70-173.4 70-8.2 0-16.6-0.4-24.8-1.2-1.2 9.2-2 18.8-2 28.2 0.4 111.2 90.2 201.4 200.4 201.4zM512 386.2c-3.6 0-7.4 0.2-11 0.4 3.2 7.6 6.8 15 11 22.2 4.2-7.2 7.8-14.6 11-22.2-3.6-0.4-7.4-0.4-11-0.4zM418.8 123.8c-25.4-11.2-52.2-16.8-80.2-16.8-110.2 0-200 90.4-200 201.4 0 44.6 14.2 87 41.2 122.4 24.6 32.2 58.8 56.6 97 69.2 13.2-35.8 34.6-68.6 62.4-95.2 27.8-26.8 61.8-46.8 98.4-58.2-2-12.6-2.8-25.4-2.8-38.2 0-51.6 15.4-101.2 44.4-143.4-17.6-17.4-38-31.2-60.4-41.2zM450.2 396c-55.2 18-100 59.6-122.6 113.4 3.6 0.2 7.4 0.4 11 0.4 27.8 0 54.8-5.6 80.2-16.8 22.4-10 42.8-23.8 60.2-41.2-11.8-17.4-21.6-36-28.8-55.8zM512 208c-17.4 30.4-26.6 65-26.6 100.4 0 9.4 0.6 18.8 2 28.2 8.2-0.8 16.4-1.2 24.8-1.2 8.2 0 16.6 0.4 24.8 1.2 1.2-9.2 2-18.8 2-28.2-0.4-35.4-9.6-70-27-100.4zM605.2 493c25.4 11.2 52.2 16.8 80.2 16.8 3.6 0 7.4-0.2 11-0.4-22.6-53.8-67.4-95.4-122.6-113.4-7.2 19.6-17 38.4-28.8 55.8 17.4 17.4 37.8 31.2 60.2 41.2zM685.4 107c-27.8 0-54.8 5.6-80.2 16.8-22.4 10-42.8 23.8-60.2 41.2 29 42.2 44.4 91.6 44.4 143.4 0 12.8-1 25.6-2.8 38.2 36.6 11.4 70.4 31.4 98.4 58.2 27.6 26.6 49 59.2 62.4 95.2 38.2-12.6 72.4-36.8 97-69.2 27-35.4 41.2-77.8 41.2-122.4-0.2-111.2-90-201.4-200.2-201.4z" />
<glyph unicode="&#xe95f;" glyph-name="color-palette" d="M860.2 264.2c-13.2 12.2-32.6 15.2-49.2 18-23 3.8-31.8 8-45.2 20-28.6 25.4-28.6 62.2 0 87.6l60.6 53.8c92.8 82 92.8 216.4 0 298.4-68.4 60.2-160.2 90-255.6 90-111.4 0-227.8-40.6-317.6-120.2-167-147.6-167-389.4 0-537 83-73.4 195-110 305.8-110.8 1.2 0 2.4 0 3.4 0 110.8 0 220 35.8 297.6 104.8 28.8 25.4 24 73.2 0.2 95.4zM240 528c0 35.4 28.6 64 64 64s64-28.6 64-64-28.6-64-64-64-64 28.6-64 64zM320 276c-35.4 0-64 28.6-64 64s28.6 64 64 64 64-28.6 64-64-28.6-64-64-64zM448 598c-35.4 0-64 28.6-64 64s28.6 64 64 64 64-28.6 64-64-28.6-64-64-64zM592 160c-53 0-96 43-96 96s43 96 96 96 96-43 96-96c0-53-43-96-96-96zM640 576c-35.4 0-64 28.6-64 64s28.6 64 64 64 64-28.6 64-64-28.6-64-64-64z" />
<glyph unicode="&#xe960;" glyph-name="color-wand" d="M891.4 148.8l-488.8 490.4c-6.2 6.2-16.4 6.2-22.6 0l-57.4-57.6c-6.2-6.2-6.2-16.4 0-22.6l488.8-490.4c6.2-6.2 16.4-6.2 22.6 0l57.2 57.6c6.4 6.2 6.4 16.4 0.2 22.6zM840.4 120.2l-0.2-0.2c-6.2-6.2-16.4-6.2-22.6 0l-379.8 381c-6.2 6.2-6.2 16.4 0 22.6l0.2 0.2c6.2 6.2 16.4 6.2 22.6 0l379.8-381c6.2-6.2 6.2-16.4 0-22.6zM385.6 719.8c13.2 0 24 10.8 24 24v64.2c0 13.2-10.8 24-24 24s-24-10.8-24-24v-64.2c0-13.2 10.8-24 24-24zM385.6 433.4c-13.2 0-24-10.8-24-24v-64.2c0-13.2 10.8-24 24-24s24 10.8 24 24v64.2c0 13.2-10.8 24-24 24zM541.4 579.6c0-13.2 10.8-24 24-24h64c13.2 0 24 10.8 24 24s-10.8 24-24 24h-64c-13.2 0-24-10.8-24-24zM239.8 579.6c0 13.2-10.8 24-24 24h-63.8c-13.2 0-24-10.8-24-24s10.8-24 24-24h64c13 0 23.8 10.8 23.8 24zM249.6 678c4.6-4.6 10.6-7 17-7s12.4 2.6 17 7c9.4 9.4 9.4 24.6 0 34l-41.8 42c-4.6 4.6-10.6 7-17 7s-12.4-2.6-17-7c-9.4-9.4-9.4-24.6 0-34l41.8-42zM266.6 480.2v0c-6.4 0-12.4-2.6-17-7l-41.8-42c-4.6-4.6-7-10.6-7-17s2.4-12.4 7-17c4.6-4.6 10.6-7 17-7s12.4 2.6 17 7l41.8 42c9.4 9.4 9.4 24.6 0 34-4.6 4.4-10.6 7-17 7zM504.8 671c6.4 0 12.4 2.6 17 7l41.8 42c9.4 9.4 9.4 24.6 0 34-4.6 4.6-10.6 7-17 7s-12.4-2.6-17-7l-41.8-42c-4.6-4.6-7-10.6-7-17s2.4-12.4 7-17c4.6-4.4 10.6-7 17-7z" />
<glyph unicode="&#xe961;" glyph-name="compass" d="M561 399l-98 98c-1.8 1.8-5 1.4-6.4-0.8l-99-197c-2.2-3.6 2-7.8 5.6-5.6l197 99c2.2 1.4 2.6 4.6 0.8 6.4zM512 864c-229.8 0-416-186.2-416-416s186.2-416 416-416c229.8 0 416 186.2 416 416s-186.2 416-416 416zM593.2 365.4l-319.2-161c-3.6-2.2-7.8 2-5.6 5.6l161.2 319.2c0.4 0.6 0.8 1 1.4 1.4l319 161c3.6 2.2 7.8-2 5.6-5.6l-161.2-319.2c-0.2-0.6-0.6-1-1.2-1.4z" />
<glyph unicode="&#xe962;" glyph-name="construct" d="M760 831.2v0 0zM550.2 844.8c-18.8 11.8-46.6 19.2-75.8 19.2-28.6 0-60.6-5-93.4-18.4-93-38-148-90.8-162.2-104.8-14-14-33.6-36-45.8-53.2-12.2-17.4 3.8-42-12.2-58s-49.4 0-49.4 0c-2.8 0-5.8-1-7.8-3.2l-68.2-67.8c-4.4-4.2-4.4-11.4 0-15.6l127-126.2c2.2-2.2 5-3.2 7.8-3.2s5.8 1 7.8 3.2l66.4 69.6c4.4 4.2 4.4 11.4 0 15.6 0 0-10.6 10.4-24.2 24s1.6 38.6 10.6 46.8c9 8.2 23.2 13.6 42.2 13.6 8.6 0 14.8-1.4 22.8-3.6 24.4-6.8 51.6-31.8 101.8-81.6l-7.8-13c-4.6-7.6-1.8-16.6 2.6-20.8 0 0-10 9.8 26.2-26.2l100 94.4c-38.2 37.8-29 28.2-29 28.2-2.8 2.8-7.6 4.6-12.6 4.6-2.8 0-5.8-0.6-8.4-2l-11.2-6c-56 55.6-70.6 80.4-68.6 123.4 2.2 44.8 24.6 74.2 61 105.4 49.4 42.2 121.2 30.4 121.2 30.4 16 0.2-8.4 17.2-20.8 25.2zM925 160.2c0 0-137.8 114.4-260.4 231.4l-95.4-101.2c117-121.2 229.8-255.2 229.8-255.2 2.2-2.2 5-3.2 7.8-3.2s5.8 1 7.8 3.2l110.2 109.4c4.4 4.2 4.4 11.4 0.2 15.6zM958.4 709.4l-104.8-105.2-102.2 18.6-18.4 102.2 104.8 105.2c-22.2 22.2-53.6 33.2-78 33.2-1.4 0-2.8 0-4-0.2-25-1.2-78.4-15.4-119.8-59.4-40-42.2-82.2-121.2-44.8-208.6 4.4-10.6 9.4-24.4-5.4-39.4-3-2.8-19.8-18.8-45-42.6-7.2-6.8-14.8-14-23.2-22-16-15.2-34.2-32.4-53.6-50.4-7.6-7.2-15.4-14.4-23.2-22-114-107.6-253.8-239-253.8-239-36-31-33.4-88.2-0.2-121.6 17-16.8 40-25.6 62.6-25.6 22 0 43.8 8.4 59 26.2 0 0 131 139.6 238.6 253.8 7.4 8 14.8 15.6 22 23.4 18.6 19.8 36 38.2 51.6 54.6 7.8 8.4 15.2 16.2 22 23.2 23 24.4 38.6 40.8 42 44 8 7.8 15.4 10.2 22.2 10.2 6.6 0 12.4-2.4 17.2-4.8 19.8-10.2 42-14.6 64.8-14.6 53.4 0 110 24.8 144.2 59 48.8 48.8 57.6 95.8 59.2 120 1.2 23.6-7.2 55.2-33.8 81.8zM274.8 107.8c-11-10.8-28.8-10.8-39.6 0-10.8 11-10.8 28.8 0 39.6 11 10.8 28.8 10.8 39.6 0 10.8-11 10.8-28.8 0-39.6z" />
<glyph unicode="&#xe963;" glyph-name="contact" d="M512 864c0 0 0 0 0 0v0c-215 0-391.8-163-413.6-372.2-1.6-14.4-2.4-29-2.4-43.8s0.8-29.4 2.4-43.8c21.8-209.2 198.6-372.2 413.6-372.2v0c0 0 0 0 0 0 229.8 0 416 186.2 416 416s-186.2 416-416 416zM783.6 211.8c-45.4 17.2-119 42.4-164.8 56-4.8 1.4-5.4 1.8-5.4 21.4 0 16.2 6.6 32.6 13.2 46.6 7.2 15 15.4 40.4 18.4 63.2 8.4 9.8 20 29 27.2 65.8 6.4 32.4 3.4 44.2-0.8 55.2-0.4 1.2-1 2.4-1.2 3.4-1.6 7.6 0.6 47 6.2 77.6 3.8 21-1 65.6-29.8 102.6-18.2 23.4-53.2 52-117 56h-35c-62.8-4-97.6-32.6-116-56-29-37-33.8-81.6-30-102.6 5.6-30.6 7.8-70 6.2-77.6-0.4-1.4-0.8-2.4-1.2-3.6-4.2-11-7.4-22.8-0.8-55.2 7.4-36.8 18.8-56 27.2-65.8 3-22.8 11.4-48 18.4-63.2 5.2-11 7.6-26 7.6-47.2 0-19.8-0.8-20-5.2-21.4-47.4-14-117.8-38.8-160-55.6-57.6 65.8-88.8 148.8-88.8 236.6 0 96.2 37.4 186.6 105.4 254.6s158.4 105.4 254.6 105.4c96.2 0 186.6-37.4 254.6-105.4s105.4-158.4 105.4-254.6c0-87.8-31.2-170.8-88.4-236.2z" />
<glyph unicode="&#xe964;" glyph-name="contacts" d="M512 864c-229.8 0-416-186.2-416-416s186.2-416 416-416c229.8 0 416 186.2 416 416s-186.2 416-416 416zM798.6 336.2c-16.2 5.2-47.4 6.8-59 20.8-5.8 7-2 33.2-2 33.2 50.4 2.8 62 12.2 62 12.2 7.8 4.6 4.2 5.4 0.2 12.2-21.8 36.6-12 83-13 123.2-0.8 33.4-9.6 70-40 88.8-15.2 9.4-39.4 13.8-62.8 13.8-19 0-37.4-2.8-50.6-8.2-84.8-34-34.8-146.4-63.8-210.8-5-10.8-12.2-14.6 0.4-21 0 0 15-8.8 57.8-12.6 0 0 0.6-25.2 0-27.8-2.2-9.8-23.6-16.6-31.6-18.8-5.4-1.4-17.4-5-32.8-11.4-7.4-3-6.2-13.8 1.6-15.2s16.2-3.4 23-5.8c0 0 52.8-12 92-50 26.4-25.4 36.2-55.2 40-89.2 1-9-3.4-17.8-11-23-3.8-2.4-7.6-4.8-11.4-7.2-3.8-2.2-8.4 0.4-8.6 4.8v0c0 59-35.6 111-91.6 130.4-27 9.4-56.2 10-83.2 19.4-8.2 2.8-24.4 6.2-27.8 15.6-3.2 9.2-3.2 20-3.8 29.6-0.4 7.6-0.6 15.2-0.6 22.8 0 5 12.8 15.6 15.6 20.2 10.8 18 11.8 42.2 13.8 62.6 17.4-4.8 19.6 27.4 22.6 37.2 2.2 6.8 10 41.8-5.2 47.2 5 8.8 7 19.6 8.4 29.4 4 25.6 5.6 53.6-2.2 78.6-16.2 52-66 81.2-118.6 82.8-53.4 1.8-107-23.8-127-75.6-9.6-25.2-8.8-52.6-5.6-79 1.4-12 3.4-25.4 9.4-36.2-12.8-5.6-9-35.4-6.8-42.6 3.2-10.2 6-46.8 24.2-41.8 1.6-16.2 3.4-32.8 7.8-48.6 3-10.6 9.2-19.6 16.4-27.8 3.6-4 5.4-4.4 5.2-9.6-0.2-15.6 0.2-32.4-3.8-47.6s-37.4-21.6-50.8-24.4c-29.6-6-57.2-9.4-82.8-23-33 55-50.6 118.2-50.6 184.2 0 95.8 38.4 188 106.4 255.4 67 66.6 155.8 103.8 250.2 104.6 95.2 0.8 187.4-36.2 255.6-103 69.6-68.2 108-159.8 108-257 0-49.8-10-97.8-29-142.2-11.2 14-26.8 24.6-44.6 30.4z" />
<glyph unicode="&#xe965;" glyph-name="contract" d="M368.6 550.4h-155.4c-15.4 0-27.8-12.4-27.8-27.8v-0.4c0-15.4 12.4-27.8 27.8-27.8h224.4c15.4 0 27.8 12.4 27.8 27.8v224.6c0 15.4-12.4 27.8-27.8 27.8h-0.4c-15.4 0-27.8-12.4-27.8-27.8v-155.4l-234 232.6c-5.2 5.2-12.2 8-19.6 8s-14.4-2.8-19.6-8.2c-10.8-10.8-10.8-28.4 0-39.2l232.4-234.2zM586.2 494.4h224.4c15.4 0 27.8 12.4 27.8 27.8v0.4c0 15.4-12.4 27.8-27.8 27.8h-155.4l232.8 234.2c10.8 10.8 10.8 28.4 0 39.2-5.2 5.2-12.2 8.2-19.6 8.2s-14.4-2.8-19.6-8l-234.2-232.6v155.4c0 15.4-12.4 27.8-27.8 27.8h-0.4c-15.4 0-27.8-12.4-27.8-27.8v-224.4c0-15.4 12.4-28 27.6-28zM155.8 64c7.4 0 14.4 2.8 19.6 8l234.2 232.6v-155.4c0-15.4 12.4-27.8 27.8-27.8h0.4c15.4 0 27.8 12.4 27.8 27.8v224.6c0 15.4-12.4 27.8-27.8 27.8h-224.6c-15.4 0-27.8-12.4-27.8-27.8v-0.4c0-15.4 12.4-27.8 27.8-27.8h155.4l-232.6-234.2c-10.8-10.8-10.8-28.4 0-39.2 5.4-5.4 12.4-8.2 19.8-8.2zM586.2 121.6h0.4c15.4 0 27.8 12.4 27.8 27.8v155.4l234.2-232.8c5.2-5.2 12.2-8 19.6-8s14.4 2.8 19.6 8.2c10.8 10.8 10.8 28.4 0 39.2l-232.4 234.2h155.4c15.4 0 27.8 12.4 27.8 27.8v0.4c0 15.4-12.4 27.8-27.8 27.8h-224.6c-15.4 0-27.8-12.4-27.8-27.8v-224.4c0.2-15.4 12.6-27.8 27.8-27.8z" />
<glyph unicode="&#xe966;" glyph-name="contrast" d="M512 864c-229.8 0-416-186.2-416-416s186.2-416 416-416c229.8 0 416 186.2 416 416s-186.2 416-416 416zM766.6 193.4c-68-68-158.4-105.4-254.6-105.4v720c96.2 0 186.6-37.4 254.6-105.4s105.4-158.4 105.4-254.6-37.4-186.6-105.4-254.6z" />
<glyph unicode="&#xe967;" glyph-name="copy" d="M704 730h180c6.6 0 12 5.4 12 12v0c0 16.4-7.4 32-20 42.6l-154.2 128.4c-9.8 8.2-28.4 14.8-41.2 14.8v0c-8.2 0-14.8-6.6-14.8-14.8v-145c0.2-21 17.2-38 38.2-38zM614 768v160h-262c-35.2 0-64-28.8-64-64v-672c0-35.2 28.8-64 64-64h480c35.2 0 64 28.8 64 64v486h-192c-49.6 0-90 40.4-90 90zM232 136v664h-40c-35.2 0-64-28.8-64-64v-704c0-35.2 28.8-64 64-64h512c35.2 0 64 28.8 64 64v40h-472c-35.2 0-64 28.8-64 64z" />
<glyph unicode="&#xe968;" glyph-name="create" d="M808.6 788l-404-404c-3-3-4.6-7-4.6-11.2v-53c0-8.8 7.2-15.8 15.8-15.8h52.6c4.2 0 8.4 1.6 11.4 4.6l404.2 404c6.2 6.2 6.2 16.2 0 22.4l-53 53c-6.2 6.2-16.2 6.2-22.4 0zM951.2 826l-28.8 28.8c-0.2 0.2-0.4 0.4-0.4 0.4-6.2 5.4-14.4 8.8-23 8.8-8.8 0-17-3.4-23.2-9l-22.6-22.8c-3-3.2-3-8.2 0-11.2l64.2-64.2c3.2-3.2 8.2-3.2 11.4 0l22.6 22.6c5.6 6.2 8.8 14.2 8.8 23.2-0.2 8.8-3.4 17.2-9 23.4zM500 276c-6-6-14.2-9.4-22.6-9.4h-82.8c-17.6 0-32 14.4-32 32v83c0 8.4 3.4 16.6 9.4 22.6l296.8 296.8c5 5 1.4 13.6-5.6 13.6h-481.8c-64.8 0-117.4-52.6-117.4-117.4v-448c0-64.8 52.6-117.4 117.4-117.4h512c64.8 0 117.4 52.6 117.4 117.4v418c0 7.2-8.6 10.6-13.6 5.6l-297.2-296.8z" />
<glyph unicode="&#xe969;" glyph-name="crop" d="M284 832v0c-15.4 0-28-12.6-28-28v-40c0-15.4 12.6-28 28-28v0c15.4 0 28 12.6 28 28v40c0 15.4-12.6 28-28 28zM312 276v304c0 15.4-12.6 28-28 28v0c-15.4 0-28-12.6-28-28v-332c0-31 25-56 56-56h332c15.4 0 28 12.6 28 28v0c0 15.4-12.6 28-28 28h-304c-15.4 0-28 12.6-28 28zM868 248h-40c-15.4 0-28-12.6-28-28v0c0-15.4 12.6-28 28-28h40c15.4 0 28 12.6 28 28v0c0 15.4-12.6 28-28 28zM128 676v0c0-15.4 12.6-28 28-28h528c15.4 0 28-12.6 28-28v-528c0-15.4 12.6-28 28-28v0c15.4 0 28 12.6 28 28v556c0 31-25 56-56 56h-556c-15.4 0-28-12.6-28-28z" />
<glyph unicode="&#xe96a;" glyph-name="cube" d="M881.6 701l-358.2 160.6c-7.2 3.2-15.4 3.2-22.6 0l-358.4-160.6c-12-5.4-12.4-23.6-0.8-29.6l357.4-188.2c8.2-4.4 17.8-4.4 26 0l357.4 188.2c11.6 6 11.2 24.2-0.8 29.6zM560.4 34.2l360.2 190.6c4.4 2.8 7.2 8 7.2 13.6v369.8c0 11.8-11.6 19.4-21.4 14.2l-360.2-185.6c-5.2-2.6-8.4-8.2-8.4-14.2v-374.6c0.2-12.4 12.8-20 22.6-13.8zM96 608.2v-369.6c0-5.6 2.8-10.8 7.2-13.6l360.2-190.6c10-6.4 22.4 1.2 22.4 13.6v374.6c0 6-3.2 11.6-8.4 14.2l-360 185.6c-9.8 5.2-21.4-2.6-21.4-14.2z" />
<glyph unicode="&#xe96b;" glyph-name="cut" d="M616 405.6c51 66 161 223 180.4 270.8 14.4 35.2 21.2 65.6 20.8 92.4-0.4 35.8-12 58.6-36.6 81.2-10.4 9.6-27 13.8-40 13.8l-254.6-341.8c0 0-0.2-0.2-0.2-0.2l-29-39.4c-0.2-0.2-0.4-0.6-0.6-0.8-1-1.6-15-21.8-30.4-45.4-6-9.2-12.2-19-18-28.2-7-11.2-13.2-22-17.6-30.4-7.2-14.2-14.6-28.8-21.4-43-7.4-15-14.4-29.2-20.8-41.4-20.4 14.6-44 22.2-68.6 22.2-35 0-67.4-15.4-91.6-43.2-23-26.4-35.8-61.4-35.8-98.4s12.8-72 35.8-98.6c24.2-27.8 56.8-43.2 91.6-43.2 28.8 0 56 10.4 78.4 30 21 18.2 36 42.6 43.6 70.8 2 6.2 23.2 69.4 52.2 114.6 18.4 28.8 44.4 46.8 59.2 55.6l27 19.4c0-0.2 25.4 17.4 76.2 83.2zM279.8 117.8c-26.6 0-48 25.2-48 56s21.4 56 48 56c26.6 0 48-25.2 48-56 0-31-21.6-56-48-56zM512.2 383.6c-17.6 0-32 14.4-32 32s14.4 32 32 32c17.6 0 32-14.4 32-32s-14.4-32-32-32zM383 439.2c1.4-2 3.2-3.8 5-5.4 3.4 5.6 7.2 11.4 10.8 17.2l93 131.6-210 281.4c-17.8 0-28.8-1.8-37-7.8-23.8-17.8-38.2-51.2-38.6-87.2-0.4-27 6.6-57.2 20.8-92.4 17.2-42 85.2-140.4 156-237.4zM744 315.4c-24.6 0-48.2-7.6-68.6-22.2-6.4 12.2-13.4 26.4-20.8 41.4-6.8 13.8-13.8 28-20.8 41.6l-21.8-27.8-72.8-66.2c10.4-9.2 21.4-20.8 30.6-35 29-45.2 50-108.4 52-114.6 7.6-28.2 22.6-52.6 43.6-70.8 22.6-19.6 49.8-30 78.4-30 70.6 0 128 63.6 128 141.8s-57.2 141.8-127.8 141.8zM744.2 117.8c-26.6 0-48 25.2-48 56s21.4 56 48 56c26.6 0 48-25.2 48-56 0-31-21.4-56-48-56z" />
<glyph unicode="&#xe96c;" glyph-name="desktop" d="M704 75.6c-0.6 4.4-4 7.8-8.4 8.6l-44.6 3.8c-23.6 6.2-41 32.4-44.6 56.6l-2.4 15.4h-184l-2.4-15.2c-3.8-24.2-21-50.4-44.6-56.6l-44.6-3.8c-4.2-1-7.8-4.4-8.4-8.6-0.8-6.2 4-11.6 10.2-11.6h363.6c6-0.2 11 5.2 10.2 11.4zM945.8 818c-9 9-21.4 14-34 14h-799.4c-12.8 0-25-5-34-14s-14.4-21.4-14.4-34v-544c0-12.8 5.4-25 14.4-34s21-14 33.6-14h800c12.8 0 24.6 5 33.6 14s14.4 21.4 14.4 34v544c0.2 12.6-5.2 25-14.2 34zM512 240c-8.8 0-16 7.2-16 16s7.2 16 16 16 16-7.2 16-16-7.2-16-16-16zM919.8 320h-815.4c-4.4 0-8 3.6-8 8v448c0 13.2 10.8 24 24 24h783.4c13.2 0 24-10.8 24-24v-448c0-4.4-3.6-8-8-8z" />
<glyph unicode="&#xe96d;" glyph-name="disc" d="M512 628.4c-99.8 0-180.6-80.8-180.6-180.6s80.8-180.4 180.6-180.4 180.6 80.8 180.6 180.4c0 99.8-80.8 180.6-180.6 180.6zM512 367.2c-44.6 0-80.8 36.2-80.8 80.8s36.2 80.8 80.8 80.8 80.8-36.2 80.8-80.8-36.2-80.8-80.8-80.8zM512 864c-229.8 0-416-186.2-416-416s186.2-416 416-416 416 186.2 416 416-186.2 416-416 416zM512 220c-126 0-228 102.2-228 228 0 126 102.2 228 228 228s228-102 228-228c0-126-102-228-228-228z" />
<glyph unicode="&#xe96e;" glyph-name="document" d="M624 650h182c5.6 0 10 4.4 10 10v0c0 17.8-7.8 34.6-21.4 45.8l-152.6 127.2c-11.6 9.6-26 14.8-41.2 14.8v0c-8.2 0-14.8-6.6-14.8-14.8v-145c0-21 17-38 38-38zM534 688v160h-262c-35.2 0-64-28.8-64-64v-672c0-35.2 28.8-64 64-64h480c35.2 0 64 28.8 64 64v486h-192c-49.6 0-90 40.4-90 90z" />
<glyph unicode="&#xe96f;" glyph-name="done-all" d="M635 539.4c3.4 3.6 3.6 9.4 0 13l-39.6 42c-1.6 1.8-4 2.8-6.4 2.8 0 0 0 0 0 0-2.4 0-4.8-1-6.4-2.8l-133-138.2 52.8-54.2 132.6 137.4zM247.6 453.8c-1.8 1.8-4 2.8-6.4 2.8s-4.6-1-6.4-2.8l-40.2-41.4c-3.6-3.6-3.6-9.6 0-13.2l126.4-130c8-8.4 18-13.2 26.4-13.2 12 0 22.2 9 26.2 12.8 0 0 0 0 0.2 0.2l26.8 27.6-153 157.2zM829.4 595.2l-39.6 42c-1.6 1.8-4 2.8-6.4 2.8 0 0 0 0 0 0-2.4 0-4.8-1-6.4-2.8l-275.6-285.4-100.2 103.2c-1.8 1.8-4 2.8-6.4 2.8s-4.6-1-6.4-2.8l-40.2-41.4c-3.6-3.6-3.6-9.6 0-13.2l126.4-130c8-8.4 18-13.2 26.4-13.2 12 0 22.2 9 26.2 12.8 0 0 0 0 0.2 0.2l302 312.2c3.4 3.4 3.4 9.2 0 12.8z" />
<glyph unicode="&#xe970;" glyph-name="download" d="M752 672h-214v-359.8l95.8 94.4c10.2 10 26.6 10 36.8-0.2 10-10.2 10-26.6-0.2-36.8l-140-138c-5-4.8-11.6-7.4-18.2-7.4-3.4 0-6.8 0.6-10 2-3 1.2-5.8 3.2-8.2 5.4 0 0 0 0 0 0l-140 138c-10.2 10-10.4 26.6-0.2 36.8 10 10.2 26.6 10.4 36.8 0.2l95.8-94.4v359.8h-214.4c-44 0-80-36-80-80v-480c0-44 36-80 80-80h480c44 0 80 36 80 80v480c0 44-36 80-80 80zM538 838c0 14.4-11.6 26-26 26s-26-11.6-26-26v-166h52v166z" />
<glyph unicode="&#xe971;" glyph-name="easel" d="M868 37l-53.2 138.2c-4.2 10.2-14 16.8-24.8 16.8-9 0-17.2-4.4-22.2-11.8s-6-16.8-2.8-25l52-138.2c4.2-10.2 14-17 25-17h1c9 0 17.4 4.4 22.4 11.8 5 7.6 6 17 2.6 25.2zM235.2 192c-11 0-20.8-6.6-24.8-16.8l-53.2-138.2c-3.4-8.4-2.4-17.8 2.6-25.2s13.4-11.8 22.4-11.8h1c11 0 20.8 6.6 25 17l52 138.2c3.4 8.2 2.4 17.6-2.8 25-4.8 7.4-13.2 11.8-22.2 11.8zM513.2 192h-2.2c-14.8 0-26.8-12-26.8-26.8v-72.2c0-14.8 12-28.8 26.8-28.8h2.2c14.8 0 26.8 14 26.8 28.8v72.2c0 14.8-12 26.8-26.8 26.8zM848 704h-672c-8.8 0-16-7.2-16-16v-352c0-8.8 7.2-16 16-16h672c8.8 0 16 7.2 16 16v352c0 8.8-7.2 16-16 16zM896 800h-768.2c-35.2 0-63.8-28.6-63.8-63.8v-448.4c0-35.2 28.6-63.8 63.8-63.8h768.2c35.4 0 64 28.6 64 64v448c0 35.4-28.6 64-64 64zM904 312c0-17.6-14.4-32-32-32h-720c-17.6 0-32 14.4-32 32v400c0 17.6 14.4 32 32 32h729.2c6 0 11.8-2.4 16-6.6v0c4.2-4.2 6.6-10 6.6-16v-409.4zM512 896c-26.8 0.4-48.8-24.4-48.8-51.2h97.4c0.2 26.8-21.8 51.6-48.6 51.2z" />
<glyph unicode="&#xe972;" glyph-name="egg" d="M512 896c-128 0-320-266.4-320-513.8s128-382.2 320-382.2 320 134.8 320 382.2c0 247.4-192 513.8-320 513.8v0z" />
<glyph unicode="&#xe973;" glyph-name="exit" d="M288 688v-214h359.8l-94.4 95.8c-10 10.2-10 26.6 0.2 36.8 10.2 10 26.6 10 36.8-0.2l138-140c4.8-5 7.4-11.6 7.4-18.2 0-3.4-0.6-6.8-2-10-1.2-3-3.2-5.8-5.4-8.2 0 0 0 0 0 0l-138-140c-10-10.2-26.6-10.4-36.8-0.2-10.2 10-10.4 26.6-0.2 36.8l94.4 95.8h-359.8v-214c0-44 36-80 80-80h480c44 0 80 36 80 80v479.6c0 44-36 80-80 80h-480c-44 0-80-36-80-80zM122 474c-14.4 0-26-11.6-26-26s11.6-26 26-26h166v52h-166z" />
<glyph unicode="&#xe974;" glyph-name="expand" d="M224.8 776h155.4c15.4 0 27.8 12.4 27.8 27.8v0.4c0 15.4-12.4 27.8-27.8 27.8h-224.4c-15.4 0-27.8-12.4-27.8-27.8v-224.4c0-15.4 12.4-27.8 27.8-27.8h0.4c15.4 0 27.8 12.4 27.8 27.8v155.4l234.2-232.6c5.2-5.2 12.2-8 19.6-8s14.4 2.8 19.6 8.2c10.8 10.8 10.8 28.4 0 39.2l-232.6 234zM868.2 832h-224.4c-15.4 0-27.8-12.4-27.8-27.8v-0.4c0-15.4 12.4-27.8 27.8-27.8h155.4l-232.6-234.2c-10.8-10.8-10.8-28.4 0-39.2 5.2-5.2 12.2-8.2 19.6-8.2s14.4 2.8 19.6 8l234.2 232.8v-155.4c0-15.4 12.4-27.8 27.8-27.8h0.4c15.4 0 27.8 12.4 27.8 27.8v224.4c0 15.4-12.4 27.8-27.8 27.8zM437.8 401.6c-7.4 0-14.4-2.8-19.6-8l-234.2-232.8v155.4c0 15.4-12.4 27.8-27.8 27.8h-0.4c-15.4 0-27.8-12.4-27.8-27.8v-224.4c0-15.4 12.4-27.8 27.8-27.8h224.4c15.4 0 27.8 12.4 27.8 27.8v0.4c0 15.4-12.4 27.8-27.8 27.8h-155.4l232.6 234.2c10.8 10.8 10.8 28.4 0 39.2-5.2 5.2-12.2 8.2-19.6 8.2zM868.2 344h-0.4c-15.4 0-27.8-12.4-27.8-27.8v-155.4l-234.2 232.6c-5.2 5.2-12.2 8-19.6 8s-14.4-2.8-19.6-8.2c-10.8-10.8-10.8-28.4 0-39.2l232.6-234h-155.4c-15.4 0-27.8-12.4-27.8-27.8v-0.4c0-15.4 12.4-27.8 27.8-27.8h224.4c15.4 0 27.8 12.4 27.8 27.8v224.4c0 15.4-12.4 27.8-27.8 27.8z" />
<glyph unicode="&#xe975;" glyph-name="eye-off" d="M176.6 823.8c-11.2 11-29.2 11-40.2-0.2-11-11-11-29 0-40l711-711.4c7.4-7.4 18-9.8 27.4-7.2 4.8 1.2 9.2 3.8 12.8 7.4 11 11 11 29 0 40l-711 711.4zM520.4 268.2c-106-4.8-193.2 82.4-188.2 188.2 1.2 24.4 7.2 47.6 17.2 68.6l-106.8 107c-55.4-42.8-110.8-97.8-170.2-162.6-11-12.2-11.2-30.4-0.2-42.6 129.8-143.4 244.2-266.8 439.4-266.8 59.4 0 114.2 14.8 164.6 38.4l-87 87c-21.2-10-44.4-16-68.8-17.2zM951.6 428c10.6 11.6 11.2 29.2 1 41.4-104.6 127-249.6 266.6-441 266.6-58.2 0-112-13.2-164-38l87.4-87.4c21 10 44.2 16.2 68.6 17.2 106 4.8 193.2-82.4 188.2-188.2-1.2-24.4-7.2-47.6-17.2-68.6l107-107c66 50.6 122.6 111.8 170 164zM384.4 438.2c4.8-62.6 55.2-113 117.8-117.8 16.4-1.2 32.2 0.6 46.8 5.2l-159.6 159.6c-4.4-14.8-6.2-30.6-5-47zM640 448c0 2.6-0.2 5.2-0.2 7.8-11.2-5-23.4-7.8-36.4-7.8-2.2 0-4.2 0-6.2 0.2l37.2-37.4c3.6 11.8 5.6 24.4 5.6 37.2zM512 542c0 12 2.2 23.4 6.2 33.8-2 0-4 0.2-6.2 0.2-12.8 0-25.2-2-37-5.6l37.4-37.4c-0.2 3-0.4 6-0.4 9z" />
<glyph unicode="&#xe976;" glyph-name="eye" d="M511.6 736c-160.8 0-287.6-101.2-439.2-266.6-11-12.2-11.2-30.4-0.2-42.6 129.8-143.4 244.2-266.8 439.4-266.8 192.8 0 337.4 155.4 440.2 268 10.6 11.6 11.2 29.2 1 41.4-104.8 127-249.8 266.6-441.2 266.6zM520.4 268.2c-106-4.8-193.2 82.4-188.2 188.2 4.2 92.4 79 167.2 171.4 171.4 106 4.8 193.2-82.4 188.2-188.2-4.2-92.4-79-167.2-171.4-171.4zM512 542c0 12 2.2 23.4 6.2 33.8-2 0-4 0.2-6.2 0.2-73.8 0-133.2-62.8-127.6-137.8 4.8-62.6 55.2-113 117.8-117.8 75-5.6 137.8 53.8 137.8 127.6 0 2.6-0.2 5.2-0.2 7.8-11.2-5-23.4-7.8-36.4-7.8-50.4 0-91.4 42.2-91.4 94z" />
<glyph unicode="&#xe977;" glyph-name="fastforward" d="M952.2 461.4l-416.2 240.4c-10.8 6.2-24.6-1.2-24.6-13.4v-230.4l-422.8 243.8c-10.8 6.2-24.6-1.2-24.6-13.4v-480.6c0-12.2 13.8-19.6 24.6-13.4l422.6 243.6v-230.4c0-12.2 13.8-19.6 24.6-13.4l416.2 240.4c10.6 6 10.6 20.8 0.2 26.8z" />
<glyph unicode="&#xe978;" glyph-name="female" d="M123.2 32c7.2 0 14.2 2.8 19.2 8l89.6 89.6 74-74c5.2-5.2 12-8 19.2-8s14.2 2.8 19.2 8c10.6 10.6 10.6 27.8 0 38.4l-74 74 100 100c61.2-52 138.6-80.6 219.2-80.6 45.6 0 90 9 131.6 26.6 40.2 17 76.4 41.4 107.6 72.4 31 31 55.4 67.2 72.4 107.6 17.6 41.8 26.6 86 26.6 131.6s-9 90-26.6 131.6c-17 40.2-41.4 76.4-72.4 107.6-31 31-67.2 55.4-107.6 72.4-41.8 17.6-86 26.6-131.6 26.6s-90-9-131.6-26.6c-40.2-17-76.4-41.4-107.6-72.4-31-31-55.4-67.2-72.4-107.6-17.6-41.8-26.6-86-26.6-131.6 0-80.6 28.6-158 80.6-219.2l-100-100-74 74c-5.2 5.2-12 8-19.2 8s-14.2-2.8-19.2-8c-10.6-10.6-10.6-27.8 0-38.4l74-74-89.6-89.6c-10.6-10.6-10.6-27.8 0-38.4 5.2-5.2 12-8 19.2-8zM389 726.4c53.6 53.6 125 83.2 200.8 83.2s147-29.6 200.6-83.2c53.6-53.6 83.2-124.8 83.2-200.6s-29.6-147-83.2-200.6c-53.6-53.6-124.8-83.2-200.6-83.2s-147 29.6-200.6 83.2c-53.8 53.4-83.2 124.8-83.2 200.6s29.4 147 83 200.6z" />
<glyph unicode="&#xe979;" glyph-name="filing" d="M848 832h-672c-44 0-80-36-80-80v-608c0-44 36-80 80-80h672c44 0 80 36 80 80v608c0 44-36 80-80 80zM872 480c0-17.6-14.4-32-32-32h-173.6c-13.6 0-25.6-8.4-30.2-21.2-8.2-23.2-28.6-42.8-52.2-42.8h-144c-23.8 0-44.2 19.6-52.2 42.8-4.4 12.8-16.6 21.2-30.2 21.2h-173.6c-17.6 0-32 14.4-32 32v264c0 17.6 14.4 32 32 32h656c17.6 0 32-14.4 32-32v-264zM772 648h-520c-15.4 0-28 12.6-28 28v0c0 15.4 12.6 28 28 28h520c15.4 0 28-12.6 28-28v0c0-15.4-12.6-28-28-28zM772 520h-520c-15.4 0-28 12.6-28 28v0c0 15.4 12.6 28 28 28h520c15.4 0 28-12.6 28-28v0c0-15.4-12.6-28-28-28z" />
<glyph unicode="&#xe97a;" glyph-name="film" d="M895.8 800h-767.6c-35.2 0-64.2-29-64.2-64.2v-575.4c0-35.4 29-64.2 64.2-64.2h767.4c35.4 0 64.2 29 64.2 64.2v575.4c0.2 35.2-28.8 64.2-64 64.2zM240 160c0-8.8-7.2-16-16-16h-96c-8.8 0-16 7.2-16 16v96c0 8.8 7.2 16 16 16h96c8.8 0 16-7.2 16-16v-96zM240 320c0-8.8-7.2-16-16-16h-96c-8.8 0-16 7.2-16 16v96c0 8.8 7.2 16 16 16h96c8.8 0 16-7.2 16-16v-96zM240 480c0-8.8-7.2-16-16-16h-96c-8.8 0-16 7.2-16 16v96c0 8.8 7.2 16 16 16h96c8.8 0 16-7.2 16-16v-96zM240 640c0-8.8-7.2-16-16-16h-96c-8.8 0-16 7.2-16 16v96c0 8.8 7.2 16 16 16h96c8.8 0 16-7.2 16-16v-96zM704 424h-384c-13.2 0-24 10.8-24 24s10.8 24 24 24h384c13.2 0 24-10.8 24-24s-10.8-24-24-24zM912 160c0-8.8-7.2-16-16-16h-96c-8.8 0-16 7.2-16 16v96c0 8.8 7.2 16 16 16h96c8.8 0 16-7.2 16-16v-96zM912 320c0-8.8-7.2-16-16-16h-96c-8.8 0-16 7.2-16 16v96c0 8.8 7.2 16 16 16h96c8.8 0 16-7.2 16-16v-96zM912 480c0-8.8-7.2-16-16-16h-96c-8.8 0-16 7.2-16 16v96c0 8.8 7.2 16 16 16h96c8.8 0 16-7.2 16-16v-96zM912 640c0-8.8-7.2-16-16-16h-96c-8.8 0-16 7.2-16 16v96c0 8.8 7.2 16 16 16h96c8.8 0 16-7.2 16-16v-96z" />
<glyph unicode="&#xe97b;" glyph-name="finger-print" d="M901.6 596c-17.2 48.8-40.6 89.8-66 115-5.2 5.2-12 8-19.4 8v0c-7.4 0-14.2-2.8-19.4-8-10.6-10.6-10.6-28 0-38.8 19.8-19.8 39.2-54.8 53.6-96.2 14.6-42.4 22.8-87.2 22.8-126.2 0-6-0.2-15.2-0.4-20.2-0.4-7.4 2.2-14.2 7.2-19.6s11.6-8.6 19-8.8c0.4 0 0.8 0 1.2 0 14.6 0 26.6 11.4 27.4 26.2 0.2 6.2 0.4 16.2 0.4 22.6 0 45.6-9.4 97.6-26.4 146zM286 738.8c5.8 0 11.2 1.8 16 5.2 59.8 42.8 132.4 65.4 210 65.4 81.6 0 160.2-29.6 227.4-85.6 5-4 11.2-6.4 17.6-6.4 8.2 0 15.8 3.6 21 9.8 9.6 11.6 8 28.8-3.4 38.6-77.4 64.2-168 98.2-262.6 98.2-89.2 0-172.8-26.2-242-75.6-6-4.2-9.8-10.6-11-17.8s0.4-14.4 4.8-20.4c5-7.2 13.4-11.4 22.2-11.4zM150.8 450c0 87.4 31.6 171.6 89 237.4 4.8 5.6 7.2 12.6 6.6 19.8-0.4 7.2-3.8 14-9.4 18.8-5 4.4-11.4 6.8-18 6.8v0c-8 0-15.4-3.4-20.6-9.4-66-75.8-102.4-172.8-102.4-273.4 0-65.6 11.8-117.6 30.8-180.4 3.6-11.6 14-19.4 26.2-19.4 2.6 0 5.4 0.4 8 1.2 7 2.2 12.8 6.8 16.2 13.2s4.2 13.8 2 20.8c-17.6 58-28.4 105.6-28.4 164.6zM711.4 700.4c-54.6 47.4-121.4 72.4-193.4 72.4-96.6 0-182.8-35.6-243-100.2-57.4-61.6-85.6-143.4-79.4-230.2 4.6-65.4 12-101.4 18.6-133.2 8.6-42.2 15.4-75.6 10.2-168.2-0.8-13.4 7.4-25.4 20-29.2 2.4-0.8 4.6-1 7.2-1 14.4 0 26.4 11.4 27.4 25.8 5.8 100.8-1.6 137.4-11 183.8-6.2 30.2-13.2 64.4-17.6 126.2-5.2 71.4 18 138.6 64.8 189 49.6 53.4 121.8 82.8 202.8 82.8 58.6 0 113-20.4 157.4-59 44.6-38.6 78.4-94.8 98-162.2 22.8-78.6 29-178.6 18.2-289-1.4-15 9.6-28.4 24.6-30 0.8 0 1.8-0.2 2.6-0.2 14.2 0 25.8 10.6 27.2 24.8 11.6 117.4 4.6 224.4-20.2 309.6-22.2 77.2-61.8 142.4-114.4 188zM747 425c-11.8 75-39.8 137.6-81.2 181.2-41.6 44-94.8 67.4-153.8 67.4-38 0-75.4-8.2-108.2-24-7.4-3.6-12.8-10.2-14.8-18.2-2-8.2-0.2-16.6 5-23.2 5.2-6.8 13-10.6 21.6-10.6 4.2 0 8 1 11.8 2.6 25.2 12 54.4 18.4 84.4 18.4 44.8 0 85-18.4 116.6-53.2 32.2-35.6 54.6-87.2 64.2-149.2 9.4-59.2 14-107 14.2-146.2 0.4-79.4-9.6-145.4-9.6-146.2-1.2-7.2 0.6-14.4 5-20.4s10.6-9.8 17.8-11c1.4-0.2 2.8-0.4 4.2-0.4 13.6 0 25 9.8 27 23.2 0.4 2.8 10.8 70.4 10.4 155 0 42.6-4.8 93-14.6 154.8zM370.6 553c8 11.6 5.8 27.2-5 36.4-5 4.2-11.2 6.4-17.6 6.4-9 0-17.4-4.4-22.6-11.8-29.4-43-39.4-98.2-28.8-159.6 17.8-102.6 33.8-222.2 18.8-330-1-7.6 1-15.4 5.8-21.4 4.6-6 11.4-9.6 18.8-10.2 0.8 0 1.6-0.2 2.4-0.2 13.6 0 25.2 10.2 27 23.6 16.4 115.4-0.4 240.4-19 347.6-8.2 47.6-1.4 87.8 20.2 119.2zM635 184c-0.4 0-0.6 0-1 0-15.2-0.6-27-13.2-26.4-28.4 0-0.4 1.2-35.8-5.2-69.4-2.6-13.8 5.2-27.4 18.2-31.6 2.8-0.8 5.6-1.4 8.6-1.4 13.2 0 24.4 9.4 26.8 22.2 7.6 40.2 6.2 80.4 6.2 82.2-0.4 15-12.4 26.4-27.2 26.4zM589.2 548.2c-22.4 21-50.4 32.2-81 32.2-39.6 0-73.4-14.6-95.2-41-16.6-20.2-34-57.6-21.8-120 24.6-125 30-243.2 16.2-351.2-2-15 8.8-28.8 23.6-30.6 1.2-0.2 2.4-0.2 3.4-0.2 13.8 0 25.4 10.2 27.2 24 14.6 114 9 238-16.6 368.8-6.4 32.8-2.8 58.6 10.2 74.6 11.2 13.6 30 21 52.8 21 50 0 70.2-55.2 76.6-78.8 13.8-51.4 21.8-126 23-215.4 0.2-14.8 12.4-27 27.4-27 0.2 0 0.2 0 0.4 0 7.2 0.2 14 3 19.2 8.2 5 5.2 7.8 12.2 7.8 19.4-1.4 94-10 173-25 228.8-9.8 37-26.2 66.4-48.2 87.2zM530.4 468.2c-4.2 10.2-14.2 17-25.4 17v0c-3.6 0-7.2-0.8-10.4-2-14-5.8-20.6-21.8-14.8-35.8 13.2-32 23.6-92.4 28.2-165.6 4.8-73.8 3.4-153.8-4-219.2-0.8-7.2 1.2-14.4 5.8-20.2s11-9.2 18.4-10c1-0.2 2-0.2 3-0.2 14 0 25.6 10.4 27.2 24.4 7.8 71 9.2 153.2 4 231.6-5 78.6-16.4 142.6-32 180z" />
<glyph unicode="&#xe97c;" glyph-name="fitness" d="M704 400h-384c-8.8 0-16 7.2-16 16v64c0 8.8 7.2 16 16 16h384c8.8 0 16-7.2 16-16v-64c0-8.8-7.2-16-16-16zM756 236v424c0 24.2 19.8 44 44 44v0c24.2 0 44-19.8 44-44v-424c0-24.2-19.8-44-44-44v0c-24.2 0-44 19.8-44 44zM920 576h-24c-8.8 0-16-7.2-16-16v-224c0-8.8 7.2-16 16-16h24c22 0 40 18 40 40v176c0 22-18 40-40 40zM268 236v424c0 24.2-19.8 44-44 44v0c-24.2 0-44-19.8-44-44v-424c0-24.2 19.8-44 44-44v0c24.2 0 44 19.8 44 44zM128 576h-24c-22 0-40-18-40-40v-176c0-22 18-40 40-40h24c8.8 0 16 7.2 16 16v224c0 8.8-7.2 16-16 16z" />
<glyph unicode="&#xe97d;" glyph-name="flag" d="M813.4 798.4c-6.2-1-12.8-2-19.8-2.8-26.4-3.4-85.6-10.4-121.2-10.4-55.4 0-105.6 13.6-156.4 24.4-51.6 11-104.8 22.4-161.2 22.4-112.4 0-150.6-24.2-154.6-26.8l-8.2-5.8v-706.6c0-14.4 10.4-26.8 24.6-28.6 17-2 31.4 11.2 31.4 27.8v308.8c0 7.6 5.4 14.2 12.8 15.8 21 4.2 51.6 7.8 94 7.8 52.4 0 101.4-20 153.2-31 52.8-11.2 97.2-23 166.8-23s143.6 13.2 143.6 13.2c7.8 1.2 13.8 7.8 13.8 15.8v383.2c-0.2 9.8-9 17.4-18.8 15.8z" />
<glyph unicode="&#xe97e;" glyph-name="flame" d="M440.2 864c58-269.2-218.2-263.8-216.2-534.8 1.6-222 236.8-297.2 289-297.2s269.6 47.2 286.2 297.2c14.2 212.8-163.4 416-359 534.8zM588.8 154.6c-20.4-77.8-132-78-152.8-0.2-3 11.2-4.8 23-4.8 35 0 82 81.2 176.6 81.2 176.6s80.8-94.6 80.8-176.6c0.2-12-1.4-23.6-4.4-34.8z" />
<glyph unicode="&#xe97f;" glyph-name="flash-off" d="M764.2 74.6l-455.2 775.4c-8 13.4-25.4 18-39 10.2s-18.2-25.2-10.2-38.6l455.2-775.6c5.2-9 14.8-14 24.6-14 4.8 0 9.8 1.2 14.4 3.8 13.4 8 18 25.2 10.2 38.8zM649.2 333.4l115.8 151.6c7.6 11.2 0.4 26.8-12.6 26.8h-208l104.8-178.4zM640.8 885.8c1.8 9-9.2 14.2-14.4 6.8l-172.4-226.4 84.8-144.6 102 364.2zM374.8 562.6l-115.8-151.6c-7.6-11.2-0.4-26.8 12.6-26.8h207.8l-104.6 178.4zM383.2 10.2c-1.8-9 9.2-14.2 14.4-6.8l172.4 226.4-84.8 144.6-102-364.2z" />
<glyph unicode="&#xe980;" glyph-name="flash" d="M752.4 512h-216.4l104.8 373.8c1.8 9-9.2 14.2-14.4 6.8l-367.4-481.8c-7.6-11.2-0.4-26.8 12.6-26.8h216.4l-104.8-373.8c-1.8-9 9.2-14.2 14.4-6.8l367.4 481.6c7.4 11.4 0.4 27-12.6 27z" />
<glyph unicode="&#xe981;" glyph-name="flashlight" d="M634 896h-244c-35.2 0-48-28.8-48-64h340c0 35.2-12.8 64-48 64zM392.2 665c15.2-17.6 23.8-40 23.8-63.4v-531.8c0-43.8 35.8-69.8 79.8-69.8h32.6c43.8 0 79.8 25.8 79.8 69.8v531.8c0 23.4 8.6 45.6 23.8 63.4 30.8 35.8 50 69 50 135h-340c0-70 19.2-99.2 50.2-135zM456 483.4c0 31.2 25.2 56.6 56 56.6s56-25.4 56-56.6v-70.8c0-31.2-25.2-56.6-56-56.6s-56 25.4-56 56.6v70.8zM552 414c0-22.091-17.909-40-40-40s-40 17.909-40 40c0 22.091 17.909 40 40 40s40-17.909 40-40z" />
<glyph unicode="&#xe982;" glyph-name="flask" d="M874.8 251.2l-233.4 389c-0.8 1.2-1.2 2.6-1.2 4.2v155.6c0 4.4 3.6 8 8 8 13.2 0 24 10.8 24 24v8c0 13.2-10.8 24-24 24h-272.6c-13.2 0-24-10.8-24-24v-8c0-13.2 10.8-24 24-24 4.4 0 8-3.6 8-8v-155.8c0-1.4-0.4-2.8-1.2-4l-231-389c-16.8-31.6-25-62.8-24.2-91.2 2.2-73 57.6-128 130.4-128h513.2c72.8 0 124.6 55.2 126.4 128 0.4 28.4-5.4 59.4-22.4 91.2zM323.6 384c-12.4 0-20.2 13.6-13.8 24.2l121 203.4c5.8 9.8 9 21.2 9 32.6v155.8c0 2.8-0.2 5.4-0.4 8h145.4c-0.4-2.6-0.4-5.2-0.4-8v-155.8c0-11.6 3.2-23 9.2-32.8l120.8-203.2c6.4-10.6-1.4-24.2-13.8-24.2h-377z" />
</font>
</defs>
</svg>
