<?xml version="1.0" standalone="no"?>
<!DOCTYPE svg PUBLIC "-//W3C//DTD SVG 1.1//EN" "http://www.w3.org/Graphics/SVG/1.1/DTD/svg11.dtd" >
<svg xmlns="http://www.w3.org/2000/svg">
<metadata>Generated by IcoMoon</metadata>
<defs>
<font id="md" horiz-adv-x="1024">
<font-face units-per-em="1024" ascent="960" descent="-64" />
<missing-glyph horiz-adv-x="1024" />
<glyph unicode="&#x20;" horiz-adv-x="512" d="" />
<glyph unicode="&#xe900;" glyph-name="add-circle-outline" d="M726 406h-172v-172h-84v172h-172v84h172v172h84v-172h172v-84zM512 780c88.6 0 172-34.6 234.8-97.2 62.6-62.8 97.2-146.2 97.2-234.8s-34.6-172-97.2-234.8c-62.8-62.6-146.2-97.2-234.8-97.2s-172 34.6-234.8 97.2c-62.6 62.8-97.2 146.2-97.2 234.8s34.6 172 97.2 234.8c62.8 62.6 146.2 97.2 234.8 97.2zM512 864c-229.8 0-416-186.2-416-416s186.2-416 416-416c229.8 0 416 186.2 416 416s-186.2 416-416 416v0z" />
<glyph unicode="&#xe901;" glyph-name="add-circle" d="M512 864c-229.75 0-416-186.25-416-416s186.25-416 416-416 416 186.25 416 416-186.25 416-416 416zM726 406h-172v-172h-84v172h-172v84h172v172h84v-172h172v-84z" />
<glyph unicode="&#xe902;" glyph-name="add" d="M832 405.334h-277.334v-277.334h-85.332v277.334h-277.334v85.332h277.334v277.334h85.332v-277.334h277.334v-85.332z" />
<glyph unicode="&#xe903;" glyph-name="airplane" d="M896 288v80l-320 208v225.6c0 35.4-29.6 62.4-64 62.4s-64-27-64-62.4v-225.6l-320-208v-80l320 96v-227.2l-96-62.4v-62.4l160 32 160-32v62.4l-96 62.4v227.2l320-96z" />
<glyph unicode="&#xe904;" glyph-name="alarm" d="M940 710.326l-196.886 163.56-55.628-65.862 196.884-163.538 55.63 65.84zM334.384 810.162l-55.652 65.838-194.732-165.674 55.628-65.838 194.756 165.674zM533.402 614.744h-64.202v-254.892l203.298-121.078 32.102 53.106-171.2 99.834v223.030zM512 784.67c-214 0-385.202-172.042-385.202-382.332 0-210.298 171.202-382.338 385.202-382.338 211.872 0 385.202 172.040 385.202 382.338 0 210.288-173.33 382.332-385.202 382.332zM512 104.96c-164.786 0-299.6 133.812-299.6 297.376 0 163.554 134.814 297.368 299.6 297.368 164.788 0 299.6-133.812 299.6-297.368 0-165.678-134.812-297.376-299.6-297.376z" />
<glyph unicode="&#xe905;" glyph-name="albums" d="M309.4 32h533.4c47 0 85.4 38.4 85.4 85.4v533.2c0 47-38.4 85.4-85.4 85.4h-533.4c-47 0-85.4-38.4-85.4-85.4v-533.4c0-46.8 38.4-85.2 85.4-85.2zM181.4 864h533.4c47 0 85.4-38.4 85.4-85.4v-10.6h-522.8c-47 0-85.4-38.4-85.4-85.4v-522.6h-10.6c-47 0-85.4 38.4-85.4 85.4v533.2c0 47 38.4 85.4 85.4 85.4z" />
<glyph unicode="&#xe906;" glyph-name="alert" d="M512 864c-228.8 0-416-187.202-416-416s187.2-416 416-416c228.8 0 416 187.202 416 416s-187.2 416-416 416zM560 240h-96v80h96v-80zM560 416h-96v256h96v-256z" />
<glyph unicode="&#xe907;" glyph-name="american-football" d="M64 448c28.2-70 72.4-132 128-181.2v362.4c-55.6-49.2-99.8-111.2-128-181.2zM960 448c-28.2 70-72.4 132-128 181.2v-362.4c55.6 49.2 99.8 111.2 128 181.2zM512 750c-94.2 0-182-26.8-256-73v-457.8c74-46.2 161.8-73 256-73s182 26.8 256 73v457.8c-74 46.2-161.8 73-256 73zM704 480v-128h-64v64h-96v-64h-64v64h-96v-64h-64v192h64v-64h96v64h64v-64h96v64h64v-64z" />
<glyph unicode="&#xe908;" glyph-name="analytics" d="M758.8 603.4l-174.4-266.8c13.6-16.6 21.6-37.6 21.6-60.6 0-53-43-96-96-96s-96 43-96 96c0 6 0.6 12 1.6 17.8l-115.2 67c-17.2-16.6-40.6-26.8-66.6-26.8-17.2 0-33.2 4.6-47.2 12.4l-122.6-114.8v-114.4c0-47 38.4-85.4 85.4-85.4h725.4c47 0 85.4 38.4 85.4 85.4v425.2l-117.2 77.8c-16.2-12.6-36.6-20.2-58.8-20.2-8.8 0-17.4 1.2-25.4 3.4zM234 526c53 0 96-43 96-96 0-4.2-0.4-8.4-0.8-12.4l120.2-67.2c16.6 13.6 37.6 21.6 60.8 21.6 7.2 0 14.2-0.8 20.8-2.2l174.8 270.8c-11.2 15.6-17.8 34.8-17.8 55.6 0 53 43 96 96 96s96-43 96-96c0-7.8-1-15.4-2.6-22.6l82.6-55.2v160.2c0 47-38.4 85.4-85.4 85.4h-725.2c-47 0-85.4-38.4-85.4-85.4v-458.6l80 76.6c-3.8 10.4-6 21.6-6 33.4 0 53 43 96 96 96z" />
<glyph unicode="&#xe909;" glyph-name="aperture" d="M512 896c-247.424 0-448-200.576-448-448s200.576-448 448-448 448 200.576 448 448-200.576 448-448 448zM783.53 176.47c-72.53-72.526-168.96-112.47-271.53-112.47s-199 39.944-271.53 112.47c-72.526 72.53-112.47 168.96-112.47 271.53s39.944 199 112.47 271.53c72.53 72.526 168.96 112.47 271.53 112.47s199-39.944 271.53-112.47c72.526-72.53 112.47-168.96 112.47-271.53s-39.944-199-112.47-271.53zM400.086 747.866c-81.262-30.342-146.868-92.764-181.434-171.866h293.348l-111.914 171.866zM825.594 384c4.198 20.68 6.406 42.082 6.406 64 0 73.248-24.628 140.734-66.032 194.668l-143.968-258.668h203.594zM719.946 691.21c-55.932 47.868-128.558 76.79-207.946 76.79-15.932 0-31.588-1.182-46.896-3.43l156.6-252.57 98.242 179.21zM198.408 512c-4.2-20.68-6.408-42.082-6.408-64 0-73.278 24.648-140.788 66.082-194.732l143.918 258.732h-203.592zM623.918 148.136c81.262 30.342 146.866 92.764 181.43 171.864h-293.348l111.918-171.864zM304.092 204.758c55.926-47.848 128.536-76.758 207.908-76.758 15.938 0 31.598 1.184 46.912 3.432l-156.584 252.568-98.236-179.242z" />
<glyph unicode="&#xe90a;" glyph-name="apps" d="M192 608h160v160h-160v-160zM432 128h160v160h-160v-160zM192 128h160v160h-160v-160zM192 368h160v160h-160v-160zM432 368h160v160h-160v-160zM672 768v-160h160v160h-160zM432 608h160v160h-160v-160zM672 368h160v160h-160v-160zM672 128h160v160h-160v-160z" />
<glyph unicode="&#xe90b;" glyph-name="appstore" d="M928 656h-208c0 114-93.124 207.718-208 207.718s-208-93.718-208-207.718h-208c37.376-432 26-624 26-624h779.998c-0.002 0-11.376 196 26.002 624zM512 811.79c86.016 0 155.998-69.79 155.998-155.79h-311.998c0 86 69.982 155.79 156 155.79zM408 164.72v337.546l285.998-168.774-285.998-168.772z" />
<glyph unicode="&#xe90c;" glyph-name="archive" d="M907.188 759.998l-64.706 78.598c-11.544 16.15-32.316 25.404-53.154 25.404h-554.658c-20.832 0-41.602-9.254-53.152-25.404l-64.702-78.598c-13.88-13.844-20.816-34.668-20.816-57.77v-577.78c0-50.848 41.6-92.448 92.45-92.448h647.106c50.848 0 92.444 41.6 92.444 92.45v577.78c0 23.1-6.926 43.924-20.812 57.768zM512 193.782l-254.22 254.218h161.78v92.448h184.886v-92.448h161.78l-254.226-254.218zM193.068 771.558l36.972 46.222h554.662l43.93-46.222h-635.564z" />
<glyph unicode="&#xe90d;" glyph-name="arrow-back" d="M854 490.75h-519.408l239.404 239.404-61.996 59.846-342-342 342-342 59.844 59.848-237.252 239.402h519.408v85.5z" />
<glyph unicode="&#xe90e;" glyph-name="arrow-down" d="M554.75 790v-519.408l239.404 239.404 59.846-61.996-342-342-342 342 59.848 59.844 239.402-237.252v519.408h85.5z" />
<glyph unicode="&#xe90f;" glyph-name="arrow-dropdown-circle" d="M512 864c-229.75 0-416-186.25-416-416s186.25-416 416-416 416 186.25 416 416-186.25 416-416 416zM512 320l-192 192h384l-192-192z" />
<glyph unicode="&#xe910;" glyph-name="arrow-dropdown" d="M256 576l256-256 256 256z" />
<glyph unicode="&#xe911;" glyph-name="arrow-dropleft-circle" d="M928 448c0 229.75-186.25 416-416 416s-416-186.25-416-416 186.25-416 416-416 416 186.25 416 416zM384 448l192 192v-384l-192 192z" />
<glyph unicode="&#xe912;" glyph-name="arrow-dropleft" d="M640 704l-256-256 256-256z" />
<glyph unicode="&#xe913;" glyph-name="arrow-dropright-circle" d="M512 32c229.75 0 416 186.25 416 416s-186.25 416-416 416-416-186.25-416-416 186.25-416 416-416zM448 256v384l192-192-192-192z" />
<glyph unicode="&#xe914;" glyph-name="arrow-dropright" d="M384 704l256-256-256-256z" />
<glyph unicode="&#xe915;" glyph-name="arrow-dropup-circle" d="M928 448c0 229.75-186.25 416-416 416s-416-186.25-416-416 186.25-416 416-416 416 186.25 416 416zM704 384h-384l192 192 192-192z" />
<glyph unicode="&#xe916;" glyph-name="arrow-dropup" d="M256 320l256 256 256-256z" />
<glyph unicode="&#xe917;" glyph-name="arrow-forward" d="M170 405.25h519.408l-239.404-239.404 61.996-59.846 342 342-342 342-59.844-59.848 237.252-239.402h-519.408v-85.5z" />
<glyph unicode="&#xe918;" glyph-name="arrow-round-back" d="M802.8 512h-428l166 158.8c23.8 25 23.8 65.4 0 90.4s-62.4 25-86.4 0l-276.4-268c-12-11.6-18-27.4-18-44.8v-0.8c0-17.4 6-33.2 18-44.8l276.2-268c24-25 62.6-25 86.4 0s23.8 65.4 0 90.4l-166 158.8h428c33.8 0 61.2 28.6 61.2 64 0.2 36-27.2 64-61 64z" />
<glyph unicode="&#xe919;" glyph-name="arrow-round-down" d="M198.8 390.2l268-276.2c11.6-12 27.4-18 44.8-18h0.8c17.4 0 33.2 6 44.8 18l268 276.2c25 24 25 62.6 0 86.4s-65.4 23.8-90.4 0l-158.8-166v428c0 33.8-28.6 61.2-64 61.2-36 0-64-27.4-64-61.2v-428l-158.8 166c-25 23.8-65.4 23.8-90.4 0s-25-62.4 0-86.4z" />
<glyph unicode="&#xe91a;" glyph-name="arrow-round-forward" d="M569.8 134.8l276.2 268c12 11.6 18 27.4 18 44.8v0.8c0 17.4-6 33.2-18 44.8l-276.2 268c-24 25-62.6 25-86.4 0s-23.8-65.4 0-90.4l166-158.8h-428c-34 0-61.4-28.6-61.4-64 0-36 27.4-64 61.2-64h428l-166-158.8c-23.8-25-23.8-65.4 0-90.4 24-25 62.6-25 86.6 0z" />
<glyph unicode="&#xe91b;" glyph-name="arrow-round-up" d="M825.2 505.8l-268 276.2c-11.6 12-27.4 18-44.8 18h-0.8c-17.4 0-33.2-6-44.8-18l-268-276.2c-25-24-25-62.6 0-86.4s65.4-23.8 90.4 0l158.8 166v-428c0-33.8 28.6-61.2 64-61.2 36 0 64 27.4 64 61.2v428l158.8-166c25-23.8 65.4-23.8 90.4 0s25 62.4 0 86.4z" />
<glyph unicode="&#xe91c;" glyph-name="arrow-up" d="M554.75 106v519.408l239.404-239.404 59.846 61.996-342 342-342-342 59.848-59.844 239.402 237.252v-519.408h85.5z" />
<glyph unicode="&#xe91d;" glyph-name="at" d="M531.2 535.4c-21 0-37-8.8-48-26.4s-18.2-44-21.6-79.2c-1.8-23.4 0-41 5.4-53s14.2-18 26.2-18c11 0 20.6 3 29.2 8.8s16.2 16.6 22.6 32.4l12.2 132c-4.4 1-8.8 1.8-13 2.4-4.6 0.8-8.8 1-13 1zM512 864c-229.8 0-416-186.2-416-416s186.2-416 416-416 416 186.2 416 416-186.2 416-416 416zM767.6 460.2c-1.8-42.8-15.2-79.8-40-111.2-24.8-31.2-62-46.8-111.2-46.8-16.4 0-30.6 4.4-42.4 13.2-12 8.8-20.4 21.4-25.2 37.6-8.2-16.6-18.8-29-31.4-37.2s-27.4-12.4-44.4-12.4c-30.2 0-53.2 11.6-69.2 34.6s-21.8 53.6-17.6 91.8c5.2 48.8 20 88 44.4 117.4s54 44 88.8 44c24.4 0 44.2-2.6 59-7.6s31.2-11.4 49-22l-1 0.2h1.6l-15.4-166.8c-1-17 0.2-29.2 3.4-35.6 3.4-6.4 7.8-9.8 13.4-9.8 22.6 0 40.8 10.2 54.4 31.2s21.2 47.2 22.8 79.2c3.2 66-10.2 117.4-40.4 154.2s-76.6 55.4-139.4 55.4c-61 0-109.6-19.8-145.6-59.6s-55.4-93.8-58.6-162.4c-3.4-66.8 11.2-119.6 43.8-158.2 32.6-38.8 79.4-58.2 140.6-58.2 17 0 34.6 1.8 53 5.4 18.2 3.6 34.2 8.2 47.4 13.6l11.6-48.4c-13.6-8.2-30.8-14.6-51.8-19.2s-41.4-6.8-61.4-6.8c-81.6 0-144.6 24.2-188.6 72.8-44 48.4-64.4 114.8-61 199.2 3.6 83.6 29.8 149.8 78.2 198.8 48.6 49 113 73.4 193.4 73.4 79 0 139.6-23.2 181.4-69.4 42.4-46.4 61.6-109.8 58.4-190.4z" />
<glyph unicode="&#xe91e;" glyph-name="attach" d="M682.668 704v-469.332c0-93.876-76.792-170.668-170.668-170.668-93.874 0-170.666 76.792-170.666 170.668v490.664c0 59.73 46.936 106.668 106.666 106.668 59.728 0 106.666-46.938 106.666-106.668v-490.666c0-23.458-19.21-42.666-42.668-42.666s-42.666 19.208-42.666 42.666v405.334h-64v-405.334c0.002-59.728 46.938-106.666 106.668-106.666s106.668 46.938 106.668 106.666v490.666c0 93.866-76.792 170.668-170.668 170.668s-170.668-76.802-170.668-170.668v-490.664c0.002-130.126 104.544-234.668 234.668-234.668s234.668 104.542 234.668 234.668v469.332h-64z" />
<glyph unicode="&#xe91f;" glyph-name="backspace" d="M867 768h-532.6c-24.4 0-43.6-12.4-56.4-31.2l-192-288.8 192-288.4c12.8-18.8 32-31.6 56.4-31.6h532.4c39 0 71 32 71 71.2v497.6c0.2 39.2-31.8 71.2-70.8 71.2zM760.4 320.4l-50-50.2-127.4 127.6-127.4-127.6-50 50.2 127.4 127.6-127.4 127.6 50 50.2 127.4-127.6 127.4 127.6 50-50.2-127.4-127.6 127.4-127.6z" />
<glyph unicode="&#xe920;" glyph-name="barcode" d="M176 704h96v-512h-96v512zM464 704h96v-512h-96v512zM320 672h96v-448h-96v448zM608 672h96v-448h-96v448zM752 704h96v-512h-96v512zM208 752v96h-176v-800h176v96h-80v608zM816 848v-96h80v-608h-80v-96h176v800z" />
<glyph unicode="&#xe921;" glyph-name="baseball" d="M731.8 154.8l-45.8-27-32 56 40.4 23.8c-10.4 17-19.6 34.8-27.8 53.4-2.8 6.2-5.4 12.6-7.8 19l-50.2-11.6-14.2 63.2 45.2 10.4c-5.6 24.2-9.4 48-11 74h-48.6v64h48.6c1.6 24 5.4 49.6 11 73.6l-45.2 10.4 14.2 63.2 50.2-11.6c2.6 6.4 5.2 12.8 8 19.2 8.2 18.4 17.4 36.2 27.6 53.2l-40.4 23.8 32 56 45.6-27c10.4 12.8 21.6 25 33.4 36.6-70.2 54.4-158 86.6-253 86.6s-182.8-32.2-253-86.4c11.8-11.6 23-24 33.4-36.6l45.6 26.8 32-56-40.4-23.8c10.2-17 19.6-34.8 27.6-53.2 2.8-6.4 5.4-12.8 8-19.2l50.2 11.6 14.2-63.2-45.2-10.4c5.6-24.2 9.2-49.6 11-73.6h48.6v-64h-48.6c-1.6-26-5.4-49.8-11-74l45.2-10.4-14.2-63.2-50.2 11.6c-2.4-6.4-5-12.6-7.8-19-8.2-18.4-17.4-36.2-27.8-53.4l40.4-23.8-32-56-45.8 27c-10.4-12.6-21.4-24.8-33.2-36.4 70.2-54.2 158-86.4 253-86.4s182.8 32.2 253 86.4c-11.8 11.6-22.8 23.8-33.2 36.4zM787.6 708l36.2-21.4-32-56-42.4 25c-10-16.6-19-33.8-26.6-51.8-0.4-0.8-0.8-1.8-1-2.6l42-9.8-14.2-63.2-47.8 11c-4.6-19.4-7.6-39.2-9.2-59.2h47.4v-64h-47.2c1.6-20 4.6-40 9.2-59.6l47.8 11 14.2-63.2-42-9.8c0.4-0.8 0.6-1.6 1-2.4 7.6-18 16.6-35.4 26.6-52l42.2 24.8 32-56-36-21.2c6.6-7.8 13.6-15.4 21-22.6 1.2-1.2 2.6-2.6 4-4 71.2 75 115.2 176.2 115.2 287s-44 212-115.4 286.8c-1.4-1.4-2.8-2.6-4-4-7.4-7.4-14.4-15-21-22.8zM236.4 187.8l-36 21.2 32 56 42.2-24.8c10.2 16.6 19 34 26.6 52 0.4 0.8 0.6 1.6 1 2.4l-42 9.8 14.2 63.2 47.8-11c4.6 19.6 7.6 39.6 9.2 59.6h-47.4v64h47.2c-1.6 20-4.6 39.8-9.2 59.2l-47.8-11-14.2 63.2 42 9.8c-0.4 0.8-0.6 1.8-1 2.6-7.6 18-16.4 35.4-26.6 51.8l-42.4-25-32 56 36.2 21.4c-6.8 7.8-13.8 15.4-21.2 22.8-1.2 1.2-2.6 2.6-4 4-71-75-115-176.2-115-287s44-212 115.4-286.8c1.4 1.4 2.8 2.6 4 4 7.2 7.2 14.2 14.8 21 22.6z" />
<glyph unicode="&#xe922;" glyph-name="basket" d="M724.2 549.6l-178.4 265.4c-7.8 11.4-20.8 17-33.8 17s-26-5.6-33.8-17.4l-178.4-265h-195c-22.4 0-40.8-18.2-40.8-40.4 0-3.6 0.4-7.2 1.6-11l103.4-375c9.4-34 40.8-59 78.2-59h529.4c37.4 0 68.8 25 78.6 59l103.4 375 1.2 11c0 22.2-18.4 40.4-40.8 40.4h-194.8zM389.8 549.6l122.2 178 122.2-178h-244.4zM512 225.8c-44.8 0-81.4 36.4-81.4 81s36.6 81 81.4 81 81.4-36.4 81.4-81c0-44.6-36.6-81-81.4-81z" />
<glyph unicode="&#xe923;" glyph-name="basketball" d="M383.2 416c-7.6-110-52.8-214.2-129-295.4 63.2-50 141.8-82 225.8-88.6v384h-96.8zM544 32c84 6.6 163 38.8 226.2 89-76 81.2-121 185-128.6 295h-97.6v-384zM480 864c-84-6.4-161-38-223.8-87.2 76-81.8 120.6-186.8 127.4-296.8h96.4v384zM641.4 480c6.8 110 51.2 214.8 127 296.6-63 49.2-140.4 81-224.4 87.4v-384h97.4zM817.2 731.6c-34.4-37-61.4-79.4-80.2-125.8-16.4-40.4-26.2-81.8-29.2-125.8h220.2c-7.4 96-48.2 184.4-110.8 251.6zM737 293.8c19.2-47.4 46.6-90.2 81.8-127.6 61.8 67 101.8 153.8 109.2 249.8h-219.8c3.2-42 13-83 28.8-122.2zM287.8 605.8c-19 46.6-46 89-80.6 126.2-62.8-67.2-103.8-156-111.2-252h221c-3.2 44-13 85.6-29.2 125.8zM205.4 165.8c35.4 37.6 63 80.6 82.2 128 16 39.2 25.6 80.2 29 122.2h-220.6c7.4-96 47.6-183.2 109.4-250.2z" />
<glyph unicode="&#xe924;" glyph-name="battery-charging" d="M676.4 806.4h-74.8v89.6h-179.2v-89.6h-74.8c-32.8 0-59.6-26.8-59.6-59.6v-686.8c0-33.2 26.8-60 59.6-60h328.4c33.2 0 60 26.8 60 59.6v687.2c0 32.8-26.8 59.6-59.6 59.6zM467.2 89.6v246.4h-89.6l179.2 336v-246.4h89.6l-179.2-336z" />
<glyph unicode="&#xe925;" glyph-name="battery-dead" d="M676.4 806.4h-74.8v89.6h-179.2v-89.6h-74.8c-32.8 0-59.6-26.8-59.6-59.6v-686.8c0-33.2 26.8-60 59.6-60h328.4c33.2 0 60 26.8 60 59.6v687.2c0 32.8-26.8 59.6-59.6 59.6zM640 96h-256v614.4h256v-614.4z" />
<glyph unicode="&#xe926;" glyph-name="battery-full" d="M676.4 806.4h-74.8v89.6h-179.2v-89.6h-74.8c-32.8 0-59.6-26.8-59.6-59.6v-686.8c0-33.2 26.8-60 59.6-60h328.4c33.2 0 60 26.8 60 59.6v687.2c0 32.8-26.8 59.6-59.6 59.6z" />
<glyph unicode="&#xe927;" glyph-name="beaker" d="M896.2 890.2c0 2.4-0.8 5.8-5.8 5.8h-633.4c-108.6 0-128.8-54.8-128.8-79.6 60.6-8.4 63.8-9.4 63.8-73.4 0-32 0-614 0-614 0-70.6 57.8-129 128.6-129h415.4c70.6 0 128 58.4 128 129 0 0 0 7.4 0 20.4v664c4.4 35 24 63.6 26.2 67 2.4 3.8 6 7.6 6 9.8zM708.4 96h-355.8c-31.8 0-59.4 23.8-64.6 54.2v649.8h480v-639.4c0-36-24.8-64.6-59.6-64.6zM364 640v-452c0-8.8 7.2-16 16-16h296c8.8 0 16 7.2 16 16v452h-328z" />
<glyph unicode="&#xe928;" glyph-name="bed" d="M337.4 431c58 0 104.8 45.8 104.8 102.4s-46.8 102.4-104.8 102.4-104.8-45.8-104.8-102.4 47-102.4 104.8-102.4zM756.4 635.8h-279.4v-239h-279.2v307.2h-69.8v-512h69.8v102.4h628.4v-102.4h69.8v307.2c0 75.4-62.4 136.6-139.6 136.6z" />
<glyph unicode="&#xe929;" glyph-name="beer" d="M832 680h-32v12c17.8 18 32 45.8 32 76 0 70.6-57.4 128-128 128-32.6 0-62.2-12.2-84.8-32.2-24.8 20.2-56.4 32.2-90.8 32.2-31.6 0-60.8-10.2-84.6-27.4-19.8 17-45.8 27.4-74 27.4-34.2 0-64.8-15.2-85.6-39-23.4 24-56 39-92.2 39-70.6 0-128-57.4-128-128 0-32.4 12.2-62 32-84.6v-109.4c0-53 43-96 96-96v-349c0-70.6 57.6-129 128.4-129h351.6c70.6 0 128.2 58.4 128.2 129 0 0 0 7.4 0 20.4v66.6h32c100 0 128 65.4 128 136v192c-0.2 70.6-34.2 136-128.2 136zM704 576h-416v107.4c0.6 0.8 1.4 1.6 2 2.4 2.4 3 4.8 6 7 9.2 3-2.4 6-4.8 9.2-6.8 18.2-12.2 40-19.4 63.4-19.4 12.8 0 25.2 2.2 36.6 6 25.6-40.4 70.6-67.4 122-67.4 44 0 83.4 19.8 109.8 50.8 11.4 13.4 20.4 28.8 26.2 45.8h39.8v-128zM192 703.8v-150c-18 0-32 14.4-32 32v126.6c-16 9-26.8 24.2-30.6 42-1 4.2-1.4 8.8-1.4 13.4 0 35.2 28.8 64 64 64 23.6 0 46.6-15.4 60.2-30.8s53.4-15.4 67.8 0c13.6 14.6 28.6 30.8 49.6 30.8 12 0 23.2-4.4 31.8-11.6 3.8-3.2 7.2-7 9.8-11.2 2.2-3.6 4-8.4 6.2-11.6 5.4-6.8 13-11 22.4-11 8.8 0 16.6 3.8 22 10 1.2 1.4 2.4 3 3.4 4.6 4 5 8.4 9.6 13.4 13.6 13.6 10.8 31 17.2 49.6 17.2 21.2 0 40.4-8.2 54.8-21.8 3.4-3.2 13.4-9 26.4-10.2 9-0.8 12.2-0.6 16.4 0 20.6 2.6 28.8 9.4 32.8 13.2 11.6 11.6 27.6 18.8 45.2 18.8 35.2 0 64-28.8 64-64 0.4-6.2-0.6-12.4-2.4-18.2-5 11-16.2 18.4-29.2 18.4h-110c0 0-17.4 1.4-17.4-16.4s-5.8-34.2-15.6-47.4c-14.6-19.8-38.2-32.8-64.8-32.8-29.8 0-55.8 16.2-69.6 40.4-3.2 5.4-5.6 11.2-7.4 17.2-0.2 1.2-0.6 2.2-0.8 3.2-4 11.8-15 20.4-28.2 20.4-7.8 0-15-3-20.4-8 0 0 0 0-0.2-0.2-4.8-4.2-10.6-7.4-16.8-9.4-4.8-1.6-10-2.4-15.4-2.4-15 0-29.4 8-37.6 17.2-20 22.8-47.4 13.6-59.4 11s-24.4-23.4-24.4-23.4c-2.2-4.2-4.8-8-7.8-11.6-12-13.4-30.4-22-48.4-22zM864 352c0-35.4-12.6-48-48-48h-16v288h16c35.4 0 48-12.6 48-48v-192z" />
<glyph unicode="&#xe92a;" glyph-name="bicycle" d="M661.332 697.596c37.336 0 67.196 29.87 67.196 67.202s-29.86 67.202-67.196 67.202c-37.332 0-67.192-29.87-67.192-67.202s29.86-67.202 67.192-67.202zM773.332 437.332c-102.664 0-186.664-84-186.664-186.666s84-186.666 186.664-186.666c102.668 0 186.668 84 186.668 186.666s-84 186.666-186.668 186.666zM773.332 120c-72.804 0-130.664 57.86-130.664 130.666s57.86 130.666 130.664 130.666c72.808 0 130.668-57.86 130.668-130.666s-57.86-130.666-130.668-130.666zM611.194 512h156.806v64h-117.69l-69.24 120.268c-11.21 18.666-31.738 31.728-54.14 31.728-16.798 0-33.596-7.464-44.798-18.666l-143.464-138.13c-11.202-11.202-18.666-28-18.666-44.798 0-24.262 18.404-42.93 37.070-54.13l122.928-76.54v-171.732h64v224l-78.666 64 85.858 89.066 60.002-89.066zM250.666 437.332c-102.666 0-186.666-84-186.666-186.666s84-186.666 186.666-186.666c102.666 0 186.666 84 186.666 186.666s-83.998 186.666-186.666 186.666zM250.666 120c-72.798 0-130.666 57.86-130.666 130.666s57.868 130.666 130.666 130.666c72.798 0 130.666-57.86 130.666-130.666s-57.868-130.666-130.666-130.666z" />
<glyph unicode="&#xe92b;" glyph-name="bluetooth" d="M798 640.2l-257 255.8h-45v-340l-206.6 205.6-63.4-63.2 251.6-250.4-251.6-250.4 63.4-63.2 206.6 205.6v-340h45l257 255.8-193.6 192.2c0 0 193.6 192.2 193.6 192.2zM586 724.4l84.6-84.2-84.6-84.2v168.4zM670.6 255.8l-84.6-84.2v168.4c0 0 84.6-84.2 84.6-84.2z" />
<glyph unicode="&#xe92c;" glyph-name="boat" d="M168.51 134h2.126c68.246 0 127.954 38.042 170.61 84.988 42.65-46.946 102.36-85.524 170.608-85.524s127.958 38.668 170.61 85.612c42.654-46.944 102.36-85.076 170.606-85.076h2.124l102.506 277.56c4.252 10.658 2.126 23.282-2.14 33.952-4.272 10.666-14.474 16.974-25.134 21.246l-76.426 24.976v196.3c0 46.946-39.312 85.966-86.232 85.966h-127.958l-31.986 106h-191.938l-31.99-106h-127.958c-46.916 0-85.938-39.020-85.938-85.964v-196.3l-76.148-25.066c-10.66-4.272-21.164-10.668-25.436-21.334-4.27-10.67-6.316-20.98-2.062-33.774l102.156-277.562zM256 688h512v-168.522l-256 83.21-256-83.21v168.522zM682.462 143.986c-104.506-72.534-236.712-72.516-341.216 0.018 0 0-115.276-128.004-213.264-128.004h42.654c59.708 0 117.292 23.452 170.61 51.188 106.63-55.468 234.586-55.456 341.216 0.014 53.318-27.738 110.9-51.202 170.608-51.202h42.656c-95.302 0-213.264 127.986-213.264 127.986z" />
<glyph unicode="&#xe92d;" glyph-name="body" d="M512 864c44 0 80-36 80-80s-36-80-80-80-80 36-80 80 36 80 80 80zM896 575.8h-256v-543.8h-85.4v288h-85.4v-288h-85.2v543.8h-256v85.4h768v-85.4z" />
<glyph unicode="&#xe92e;" glyph-name="bonfire" d="M544.4 258.8c-1.6 16.4-16.4 29.2-34.6 29.2-16.6 0-30.4-10.8-33.8-25v0l-33.8-185c-1-4.6-1.6-9.2-1.6-14 0-35.4 31-64 69.4-64s69.4 28.6 69.4 64c0 5.8-0.8 11.4-2.4 16.8l-32.6 178zM620.2 250v0 0zM808.6 179.4c-3.8 2.8-7.2 5.8-11.2 7.8l-137.8 95c-12.6 7.6-26 7.4-35.8-1.8-9-8.2-10.2-20.8-3.6-30.8l106-131.6c2-3 4.6-5.6 7.2-8.4 17-18.2 54.4-19.2 75 0 20.8 19.6 20.6 54.4 0.2 69.8zM764.4 290v0 0zM900.8 315l-129 4.6c-8.4 1.2-16-4.2-17.4-12-1.4-7.2 3-14.2 10.2-17.6v0c0 0 0.2 0 0.2 0l125-35.6c18-3.8 38.2 4.6 38.2 23.2 0 23.8-6.6 35-27.2 37.4zM259 290v0 0zM259 290v0c7.2 3.2 11.4 10.4 10.2 17.6-1.4 8-9 13.2-17.4 12l-129-4.6c-20.8-2.4-26.8-13.6-26.8-37.2 0-18.6 19.8-27.2 37.6-23.2l125 35.6c0.2-0.2 0.2-0.2 0.4-0.2zM364.4 282.4l-137.8-94.8c-4-2.2-7.8-4.8-11.2-7.8-20.8-19.2-20.8-50.2 0-69.2 20.8-19.2 54.2-19.2 75 0 2.8 2.6 5.2 5.4 7.2 8.4l106 131.2c6.6 10 5.4 22.4-3.6 30.6-9.6 9-25.2 9.6-35.6 1.6zM512 896c0 0 60.4-70.8 60.4-128.8 0-55.6-36.4-100.6-91.8-100.6-55.8 0-97.8 45-97.8 100.6l0.8 13.8c-54.4-64.6-87-152.4-87-243.6 0-119.2 96.4-215.6 215.6-215.6s215.6 96.4 215.6 215.6c-0.2 145.2-71.8 315.2-215.8 358.6zM504.2 402.6c-48 0-86.8 37.8-86.8 84.6 0 43.6 28.2 74.4 75.8 84 47.6 9.8 97 32.6 124.6 69.6 10.6-34.8 15.8-71.4 15.8-108.8 0-71.4-58-129.4-129.4-129.4z" />
<glyph unicode="&#xe92f;" glyph-name="book" d="M852.4 799.2l-340.4-64-340.4 64c-43.6 6.8-75.6-33.8-75.6-75.2v-489c0-41.4 32-65.2 75.6-75.2l340.4-63.8 340.4 64c43.6 10 75.6 33.8 75.6 75.2v488.8c0 41.4-32 82-75.6 75.2zM852.4 235.2l-302.4-64v489l302.4 64v-489zM474 171.2l-302.4 64v488.8l302.4-64v-488.8z" />
<glyph unicode="&#xe930;" glyph-name="bookmark" d="M720 832h-416c-44.004 0-80-35.996-80-80v-688l288 128 288-128v688c0 44.004-35.996 80-80 80z" />
<glyph unicode="&#xe931;" glyph-name="bookmarks" d="M810.4 832h-42c30-11.4 45.6-41.2 45.6-85.4v-597.4c0-44.2-14-74.6-45.6-85.4h42c47.4 0 85.6 38.4 85.6 85.4v597.4c0 47-38.2 85.4-85.6 85.4zM691 831.6c-2.8 0.2-5.6 0.4-8.4 0.4h-469.2c-47 0-85.4-38.4-85.4-85.4v-597.4c0-47 38.4-85.4 85.4-85.4h469.4c2.8 0 5.6 0.2 8.4 0.4 43 4.2 77 40.8 77 85v597.4c-0.2 44.2-34.2 80.8-77.2 85zM416 448l-112 64-112-64v320h224v-320z" />
<glyph unicode="&#xe932;" glyph-name="bowtie" d="M552 352h-80c-30.8 0-56 25.2-56 56v80c0 30.8 25.2 56 56 56h80c30.8 0 56-25.2 56-56v-80c0-30.8-25.2-56-56-56zM352 400v96c0 36.4 17.4 68.8 44.4 89.2-12.4 54.8-204.4 182.8-268.4 182.8-35.2 0-64-28.8-64-64v-512c0-35.2 28.6-64 64-64 64 0 256 128 268.4 182.8-27 20.4-44.4 52.8-44.4 89.2zM896 768c-64 0-256-128-268.4-182.8 27-20.4 44.4-52.8 44.4-89.2v-96c0-36.4-17.4-68.8-44.4-89.2 12.4-54.8 204.4-182.8 268.4-182.8 35.4 0 64 28.8 64 64v512c0 35.2-28.8 64-64 64z" />
<glyph unicode="&#xe933;" glyph-name="briefcase" d="M704 672v79.2c0 44.8-36 80.8-80.8 80.8h-222.4c-44.8 0-80.8-36-80.8-80.8v-79.2h-224v-527.2c0-44.8 36-80.8 80.8-80.8h670.4c44.8 0 80.8 36 80.8 80.8v527.2h-224zM624 672h-224v80h224v-80z" />
<glyph unicode="&#xe934;" glyph-name="browsers" d="M848 832h-672c-53.2 0-96-43.2-96-96v-576c0-52.8 42.8-96 96-96h672c52.8 0 96 43.2 96 96v576c0 52.8-42.8 96-96 96zM848 160h-672v448h672v-448z" />
<glyph unicode="&#xe935;" glyph-name="brush" d="M299.8 355.6c-78.2 0-141.4-62-141.4-138.6 0-60.6-54.6-92.4-94.4-92.4 43.4-56.6 117.4-92.6 188.6-92.6 104.2 0 188.6 82.8 188.6 184.8 0 76.8-63.2 138.8-141.4 138.8zM946.2 788.6l-63.2 62c-18.4 18-48 18-66.4 0l-422.6-414.2 129.6-127 422.4 414c18.6 18 18.6 47.2 0.2 65.2z" />
<glyph unicode="&#xe936;" glyph-name="bug" d="M896 640h-134.8c-21.6 37.4-51.4 69.6-87.4 94l78.2 78.4-67.6 67.6-104.2-104.2c-22.2 5.4-44.6 8.2-68.2 8.2s-46-2.8-67.6-8.2l-104.8 104.2-67.6-67.6 77.8-78.2c-35.6-24.4-65.2-56.6-86.8-94h-135v-96h100.4c-2.4-15.8-4.4-31.6-4.4-48v-48h-96v-96h96v-48c0-16.4 2-32.2 4.4-48h-100.4v-96h134.8c50-86 142.6-144 249.2-144s199.2 58 249.2 144h134.8v96h-100.4c2.4 15.8 4.4 31.6 4.4 48v48h96v96h-96v48c0 16.4-2 32.2-4.4 48h100.4v95.8z" />
<glyph unicode="&#xe937;" glyph-name="build" d="M948.2 163.6l-370 372.4c36.6 94 16.2 204.6-61 282.2-81.4 81.8-203.4 98.2-301 53.2l174.8-176-122-122.8-179 176c-48.6-98-28.2-220.8 53-302.6 77.2-77.8 187-98.2 280.6-61.4l370-372.4c16.2-16.4 40.6-16.4 57 0l93.6 94c20.4 16.6 20.4 45.2 4 57.4z" />
<glyph unicode="&#xe938;" glyph-name="bulb" d="M384 104c0-21.2 17.2-40 40-40h176c22.8 0 40 18.8 40 40v36h-256v-36zM512 832c-159.4 0-288-119.8-288-268 0-91.4 48.2-172.4 122.8-221.2v-86.8c0-21.2 18.6-38.4 41.2-38.4h247.8c22.8 0 41.2 17.2 41.2 38.4v86.8c74.8 48.8 123 129.8 123 221.2 0 148.2-128.6 268-288 268z" />
<glyph unicode="&#xe939;" glyph-name="bus" d="M160 256c0-38.396 27.728-49.062 53.334-72.542v-76.792c0-23.458 19.198-42.668 42.666-42.668h42.666c23.468 0 42.668 19.208 42.668 42.668v42.666h341.332v-42.666c0-23.458 19.208-42.668 42.668-42.668h42.666c23.458 0 42.666 19.208 42.666 42.668v76.792c25.606 23.48 53.334 36.27 53.334 72.542v407.332c0 149.334-164.272 168.668-352 168.668s-352-19.334-352-168.668v-407.332zM320 224.022c-36.272 0-64 27.728-64 64 0 36.27 27.728 64 64 64s64-27.73 64-64c0-36.272-27.728-64-64-64zM704 224.022c-36.272 0-64 27.728-64 64 0 36.27 27.728 64 64 64s64-27.73 64-64c0-36.272-27.728-64-64-64zM768 469.334h-512v213.332h512v-213.332z" />
<glyph unicode="&#xe93a;" glyph-name="business" d="M522 661.4v170.6h-426v-768h832v597.4h-406zM266.4 149.4h-85.2v85.4h85.2v-85.4zM266.4 320h-85.2v85.4h85.2v-85.4zM266.4 490.6h-85.2v85.4h85.2v-85.4zM266.4 661.4h-85.2v85.4h85.2v-85.4zM436.8 149.4h-85.2v85.4h85.2v-85.4zM436.8 320h-85.2v85.4h85.2v-85.4zM436.8 490.6h-85.2v85.4h85.2v-85.4zM436.8 661.4h-85.2v85.4h85.2v-85.4zM842.8 149.4h-320.8v85.4h85.2v85.2h-85.2v85.4h85.2v85.4h-85.2v85.2h320.8v-426.6zM767.6 490.6h-85.2v-85.4h85.2v85.4zM767.6 320h-85.2v-85.4h85.2v85.4z" />
<glyph unicode="&#xe93b;" glyph-name="cafe" d="M96 160h736v-96h-736v96zM848 832h-688v-448c0-88 72-160 160-160h288c88 0 160 72 160 160v128h80c44 0 80 36 80 80v160c0 44-36 80-80 80zM848 608h-80v128h80v-128z" />
<glyph unicode="&#xe93c;" glyph-name="calculator" d="M736 864h-448c-53.2 0-96-43.2-96-96v-640c0-52.8 42.8-96 96-96h448c52.8 0 96 43.2 96 96v640c0 52.8-42.8 96-96 96zM400 128h-96v96h96v-96zM400 304h-96v96h96v-96zM400 480h-96v96h96v-96zM560 128h-96v96h96v-96zM560 304h-96v96h96v-96zM560 480h-96v96h96v-96zM720 128h-96v272h96v-272zM720 480h-96v96h96v-96zM720 672h-416v96h416v-96z" />
<glyph unicode="&#xe93d;" glyph-name="calendar" d="M736.010 416h-192v-192h192v192zM672.010 832v-64h-320v64h-96v-64h-48.020c-44.004 0-80-35.996-80-80v-544c0-44.004 35.996-80 80-80h608.020c44.004 0 80 35.996 80 80v544c0 44.004-35.996 80-80 80h-48v64h-96zM816.010 144h-608.020v424h608.020v-424z" />
<glyph unicode="&#xe93e;" glyph-name="call" d="M853.332 298.666c-53.332 0-104.542 8.542-151.458 23.458-14.938 4.272-32 2.146-42.664-10.666l-93.878-93.856c-121.604 61.856-219.728 160-281.604 281.606l93.878 93.854c10.664 10.666 14.924 27.728 10.664 42.666-17.074 49.062-25.604 100.272-25.604 153.606 0 23.458-19.198 42.666-42.666 42.666h-149.334c-23.468 0-42.666-19.208-42.666-42.666 0-401.062 324.272-725.334 725.332-725.334 23.46 0 42.668 19.208 42.668 42.666v149.334c0 23.458-19.208 42.666-42.668 42.666z" />
<glyph unicode="&#xe93f;" glyph-name="camera" d="M638 400c0-69.588-56.412-126-126-126s-126 56.412-126 126c0 69.588 56.412 126 126 126s126-56.412 126-126zM880 768h-176l-64 64h-256l-64-64h-176c-44.184 0-80-35.816-80-80v-544c0-44.184 35.816-80 80-80h736c44.184 0 80 35.816 80 80v544c0 44.184-35.816 80-80 80zM512 176c-123.71 0-224 100.29-224 224s100.29 224 224 224 224-100.29 224-224-100.29-224-224-224z" />
<glyph unicode="&#xe940;" glyph-name="car" d="M806.416 725.334c-8.542 25.604-32 42.666-59.75 42.666h-469.332c-27.75 0-51.208-17.062-59.75-42.666l-89.584-234.668v-320c0-23.458 19.208-42.666 42.666-42.666h42.668c23.458 0 42.666 19.208 42.666 42.666v21.334h512v-21.334c0-23.458 19.208-42.666 42.666-42.666h42.668c23.458 0 42.666 19.208 42.666 42.666v320l-89.584 234.668zM277.334 320c-36.25 0-64 27.73-64 64s27.75 64 64 64 64-27.732 64-64-27.75-64-64-64zM746.666 320c-36.25 0-64 27.73-64 64s27.75 64 64 64 64-27.732 64-64-27.75-64-64-64zM213.334 533.334l64 170.666h469.332l64-170.666h-597.332z" />
<glyph unicode="&#xe941;" glyph-name="card" d="M870.4 800h-716.8c-49.8 0-89.2-39.2-89.2-88l-0.4-528c0-48.8 39.8-88 89.6-88h716.8c49.8 0 89.6 39.2 89.6 88v528c0 48.8-39.8 88-89.6 88zM870.4 184h-716.8v264h716.8v-264zM870.4 624h-716.8v88h716.8v-88z" />
<glyph unicode="&#xe942;" glyph-name="cart" d="M339.2 204.8c-45.764 0-83.2-37.436-83.2-83.202 0-45.764 37.436-83.2 83.2-83.2s83.202 37.436 83.202 83.2c-0.002 45.768-37.44 83.202-83.202 83.202zM96 857.6v-83.2h83.2l149.766-303.364-62.616-101.908c-6.236-10.4-10.4-24.964-10.4-39.53 0-55.7 38.050-83.2 89.65-83.2h486.4v80h-476.214c-6.236 0-10.4 4.164-10.4 10.4 0 2.072 4.414 10.4 4.414 10.4l41.564 65.6h309.908c31.202 0 58.256 16.634 72.8 43.672l149.764 257.6c2.474 4.922 4.164 12.492 4.164 20.798 0 22.892-18.728 39.53-41.6 39.53h-615.672l-39.528 83.202h-135.2zM748.798 204.8c-45.764 0-83.2-37.436-83.2-83.202 0-45.764 37.436-83.2 83.2-83.2s83.202 37.438 83.202 83.202c0 45.766-37.438 83.2-83.202 83.2z" />
<glyph unicode="&#xe943;" glyph-name="cash" d="M64 768v-512h896v512h-896zM385 320h-160.8c0 53.2-43 96.2-96.2 96.2v159.8c70.6 0 128 57.4 128 128h129c-39.8-47-65-115.6-65-192s25.2-145 65-192zM896 416.2c-52 0-96-43-96-96.2h-161c39.8 47 65 115.6 65 192s-25.2 145-65 192h129c0-70.6 57.4-128 128-128v-159.8zM64 192h896v-64h-896v64z" />
<glyph unicode="&#xe944;" glyph-name="cellular" d="M128 64h768v768l-768-768z" />
<glyph unicode="&#xe945;" glyph-name="chatboxes" d="M783.106 832h-667.892c-8.952 0-19.214-7.49-19.214-16.318v-428.434c0-8.826 10.262-17.248 19.214-17.248h114.786v-177.788l180.256 177.788h372.85c8.954 0 14.894 8.422 14.894 17.248v428.434c0 8.828-5.942 16.318-14.894 16.318zM912.792 706h-64.792v-333.14c0-31.974-13.83-52.86-50.304-52.86h-361.504l-77.81-78h259.376l180.242-178v178h114.792c8.956 0 15.208 8.524 15.208 17.364v428.43c0 8.828-6.252 18.206-15.208 18.206z" />
<glyph unicode="&#xe946;" glyph-name="chatbubbles" d="M265.6 224c-40.4 0-89.6 49.2-89.6 89.6v326.4h-19.2c-33.4 0-60.8-27.4-60.8-60.8v-547.2l117 116h430.2c33.4 0 60.8 28.2 60.8 61.8v14.2h-438.4zM858.2 864h-558.4c-38.4 0-69.8-31.4-69.8-69.8v-452.2c0-38.4 31.4-70 69.8-70h476.4l151.8-106v628.2c0 38.4-31.4 69.8-69.8 69.8z" />
<glyph unicode="&#xe947;" glyph-name="checkbox-outline" d="M337.062 529.062l-59.728-59.728 192-192 426.666 426.666-59.728 59.728-366.938-364.79-132.272 130.124zM810.666 149.334h-597.332v597.332h426.666v85.334h-426.666c-46.938 0-85.334-38.396-85.334-85.334v-597.332c0-46.938 38.396-85.334 85.334-85.334h597.332c46.938 0 85.334 38.396 85.334 85.334v341.332h-85.334v-341.332z" />
<glyph unicode="&#xe948;" glyph-name="checkbox" d="M810.666 832h-597.332c-46.938 0-85.334-38.396-85.334-85.334v-597.332c0-46.938 38.396-85.334 85.334-85.334h597.332c46.938 0 85.334 38.396 85.334 85.334v597.332c0 46.938-38.396 85.334-85.334 85.334zM426.666 234.666l-213.332 213.334 59.728 59.728 153.604-153.604 324.272 324.272 59.728-59.73-384-384z" />
<glyph unicode="&#xe949;" glyph-name="checkmark-circle-outline" d="M341.436 527.036l-58.236-58.236 187.2-187.2 416 416-58.236 58.236-357.764-355.672-128.964 126.872zM844.8 448c0-183.036-149.766-332.8-332.8-332.8s-332.8 149.764-332.8 332.8 149.764 332.8 332.8 332.8c31.2 0 62.4-4.164 91.528-12.482l64.472 64.482c-47.836 20.8-99.836 31.2-156 31.2-228.8 0-416-187.2-416-416s187.2-416 416-416 416 187.2 416 416h-83.2z" />
<glyph unicode="&#xe94a;" glyph-name="checkmark-circle" d="M512 864c-228.8 0-416-187.2-416-416s187.2-416 416-416 416 187.2 416 416-187.2 416-416 416zM426.6 226.2l-213.2 213.2 59.8 59.8 153.6-153.6 324.2 324.2 59.8-59.8-384.2-383.8z" />
<glyph unicode="&#xe94b;" glyph-name="checkmark" d="M372.602 280.214l-180.602 180.864-64-61.014 244.602-244.064 523.398 522.988-64 61.012z" />
<glyph unicode="&#xe94c;" glyph-name="clipboard" d="M810.666 800h-174.7c-14.208 55.208-64.324 96-123.966 96s-109.758-40.792-123.966-96h-174.7c-46.938 0-85.334-38.396-85.334-85.334v-629.33c0-46.938 38.396-85.336 85.334-85.336h597.332c46.938 0 85.334 38.398 85.334 85.336v629.33c0 46.938-38.396 85.334-85.334 85.334zM512 800c23.458 0 42.666-19.198 42.666-42.666s-19.208-42.668-42.666-42.668-42.666 19.2-42.666 42.668 19.208 42.666 42.666 42.666zM816 80h-608v640h80v-144h448v144h80v-640z" />
<glyph unicode="&#xe94d;" glyph-name="clock" d="M806.2 742.2c-162.4 162.4-425.8 162.4-588.4 0s-162.4-425.8 0-588.4c162.4-162.4 425.8-162.4 588.4 0 162.4 162.4 162.4 426 0 588.4zM773.2 635.8c15.2 8.8 35 3.6 43.8-11.8 8.8-15.2 3.6-35-11.8-43.8-15.2-8.8-35-3.6-43.8 11.8-8.8 15.2-3.6 35 11.8 43.8zM160 448c0 17.6 14.4 32 32 32s32-14.4 32-32-14.4-32-32-32-32 14.4-32 32zM250.8 260.2c-15.2-8.8-35-3.6-43.8 11.8-8.8 15.2-3.6 35 11.8 43.8 15.2 8.8 35 3.6 43.8-11.8 8.8-15.2 3.6-35-11.8-43.8zM262.6 592c-8.8-15.2-28.4-20.6-43.8-11.8-15.2 8.8-20.6 28.4-11.8 43.8 8.8 15.2 28.4 20.6 43.8 11.8s20.6-28.6 11.8-43.8zM336 752.8c15.2 8.8 35 3.6 43.8-11.8 8.8-15.2 3.6-35-11.8-43.8s-35-3.6-43.8 11.8c-8.8 15.4-3.4 35 11.8 43.8zM320.4 531.4l31.2 53.2 190.4-113.8v-278.8h-62v246.8l-159.6 92.6zM379.8 154.8c-8.8-15.2-28.4-20.6-43.8-11.8s-20.6 28.4-11.8 43.8c8.8 15.2 28.4 20.6 43.8 11.8 15.2-8.8 20.6-28.4 11.8-43.8zM512 96c-17.6 0-32 14.4-32 32s14.4 32 32 32 32-14.4 32-32-14.4-32-32-32zM512 736c-17.6 0-32 14.4-32 32s14.4 32 32 32 32-14.4 32-32c0-17.6-14.4-32-32-32zM688 143.2c-15.2-8.8-35-3.6-43.8 11.8-8.8 15.2-3.6 35 11.8 43.8 15.2 8.8 35 3.6 43.8-11.8s3.4-35-11.8-43.8zM699.8 709.2c-8.8-15.2-28.4-20.6-43.8-11.8s-20.6 28.4-11.8 43.8c8.8 15.2 28.4 20.6 43.8 11.8s20.6-28.6 11.8-43.8zM816.8 272c-8.8-15.2-28.4-20.6-43.8-11.8-15.2 8.8-20.6 28.4-11.8 43.8 8.8 15.2 28.4 20.6 43.8 11.8s20.6-28.6 11.8-43.8zM832 416c-17.6 0-32 14.4-32 32s14.4 32 32 32c17.6 0 32-14.4 32-32s-14.4-32-32-32z" />
<glyph unicode="&#xe94e;" glyph-name="close-circle-outline" d="M512 780c88.6 0 172-34.6 234.8-97.2 62.6-62.8 97.2-146.2 97.2-234.8s-34.6-172-97.2-234.8c-62.8-62.6-146.2-97.2-234.8-97.2s-172 34.6-234.8 97.2c-62.6 62.8-97.2 146.2-97.2 234.8s34.6 172 97.2 234.8c62.8 62.6 146.2 97.2 234.8 97.2zM512 864c-229.8 0-416-186.2-416-416s186.2-416 416-416 416 186.2 416 416-186.2 416-416 416v0zM720 298.2l-58.2-58.2-149.8 149.8-149.8-149.8-58.2 58.2 149.8 149.8-149.8 149.8 58.2 58.2 149.8-149.8 149.8 149.8 58.2-58.2-149.8-149.8z" />
<glyph unicode="&#xe94f;" glyph-name="close-circle" d="M512 864c-230.882 0-416-185.118-416-416 0-230.872 185.118-416 416-416 230.87 0 416 185.128 416 416 0 230.882-185.128 416-416 416zM720.004 298.238l-58.24-58.234-149.764 149.762-149.762-149.762-58.242 58.234 149.766 149.762-149.766 149.762 58.242 58.232 149.762-149.756 149.762 149.756 58.24-58.232-149.764-149.762 149.766-149.762z" />
<glyph unicode="&#xe950;" glyph-name="close" d="M810 686.404l-59.596 59.596-238.404-238.404-238.404 238.404-59.596-59.596 238.404-238.404-238.404-238.404 59.596-59.596 238.404 238.404 238.404-238.404 59.596 59.596-238.404 238.404z" />
<glyph unicode="&#xe951;" glyph-name="cloud-circle" d="M512 864c-228.8 0-416-187.2-416-416s187.2-416 416-416c228.8 0 416 187.2 416 416s-187.2 416-416 416zM699.2 281.6c0 0-351.518 0-353.598 0-68.636 0-124.8 56.164-124.8 124.798 0 68.638 56.164 124.8 124.8 124.8 2.082 0 4.164 0 6.234 0 18.728 72.8 83.202 124.798 160.166 124.798 91.528 0 166.398-74.87 166.398-166.396h20.8c58.236 0 104-45.764 104-104.002 0-58.234-45.764-103.998-104-103.998z" />
<glyph unicode="&#xe952;" glyph-name="cloud-done" d="M806.004 525.998c-28.008 137.998-148.008 242.002-294.004 242.002-115.996 0-215.996-65.996-265.996-162.002-120-12.002-214.004-113.994-214.004-237.998 0-131.992 107.998-240 240-240h520c110 0 200 90 200 200 0 105.996-81.992 192.002-185.996 197.998zM426.666 234.666l-149.332 149.334 59.728 59.728 89.604-89.604 221.876 221.876 59.73-59.728-281.606-281.606z" />
<glyph unicode="&#xe953;" glyph-name="cloud-download" d="M806.004 525.998c-28.008 137.998-148.008 242.002-294.004 242.002-115.996 0-215.996-65.996-265.996-162.002-120-12.002-214.004-113.994-214.004-237.998 0-131.992 107.998-240 240-240h520c110 0 200 90 200 200 0 105.996-81.992 192.002-185.996 197.998zM448 424v152h128v-152h136l-200-200-200 200h136z" />
<glyph unicode="&#xe954;" glyph-name="cloud-outline" d="M806.002 525.998c-28.008 137.998-148.006 242.002-294.002 242.002-115.996 0-215.998-65.996-265.994-162-120.002-12.004-214.006-113.996-214.006-238 0-131.992 108.008-240 240-240h520c110 0 200 90 200 200.002 0 105.994-81.994 191.998-185.998 197.996zM792 208h-520c-88.008 0-160 71.992-160 160 0 88 71.992 160 160 160h28.008c25.996 92 110 160 211.992 160 121.992 0 220-98 220-220v-20h60c65.996 0 120-54.006 120-120 0-65.996-54.004-120-120-120z" />
<glyph unicode="&#xe955;" glyph-name="cloud-upload" d="M806.004 525.998c-28.008 137.998-148.008 242.002-294.004 242.002-115.996 0-215.996-65.996-265.996-162.002-120-12.002-214.004-113.994-214.004-237.998 0-131.992 107.998-240 240-240h520c110 0 200 90 200 200 0 105.996-81.992 192.002-185.996 197.998zM576 408v-152h-128v152h-136l200 200 200-200h-136z" />
<glyph unicode="&#xe956;" glyph-name="cloud" d="M806.004 525.998c-28.008 137.998-148.008 242.002-294.004 242.002-115.996 0-215.996-65.996-265.996-162.002-120-12.002-214.004-113.994-214.004-237.998 0-131.992 107.998-240 240-240h520c110 0 200 90 200 200 0 105.996-81.992 192.002-185.996 197.998z" />
<glyph unicode="&#xe957;" glyph-name="cloudy-night" d="M246.8 594c0.8 0.2 1.6 0.2 2.4 0.4-1-0.2-1.6-0.4-2.4-0.4zM683 353.2c-21.6 111.4-118.6 194.8-235 194.8-68 0-130.2-24-173-78.2 58.8-4.4 113.4-26.2 155.4-68.4 31.2-31.4 53.2-69.8 64.2-111.6h-57.4c-26.2 75.2-96 129-181.2 129-10.2 0-24.6-1.2-35.4-3.4-91.4-18.8-156.6-95.2-156.6-190 0-106.8 86-193.6 192-193.6h416c88.2 0 160 72.2 160 161.2-0.2 85.4-65.8 154.4-149 160.2zM225 509.2c27.2 34.6 61.4 61 101.6 78.4 36.8 16 77.6 24 121.4 24 12.2 0 24.4-0.8 36.4-2.2-12.2 36.2-18.8 75.2-18.8 115.6 0 49.2 9.8 96.2 27.6 138.8-169.4-41.2-295.2-195.2-295.2-378.4 0-3.2 0-6.4 0.2-9.6 0.2 0 0.4 0.2 0.6 0.2l26.2 33.2zM835.2 346.4c26.6-28.4 45.2-63 54.2-100.2 33 42.8 57.4 92.8 70.6 147-42.4-18-89-27.8-137.8-27.8-2.4 0-4.8 0-7.2 0 7-5.8 13.8-12.2 20.2-19z" />
<glyph unicode="&#xe958;" glyph-name="cloudy" d="M246.8 594c0.8 0.2 1.6 0.2 2.4 0.4-1-0.2-1.6-0.4-2.4-0.4zM786.4 521.6c-25.4 129.2-138.6 226.4-274.4 226.4-79.4 0-152-28-201.8-90.8 68.6-5.2 132.2-30.4 181.4-79.6 36.4-36.4 62-81 74.8-129.6h-67c-30.6 87.4-112 150-211.4 150-12 0-28.6-1.4-41.2-4-106.8-22-182.8-110.8-182.8-221 0-124.2 100.4-225 224-225h485.4c103 0 186.6 84 186.6 187.6 0 98.8-76.6 179.2-173.6 186z" />
<glyph unicode="&#xe959;" glyph-name="code-download" d="M469.2 640v-251.4l-89.4 87.2-59.8-59.8 192-192 192 192-59.8 62-89.4-89.4v251.4h-85.6zM380.8 251.8l-197 196.2 196.8 196.2-60 59.8-256.6-256 256.8-256 60 59.8zM643.2 251.8l196.8 196.2-196.8 196.2 60 59.8 256.8-256-256.8-256c0 0-60 59.8-60 59.8z" />
<glyph unicode="&#xe95a;" glyph-name="code-working" d="M380.8 251.8l-197 196.2 196.8 196.2-60 59.8-256.6-256 256.8-256 60 59.8zM643.2 251.8l196.8 196.2-196.8 196.2 60 59.8 256.8-256-256.8-256c0 0-60 59.8-60 59.8zM311.2 408h80v80h-80v-80zM712.8 488h-80v-80h80v80zM472 408h80v80h-80v-80z" />
<glyph unicode="&#xe95b;" glyph-name="code" d="M380.8 251.8l-197 196.2 196.8 196.2-60 59.8-256.6-256 256.8-256 60 59.8zM643.2 251.8l196.8 196.2-196.8 196.2 60 59.8 256.8-256-256.8-256c0 0-60 59.8-60 59.8z" />
<glyph unicode="&#xe95c;" glyph-name="cog" d="M960 384v128h-69.4c-4 24.2-10.4 47.6-18.6 70l60 34.6-64 110.8-60-34.6c-15.4 18.6-32.6 35.8-51.2 51.2l34.6 60-110.8 64-34.6-60c-22.4 8.4-45.8 14.6-70 18.6v69.4h-128v-69.4c-24.2-4-47.6-10.4-70-18.6l-34.6 60-110.8-64 34.6-60c-18.6-15.4-35.8-32.6-51.2-51.2l-60 34.6-64-110.8 60-34.6c-8.4-22.4-14.6-45.8-18.6-70h-69.4v-128h69.4c4-24.2 10.4-47.6 18.6-70l-60-34.6 64-110.8 60 34.6c15.4-18.6 32.6-35.8 51.2-51.2l-34.6-60 110.8-64 34.6 60c22.4-8.4 45.8-14.6 70-18.6v-69.4h128v69.4c24.2 4 47.6 10.4 70 18.6l34.6-60 110.8 64-34.6 60c18.6 15.4 35.8 32.6 51.2 51.2l60-34.6 64 110.8-60 34.6c8.4 22.4 14.6 45.8 18.6 70h69.4zM512 512c35.4 0 64-28.6 64-64s-28.6-64-64-64-64 28.6-64 64 28.6 64 64 64zM282.4 274c-36.6 48.4-58.4 108.6-58.4 174 0 12.2 0.8 24.2 2.2 36l93.8-34.2c0-0.6 0-1.2 0-1.8 0-35.6 9.8-69 26.6-97.6l-64.2-76.4zM363.8 570l-93.8 34.2c40.2 62.2 103.6 107.8 178 124.6v-99.8c-33.2-11.8-62.2-32.4-84.2-59zM512 160c-47.4 0-92 11.4-131.6 31.8l64.2 76.4c21-7.8 43.6-12.2 67.4-12.2s46.4 4.4 67.4 12.2l64.2-76.4c-39.6-20.4-84.2-31.8-131.6-31.8zM576 629v99.8c74.4-16.8 137.8-62.4 178-124.6l-93.8-34.2c-22 26.6-51 47.2-84.2 59zM741.6 274l-64.2 76.4c16.8 28.6 26.6 62 26.6 97.6 0 0.6 0 1.2 0 1.8l93.8 34.2c1.4-11.8 2.2-23.8 2.2-36 0-65.4-21.8-125.6-58.4-174z" />
<glyph unicode="&#xe95d;" glyph-name="color-fill" d="M273 804.6l74-134-283-282 368.8-356.6 304.8 297.2 108.8 22.8-513.6 512-59.8-59.4zM641 388.6h-411.2l205.6 204.6 205.6-204.6zM846.6 352c0 0-113.4-123-113.4-184.2 0-61.4 50.8-111 113.4-111s113.4 49.8 113.4 111c0 61.2-113.4 184.2-113.4 184.2z" />
<glyph unicode="&#xe95e;" glyph-name="color-filter" d="M883.6 719.8l-99.8 99.8c-16.6 16.6-43.6 16.6-60.2 0l-133.2-133.2-82.2 81.6-60.2-60.2 60.6-60.6-380.6-380.6v-202.6h202.6l380.6 380.6 60.6-60.6 60.2 60.2-82 82 133.2 133.2c17 16.8 17 43.6 0.4 60.4zM295.2 149.2l-82 82 343.8 343.8 82-82-343.8-343.8z" />
<glyph unicode="&#xe95f;" glyph-name="color-palette" d="M512 832c-211.198 0-384-172.802-384-384 0-211.208 172.802-384 384-384 36.272 0 64 27.728 64 64 0 17.062-6.396 32-17.062 42.666-10.666 10.668-17.062 25.606-17.062 42.668 0 36.27 27.728 64 64 64h76.792c117.334 0 213.334 96 213.334 213.332-0.002 187.73-172.794 341.334-384.002 341.334zM277.334 448c-36.272 0-64 27.728-64 64s27.728 64 64 64c36.27 0 64-27.728 64-64s-27.73-64-64-64zM405.334 618.666c-36.272 0-64 27.73-64 64 0 36.272 27.728 64 64 64 36.27 0 64-27.728 64-64 0-36.27-27.73-64-64-64zM618.666 618.666c-36.27 0-64 27.73-64 64 0 36.272 27.73 64 64 64 36.272 0 64-27.728 64-64 0-36.27-27.728-64-64-64zM746.666 448c-36.27 0-64 27.728-64 64s27.73 64 64 64c36.272 0 64-27.728 64-64s-27.728-64-64-64z" />
<glyph unicode="&#xe960;" glyph-name="color-wand" d="M401.6 645.6l-72.8-74.8 494.6-506.8 72.6 74.8zM362 832h74v-136h-74v136zM362 436h74v-136h-74v136zM540 608h138v-74h-138v74zM611.2 728.4l-51.4 52.6-94.2-96.6 51.2-52.4zM337.6 684.4l-94.2 96.6-51.2-52.6 94.2-96.4zM192.2 404.2l51.2-52.4 94.2 96.4-51.2 52.6zM128 608h130v-74h-130v74z" />
<glyph unicode="&#xe961;" glyph-name="compass" d="M512 497.284c-26.884 0-49.286-22.4-49.286-49.284s22.4-49.286 49.286-49.286 49.286 22.4 49.286 49.286-22.402 49.284-49.286 49.284zM512 896c-246.4 0-448-201.6-448-448s201.6-448 448-448 448 201.6 448 448-201.6 448-448 448zM610.568 349.432l-367.368-170.232 170.232 367.358 367.368 170.242-170.232-367.368z" />
<glyph unicode="&#xe962;" glyph-name="construct" d="M861.8 173.2l-382.2 380.4c31.8 81.2 14.2 176.4-53.2 243.4-70.8 70.6-177 84.6-262 45.8l152.2-151.6-106.2-105.8-155.8 151.6c-42.2-84.6-24.6-190.4 46.2-261 67.2-67 162.8-84.6 244.2-53l28.8-28.6-210.4-210.4c-15.2-11.4-15.2-38 3.8-53.2l87.6-87.4c15.2-15.2 38.2-15.2 53.4 0l192.2 224.8 226.8-225.8c14.2-14.2 35.4-14.2 49.6 0l81.4 81.2c17.8 14.2 17.8 39 3.6 49.6zM988.8 526.8l-69 68.2c-4.4 4.4-11.6 4.4-16 0l-7.4-7.4-37 31.6c0 0 2.4 20-9.8 37.4-12.4 17.4-32.2 39.6-46.4 53.8-14.2 14-68.2 67.8-139.4 102.8-71.4 35.4-121.8 50.8-181.8 50.8v-59.4c0 0 57.4-33.2 90.2-59.4 32.6-26.2 33.6-119 33.6-119l-57-57 113-112.2 62 72.6c25.8 7 47.6 7.6 60.4 0.6l27.4-26.6-19.2-19c-4.4-4.4-4.4-11.4 0-15.8l69-68.2c4.4-4.4 11.6-4.4 16 0l111.4 110.4c4.2 4.4 4.2 11.6 0 15.8z" />
<glyph unicode="&#xe963;" glyph-name="contact" d="M512 864c-228.8 0-416-187.2-416-416s187.2-416 416-416 416 187.2 416 416-187.2 416-416 416zM512 739.2c68.6 0 124.8-56.2 124.8-124.8s-56.2-124.8-124.8-124.8-124.8 56.2-124.8 124.8 56.2 124.8 124.8 124.8zM512 138.4c-104 0-195.6 54-249.6 133.2 2 83.2 166.4 129 249.6 129s247.6-45.8 249.6-129c-54-79-145.6-133.2-249.6-133.2z" />
<glyph unicode="&#xe964;" glyph-name="contacts" d="M478.416 272.126c-35.56-20.206-76.684-31.752-120.51-31.752-43.818 0-84.934 11.542-120.492 31.74-94.326-28.776-152.128-124.114-173.414-208.114h587.824c-21.278 84-79.074 179.366-173.408 208.126zM357.906 719.93c-116.958 0-211.772-94.788-211.772-211.716s94.814-211.714 211.772-211.714c116.958 0 211.772 94.788 211.772 211.714 0 116.928-94.816 211.716-211.772 211.716zM357.906 346.954c-67.342 0-124.89 45.026-147.994 101.046h295.988c-23.108-56.022-80.652-101.046-147.994-101.046zM645.204 192h314.796c-21.276 84-79.074 163.382-173.406 192.144-35.562-20.208-76.686-31.746-120.512-31.746-29.646 0-58.048 5.308-84.336 14.98-14.89-24.94-33.854-51.184-55.948-69.812 52.692-20.274 92.494-65.566 119.406-105.566zM613.090 560h200.986c-23.108-56-80.654-100.586-147.994-100.586-17.75 0-34.808 3.384-50.75 9.020-2.676-17.418-7.086-34.14-13.040-50.236 20.132-6.348 41.558-9.724 63.79-9.724 116.958 0 211.772 94.82 211.772 211.744 0 116.93-94.814 211.732-211.772 211.732-74.98 0-140.854-39.406-178.486-98.18 63.618-36.536 110.326-99.77 125.494-173.77z" />
<glyph unicode="&#xe965;" glyph-name="contract" d="M128 217.6h153.59v-153.6h102.41v256h-256v-102.4zM281.59 678.4h-153.59v-102.4h256v256h-102.41v-153.6zM640 64h102.4v153.6h153.6v102.4h-256v-256zM742.4 678.4v153.6h-102.4v-256h256v102.4h-153.6z" />
<glyph unicode="&#xe966;" glyph-name="contrast" d="M512 864c-229.8 0-416-186.2-416-416s186.2-416 416-416 416 186.2 416 416-186.2 416-416 416zM738.2 221.8c-60.4-60.6-140.8-93.8-226.2-93.8v640c85.4 0 165.8-33.2 226.2-93.8 60.6-60.4 93.8-140.8 93.8-226.2s-33.2-165.8-93.8-226.2z" />
<glyph unicode="&#xe967;" glyph-name="copy" d="M592 864h-239c-44.2 0-81-34.8-81-79v-17h-15c-44.2 0-81-34.8-81-79v-576c0-44.2 36.8-81 81-81h416c44.2 0 79 36.8 79 81v15h17c44.2 0 79 36.8 79 81v399l-256 256zM592 774.8l166.8-166.8h-166.8v166.8zM688 113c0-9.4-6.8-17-15-17h-416c-8.8 0-17 8.2-17 17v576c0 8.2 7.6 15 17 15h15v-511c0-44.2 20.8-65 65-65h351v-15zM784 209c0-9.4-6.8-17-15-17h-416c-8.8 0-17 8.2-17 17v576c0 8.2 7.6 15 17 15h175v-256h256v-335z" />
<glyph unicode="&#xe968;" glyph-name="create" d="M128 224v-160h160l471.454 471.458-159.998 159.996-471.456-471.454zM883.204 659.204c17.062 17.062 17.062 42.668 0 59.73l-100.27 100.27c-17.062 17.062-42.668 17.062-59.73 0l-78.936-78.938 159.998-159.996 78.938 78.934z" />
<glyph unicode="&#xe969;" glyph-name="crop" d="M704 334.6h75.6v305.4c0 41.6-34 75.6-75.6 75.6h-305.4v-75.6h305.4v-305.4zM320 267.6v596.4h-75.6v-148.4h-148.4v-75.6h148.4v-372.4c0-41.6 34-75.6 75.6-75.6h384v-160h75.6v160h148.4v75.6h-608z" />
<glyph unicode="&#xe96a;" glyph-name="cube" d="M934.6 623.8c-3.6 0-7-0.6-10.2-2l-355.2-184.2c0 0-0.2 0-0.2 0-15.2-9.4-25-25-25-42.8v-371.8c0-12.8 11.2-23 25.4-23 4.4 0 8.6 1 12.2 2.8 0.4 0.2 0.8 0.4 1 0.6l350 185.6c16.4 9 27.4 25.4 27.4 44.2v367.6c0 12.8-11.4 23-25.4 23zM908.6 723l-363.4 163.4c0 0-21.4 9.6-33.2 9.6s-33-9.6-33-9.6l-363.8-163.4c0 0-16-6.6-16-19 0-13.2 16.6-23 16.6-23l371-195.6c7.6-3.4 16.2-5.2 25.2-5.2 9.2 0 17.8 2 25.4 5.4l370.8 195.8c0 0 15 8 15 23 0.2 12.6-14.6 18.6-14.6 18.6zM455 437.6l-355.4 184.4c-3 1.2-6.6 2-10.2 2-14 0-25.4-10.2-25.4-23v-367.6c0-18.8 11-35.2 27.4-44.2l0.4-0.2 349.4-185.4c3.8-2.2 8.4-3.4 13.2-3.4 14 0 25.4 10.4 25.4 23v371.6c0.2 17.8-9.8 33.6-24.8 42.8z" />
<glyph unicode="&#xe96b;" glyph-name="cut" d="M406.2 643.4c10.4 22.4 16.2 47 16.2 73.4 0 99-80.2 179.2-179.2 179.2s-179.2-80.2-179.2-179.2 80.2-179.2 179.2-179.2c26.4 0 51 5.8 73.4 16.2l105.8-105.8-105.8-105.8c-22.4 10.4-47 16.2-73.4 16.2-99 0-179.2-80.2-179.2-179.2s80.2-179.2 179.2-179.2 179.2 80.2 179.2 179.2c0 26.4-5.8 51-16.2 73.4l105.8 105.8 313.6-313.6h134.4v44.8l-553.8 553.8zM243.2 627.2c-49.2 0-89.6 39.8-89.6 89.6s40.4 89.6 89.6 89.6 89.6-39.8 89.6-89.6-40.4-89.6-89.6-89.6zM243.2 89.6c-49.2 0-89.6 39.8-89.6 89.6s40.4 89.6 89.6 89.6 89.6-39.8 89.6-89.6-40.4-89.6-89.6-89.6zM512 425.6c-12.6 0-22.4 9.8-22.4 22.4s9.8 22.4 22.4 22.4c12.6 0 22.4-9.8 22.4-22.4s-9.8-22.4-22.4-22.4zM825.6 851.2l-268.8-268.8 89.6-89.6 313.6 313.6v44.8h-134.4z" />
<glyph unicode="&#xe96c;" glyph-name="desktop" d="M874.666 896h-725.332c-46.938 0-85.334-38.394-85.334-85.332v-565.334c0-46.938 38.396-85.334 85.334-85.334h277.332l-85.332-96v-64h341.332v64l-85.332 96h277.332c46.938 0 85.334 38.396 85.334 85.334v565.334c0 46.938-38.396 85.332-85.334 85.332zM874.666 320h-725.332v490.668h725.332v-490.668z" />
<glyph unicode="&#xe96d;" glyph-name="disc" d="M512 864c-229.6 0-416-186.4-416-416s186.4-416 416-416 416 186.4 416 416-186.4 416-416 416zM512 260.8c-103.6 0-187.2 83.6-187.2 187.2s83.6 187.2 187.2 187.2 187.2-83.6 187.2-187.2-83.6-187.2-187.2-187.2zM512 489.6c-22.8 0-41.6-18.8-41.6-41.6s18.8-41.6 41.6-41.6 41.6 18.8 41.6 41.6-18.8 41.6-41.6 41.6z" />
<glyph unicode="&#xe96e;" glyph-name="document" d="M576 864h-304c-44.184 0-80-35.816-80-80v-672c0-44.184 35.816-80 80-80h480c44.184 0 80 35.816 80 80v496l-256 256zM544 576v224l224-224h-224z" />
<glyph unicode="&#xe96f;" glyph-name="done-all" d="M775.162 680.576l-61.652 61.424-279.684-278.638 61.662-61.438 279.674 278.652zM962.344 742l-466.856-462.938-182.78 182.102-61.654-61.43 244.434-245.734 528.512 526.576-61.656 61.424zM0 399.734l246.642-245.734 61.658 61.426-244.432 245.738-63.868-61.43z" />
<glyph unicode="&#xe970;" glyph-name="download" d="M832 561h-182.8v271h-274.4v-271h-182.8l320-316.2 320 316.2zM192 154.4v-90.4h640v90.4h-640z" />
<glyph unicode="&#xe971;" glyph-name="easel" d="M256 608h512v-256h-512v256zM896 768h-768c-17.6 0-32-14.4-32-32v-512c0-17.6 13.8-32 31.6-32h768.4c17.6 0 32 14.4 32 32v512c0 17.6-14.4 32-32 32zM832 288h-640v384h640v-384zM160 32h114l45 128h-112.8zM558.8 864h-93.6l-23-64h139.6zM750 32h114l-46 128h-113zM464 160h96v-64h-96v64z" />
<glyph unicode="&#xe972;" glyph-name="egg" d="M512 896c-140.8 0-352-266.4-352-513.8s140.8-382.2 352-382.2 352 134.8 352 382.2-211.2 513.8-352 513.8z" />
<glyph unicode="&#xe973;" glyph-name="exit" d="M430.938 294.396l59.726-59.728 213.336 213.332-213.336 213.334-59.726-59.73 110.938-110.938h-413.876v-85.332h411.728l-108.79-110.938zM810.668 832h-597.336c-46.936 0-85.332-38.396-85.332-85.332v-170.668h85.332v170.666h597.336v-597.336h-597.336v170.67h-85.332v-170.668c0-46.936 38.396-85.332 85.332-85.332h597.336c46.936 0 85.332 38.396 85.332 85.332v597.336c0 46.936-38.396 85.332-85.332 85.332z" />
<glyph unicode="&#xe974;" glyph-name="expand" d="M793.59 166.4h-153.59v-102.4h256v256h-102.41zM793.6 729.59v-153.59h102.4v256h-256v-102.41zM230.41 729.6h153.59v102.4h-256v-256h102.41zM230.4 166.41v153.59h-102.4v-256h256v102.41z" />
<glyph unicode="&#xe975;" glyph-name="eye-off" d="M512.2 670.4c112.4 0 203.8-90.6 203.8-202.2 0-26.2-5.2-51-14.6-74l119-118c61.6 51 110 116.8 139.8 192-70.6 177.4-244.6 303.2-448.4 303.2-57 0-111.6-10.2-162.2-28.2l88-87.4c23.2 9.2 48.2 14.6 74.6 14.6zM104.8 780.6l111.8-110.8c-67.8-52-120.8-121.6-152.6-201.6 70.4-177.4 244.4-303.2 448.2-303.2 63.2 0 123.4 12.2 178.4 34l136.6-135 51.8 51.4-722.6 716.6-51.6-51.4zM330 557.2l63.2-62.6c-2-8.4-3.2-17.4-3.2-26.2 0-67 54.6-121.2 122.2-121.2 9 0 18 1.2 26.4 3.2l63.2-62.6c-27.2-13.4-57.4-21.4-89.6-21.4-112.4 0-203.8 90.6-203.8 202.2 0 31.6 8.2 61.4 21.6 88.6zM505.6 588.6l128.4-127.4 0.8 6.4c0 67-54.6 121.2-122.2 121.2l-7-0.2z" />
<glyph unicode="&#xe976;" glyph-name="eye" d="M512 750c-203.6 0-376.8-124.8-448-302 71.2-177.2 244.4-302 448-302s376.8 124.8 448 302c-71.2 177.2-244.4 302-448 302zM512 246.6c-112 0-203.6 90.6-203.6 201.4s91.6 201.4 203.6 201.4 203.6-90.6 203.6-201.4-91.6-201.4-203.6-201.4zM512 568.8c-67.2 0-122.2-54.4-122.2-120.8s55-120.8 122.2-120.8 122.2 54.4 122.2 120.8-55 120.8-122.2 120.8z" />
<glyph unicode="&#xe977;" glyph-name="fastforward" d="M960 448l-435.2 292v-584l435.2 292zM64 740v-584l435.2 292-435.2 292z" />
<glyph unicode="&#xe978;" glyph-name="female" d="M800 608c0 159-129 288-288 288s-288-129-288-288c0-142.8 103.8-261.2 240-284v-100h-144v-96h144v-128h96v128h144v96h-144v100c136.2 22.8 240 141.2 240 284zM320 608c0 105.8 86.2 192 192 192s192-86.2 192-192-86.2-192-192-192-192 86.2-192 192z" />
<glyph unicode="&#xe979;" glyph-name="filing" d="M898.4 544h-52.4v64l-28.8 96h-51.2v64l-30 96h-448l-30-96v-64h-51.2l-28.8-96v-64h-52.4l-29.6-96v-330.6c0-47 70.4-85.4 117.4-85.4h629.4c43.6 0 85.4 39.4 85.4 82v334l-29.8 96zM352 768h320v-64h-320v64zM270 608h484v-64h-484v64zM834 384h-165.2c-14.8-73-79.4-128-156.8-128s-142 55-156.8 128h-165.2v64h644v-64z" />
<glyph unicode="&#xe97a;" glyph-name="film" d="M752 832v-85.334h-80v85.334h-320v-85.334h-80v85.334h-80v-768h80v85.332h80v-85.332h320v85.332h80v-85.332h80v768h-80zM352 234.666h-80v85.334h80v-85.334zM352 405.332h-80v85.334h80v-85.334zM352 576h-80v85.332h80v-85.332zM752 234.666h-80v85.334h80v-85.334zM752 405.332h-80v85.334h80v-85.334zM752 576h-80v85.332h80v-85.332z" />
<glyph unicode="&#xe97b;" glyph-name="finger-print" d="M156.2 548.8c-4.8 0-9.8 1.2-14.2 3.8-13.4 7.8-18 24.8-10.2 38.2 35.6 60 143.8 200.2 380.2 200.2 102.4 0 192.2-27.2 266.8-80.8 61.4-44 95.8-93.8 112.2-117.8 8.8-12.8 5.4-30-7.4-38.8-12.8-8.6-30.4-5.4-39.2 7.4-29.8 43.2-120.2 174.4-332.4 174.4-207.2 0-300.8-120.8-331.4-172.6-5.2-9.2-14.6-14-24.4-14zM631 0c-2.4 0-4.6 0.2-7 0.8-171.4 43-235.4 216.2-238 223.4l-0.4 1.6c-1.4 5-35.8 123.8 17 193.4 24.2 31.8 61 48 109.6 48 45.2 0 77.8-14.2 100.2-43.6 18.4-24 25.8-53.6 33-82.2 15-59.4 25.8-90.6 88.2-93.8 27.4-1.4 45.4 14.8 55.6 28.6 27.6 37.6 32.4 99 11.6 153-26.8 70-121.6 201.8-288.8 201.8-71.4 0-137-23.2-189.6-66.8-43.6-36.2-78.2-87.2-94.8-139.6-30.8-97.6 9.6-251 10-252.4 4-14.8-5-30.2-20-34-15-4-30.6 5-34.6 19.8-1.8 7-45 170.6-9.4 283.4 38.8 122.2 158.4 245.4 338.4 245.4 83.2 0 161.8-28.6 227.4-82.6 50.8-42 92.4-98.4 114-154.8 27.6-72 20.2-152.8-18.8-205.6-26-35.2-63-53.6-104-51.6-106.8 5.4-126 80.8-140 135.8-14.4 56.4-23.6 83.6-78.6 83.6-30.2 0-51.4-8.4-64.6-25.8-18-23.8-19.4-61-17.4-88 2-28.2 8-51 9.4-55.6 4.4-11.2 61.6-153 198.6-187.4 15.2-3.8 24.2-19 20.4-33.8-3.4-12.6-14.8-21-27.4-21zM411 12.8c-7.6 0-15 3-20.6 8.8-68.6 72.8-107.4 154.2-122 256v0.6c-8.2 67.4 3.8 162.8 62.6 228.4 43.4 48.4 104.4 73 181 73 90.6 0 161.8-42.6 206.2-123 32.2-58.4 38.6-116.6 38.8-119 1.6-15.4-9.8-29-25.2-30.6s-29.4 9.6-31 24.8v0c0 0.6-5.6 50.6-33 99.4-34.4 61.4-86.8 92.6-156 92.6-59.8 0-106.6-18.2-138.8-54.2-46.4-51.8-55.4-131.6-49-184.4 12.8-90 47-161.6 107.4-225.6 10.6-11.2 10-29-1.4-39.4-5.2-4.8-12.2-7.4-19-7.4zM727 93c-60 0-111 16.8-151.8 50.2-82 66.8-91.2 175.6-91.6 180.2-1.2 15.4 10.4 28.8 26 30s29-10.2 30.2-25.6c0.2-1.6 8.4-90.6 71.6-141.8 37.4-30.2 87.4-42.2 149-35.2 15.4 1.8 29.4-9.2 31.2-24.6s-9.4-29.2-24.8-30.8c-13.6-1.6-27-2.4-39.8-2.4zM774.4 834.8c-23.4 15.4-106.4 61.2-262.4 61.2-163.8 0-247-50.6-265.4-63.4-1.2-0.8-2.4-1.6-3.4-2.6-0.2-0.2-0.4-0.2-0.4-0.2v0c-5.8-5.2-9.4-12.6-9.4-20.8 0-15.4 12.6-27.8 28.2-27.8 6.2 0 11.8 2 16.4 5.2v0l-0.2-0.2c0.8 0.6 72.6 54 234.2 54s233.4-53.6 234.2-54l-0.2 0.2 0.4 0.4c4.8-3.6 10.6-5.6 17-5.6 15.6 0 28.2 12.4 28.2 27.8 0 11.6-7 21.6-17.2 25.8z" />
<glyph unicode="&#xe97c;" glyph-name="fitness" d="M868.6 329l59.4 59.4-59.4 59.6-148.6-148.6-356.6 356.6 148.6 148.6-59.4 59.4-59.4-59.4-59.6 59.4-89-89-59.6 59.4-59.4-59.4 59.4-59.4-89-89.2 59.4-59.4-59.4-59.6 59.4-59.4 148.6 148.6 356.6-356.6-148.6-148.6 59.4-59.4 59.4 59.4 59.4-59.4 89 89 59.4-59.4 59.4 59.4-59.4 59.4 89 89-59 59.6z" />
<glyph unicode="&#xe97d;" glyph-name="flag" d="M792 793.6c-27.6-3.4-62.2-8.4-99.2-8.4-57.6 0-110 13.6-163 24.4-53.8 11-109.4 22.4-168.2 22.4-117.2 0-157-24.2-161.2-26.8l-8.4-5.8v-735.4h96v356.4c19.4 2.4 43.8 4 73.8 4 54.6 0 105.6-20 159.6-31 55.2-11.2 112-23 173.8-23 36.8 0 69.2 4.8 96.8 8 15 1.8 28 3.4 40 5.4v415.8c-10-2-25-4.2-40-6z" />
<glyph unicode="&#xe97e;" glyph-name="flame" d="M786.6 515.8l-0.4-20.8c-1.6-23.4-15.8-86.8-44.2-109.4 14 30.4 34.6 94.4 20.4 165.4-39.2 195-187.4 277.8-376.4 309l-34.4 4.4c79-94.4 112.2-163.4 99.4-233.6-4.6-25.2-20-46.8-28-63.2 0 0 4.8 25.8 4 57.4-0.6 28.4-13.2 62-36 79.2 7-36.8-1.6-67-18.2-95.4-49.4-84.4-170.8-115.6-180.8-271.6v-7.6c0-107.4 51.2-198 137.4-250-13.6 24.6-24 70.4-11.4 120.4 8-47.4 28-72 49.8-103.6 16.4-23.4 38.2-38.6 66.2-49.8s62-14.4 95.8-14.4c111.6 0 182.8 36.2 238.2 101s64.2 136 64.2 212.8-17 121.8-45.6 169.8z" />
<glyph unicode="&#xe97f;" glyph-name="flash-off" d="M919.8 89l-767.6 766-48.4-48.2 216.2-215.4v-175.4h128v-384l144 288 279.8-279zM704 544h-128l128 320h-384v-80.6l336-335.2z" />
<glyph unicode="&#xe980;" glyph-name="flash" d="M320 864v-448h128v-384l256 512h-128l128 320h-384z" />
<glyph unicode="&#xe981;" glyph-name="flashlight" d="M256 364l128-128v-236h256v236l128 128v244l-510.4-0.8-1.6-243.2zM469.6 896h84.8v-128h-84.8v128zM160 739.2l59.8 60.8 89.8-91.2-59.8-60.8-89.8 91.2zM714.2 708.8l90 91 59.8-60.8-89.8-91-60 60.8z" />
<glyph unicode="&#xe982;" glyph-name="flask" d="M873.8 251.2l-201.8 324.8v192h64v96h-448v-96h64v-192l-199.8-324.8c-16.8-31.8-25-62.8-24.2-91.2 2.2-73 57.4-128 130.2-128h511.8c72.6 0 124.2 55.2 126 128 0.6 28.4-5.2 59.4-22.2 91.2zM310.2 352l59 96h286.2l59.6-96h-404.8z" />
<glyph unicode="&#xe983;" glyph-name="flower" d="M810.2 448c50.4 23.8 85.8 74.2 85.8 133.8 0 82-67.2 148.6-150 148.6-31.8 0-60.6-9.6-85.2-26.2l1.2 11.2c0 82-67.2 148.6-150 148.6s-150-66.6-150-148.6l1.2-11.2c-24 16.6-53.4 26.2-85.2 26.2-82.8 0-150-66.6-150-148.6 0-59.4 35.4-110 85.8-133.8-50.4-23.8-85.8-74.2-85.8-133.8 0-82 67.2-148.6 150-148.6 31.8 0 60.6 9.6 85.2 26.2l-1.2-11.2c0-82 67.2-148.6 150-148.6s150 66.6 150 148.6l-1.2 11.2c24-16.6 53.4-26.2 85.2-26.2 82.8 0 150 66.6 150 148.6 0 59.6-35.4 110-85.8 133.8zM512 299.4c-82.8 0-150 66.6-150 148.6s67.2 148.6 150 148.6 150-66.6 150-148.6c0-82-67.2-148.6-150-148.6z" />
<glyph unicode="&#xe984;" glyph-name="folder-open" d="M874.668 672h-362.656l-85.336 96h-277.344c-46.938 0-85.332-38.396-85.332-85.334v-469.332c0-46.938 38.394-85.334 85.332-85.334h725.336c46.938 0 85.332 38.396 85.332 85.334v373.332c0 46.938-38.394 85.334-85.332 85.334zM896 213.334c0-11.564-9.77-21.334-21.332-21.334h-725.336c-11.564 0-21.332 9.77-21.332 21.334v394.666h746.668c11.562 0 21.332-9.77 21.332-21.334v-373.332z" />
<glyph unicode="&#xe985;" glyph-name="folder" d="M426.676 768h-277.344c-46.938 0-85.332-38.396-85.332-85.334v-469.332c0-46.938 38.394-85.334 85.332-85.334h725.336c46.938 0 85.332 38.396 85.332 85.334v373.332c0 46.938-38.394 85.334-85.332 85.334h-362.656l-85.336 96z" />
<glyph unicode="&#xe986;" glyph-name="football" d="M512 864c-229.4 0-416-186.6-416-416s186.6-416 416-416 416 186.6 416 416-186.6 416-416 416zM254 483.6l78.4-35.8 34.2-133.8-31.2-58.6-114.4 1.4c-29.8 45.2-48.6 97-55 150.6l88 76.2zM688.6 255.4l-31.2 58.6 34.2 134 78.2 35.6 88-76.2c-6.2-53.6-25.2-105.4-55-150.6l-114.2-1.4zM753.4 547.8l-87.2-39.2-122.2 103.2v94.4l95.8 65.2c59.6-23.8 112.8-64.6 151.2-115.6l-37.6-108zM382.6 771.2l95.4-65v-94.4l-122-103-86 39.2-37.4 107.2c38.6 52.2 90.2 92 150 116zM436.8 108c-1.4 0.4-2.6 0.6-4 1l-41 110.2 29.4 58.8h181.6l30-60.6-39.6-107.8c-2-0.4-4-1-6-1.4-23-4.6-54-7.6-80.8-8.2-23.4 0.2-46.8 3-69.6 8z" />
<glyph unicode="&#xe987;" glyph-name="funnel" d="M416 160h192v95.988h-192v-95.988zM64 736v-95.988h896v95.988h-896zM224 398.434h576v99.11h-576v-99.11z" />
<glyph unicode="&#xe988;" glyph-name="gift" d="M848 691h-91.6c4.6 13.2 7.6 27.8 7.6 42.6 0 70.8-56.2 126.4-126 126.4-44.2 0-82.4-21.4-105-56l-21-28.6-21 29c-22.6 34.2-60.8 59.6-105 59.6-69.8 0-126-59.6-126-130.4 0-15 3-29.4 7.6-42.6h-91.6c-46.6 0-83.6-38-83.6-85.4l-0.4-489.2c0-47.4 34.8-84.4 81.4-84.4h673.4c46.6 0 85.4 37 85.4 84.4v489.2c-0.2 47.4-37.6 85.4-84.2 85.4zM640 778c23.2 0 42-19 42-42 0-23.2-18.8-42-42-42s-42 19-42 42c0 23 18.8 42 42 42zM384 778c23.2 0 42-19 42-42 0-23.2-18.8-42-42-42s-42 19-42 42c0 23 18.8 42 42 42zM176 605.6h213.4l-87.4-120.6 68-50 100 138.2 0.4 0.4-0.4-457.2h-294v489.2zM848 116.4h-294v456.8l100-138.2 68 50-87.4 120.8h213.4v-489.4z" />
<glyph unicode="&#xe989;" glyph-name="git-branch" d="M832 640c0 70.6-57.4 128-128 128s-128-57.4-128-128c0-47.4 25.8-88.6 64-110.8v-17.2c0-39.8-15.6-67.4-50.6-89.8-30.8-19.6-76.2-34.2-135-43-28-4.2-51.4-12-70.4-21.4v299.4c38.2 22.2 64 63.4 64 110.8 0 70.6-57.4 128-128 128s-128-57.4-128-128c0-47.4 25.8-88.6 64-110.8v-418.4c-38.2-22.2-64-63.4-64-110.8 0-70.6 57.4-128 128-128s128 57.4 128 128c0 33.2-12.6 63.4-33.4 86.2 3.8 9.8 19.4 32.6 58.8 38.6 77.6 11.6 137.8 31.8 184.6 61.6 72 45.6 110 114 110 197.6v17.2c38.2 22.2 64 63.4 64 110.8zM320 848c44.2 0 80-35.8 80-80s-35.8-80-80-80-80 35.8-80 80 35.8 80 80 80zM320 48c-44.2 0-80 35.8-80 80s35.8 80 80 80 80-35.8 80-80-35.8-80-80-80zM704 560c-44.2 0-80 35.8-80 80s35.8 80 80 80 80-35.8 80-80-35.8-80-80-80z" />
<glyph unicode="&#xe98a;" glyph-name="git-commit" d="M960 512h-199.6c-28.4 110.4-128.4 192-247.4 192s-219-81.6-247.4-192h-201.6v-128h201.6c28.4-110.4 128.4-192 247.4-192s219 81.6 247.4 192h199.6v128zM513 288c-88 0-159.6 71.8-159.6 160s71.6 160 159.6 160c88 0 159.6-71.8 159.6-160s-71.6-160-159.6-160z" />
<glyph unicode="&#xe98b;" glyph-name="git-compare" d="M384 196h-44c-49.2 0-58 7.2-67.6 19.2-11 13.8-16.4 38.2-16.4 108.4v333.6c38.2 22.2 64 63.4 64 110.8 0 70.6-57.4 128-128 128s-128-57.4-128-128c0-47.4 25.8-88.6 64-110.8v-333.6c0-92.8 7.4-141.6 44.2-188 39.8-50.2 90-71.6 167.8-71.6h44v-128l192 192-192 192v-124zM192 848c44.2 0 80-35.8 80-80s-35.8-80-80-80-80 35.8-80 80 35.8 80 80 80zM896 238.8v339.6c0 92.8-7.4 141.6-44.2 188-39.8 50.2-90 69.6-167.8 69.6h-44v124l-192-192 192-192v128h44c49.2 0 58-5.2 67.6-17.2 11-13.8 16.4-38.2 16.4-108.4v-339.6c-38.2-22.2-64-63.4-64-110.8 0-70.6 57.4-128 128-128s128 57.4 128 128c0 47.4-25.8 88.6-64 110.8zM832 48c-44.2 0-80 35.8-80 80s35.8 80 80 80 80-35.8 80-80-35.8-80-80-80z" />
<glyph unicode="&#xe98c;" glyph-name="git-merge" d="M768 512c-47.4 0-88.8-25.8-110.8-64-36.6 1-104.8 8.2-151 36.2-64.6 38.8-129.2 106.2-174 181 31.4 23.4 52 60.6 52 102.8 0 70.6-57.4 128-128 128s-128.2-57.4-128.2-128c0-47.4 25.8-88.6 64-110.8v-418.4c-38.2-22.2-64-63.4-64-110.8 0-70.6 57.4-128 128-128s128 57.4 128 128c0 47.4-25.8 88.6-64 110.8v232.8c37.4-38.8 78.2-72 120-97.2 77.6-46.8 174-53.8 217.2-54.6 22.2-38.2 63.4-63.8 110.8-63.8 70.6 0 128 57.4 128 128s-57.4 128-128 128zM176 768c0 44.2 35.8 80 80 80s80-35.8 80-80-35.8-80-80-80-80 35.8-80 80zM336 128c0-44.2-35.8-80-80-80s-80 35.8-80 80 35.8 80 80 80 80-35.8 80-80zM768 304c-44.2 0-80 35.8-80 80s35.8 80 80 80 80-35.8 80-80-35.8-80-80-80z" />
<glyph unicode="&#xe98d;" glyph-name="git-network" d="M896 768c0 70.6-57.4 128-128 128s-128-57.4-128-128c0-47.2 25.8-88.6 64-110.8v-105.6l-192-96-192 96v105.6c38.2 22.2 64 63.6 64 110.8 0 70.6-57.4 128-128 128s-128-57.4-128-128c0-47.2 25.8-88.6 64-110.8v-184.8l256-128v-105.6c-38.2-22.2-64-63.6-64-110.8 0-70.6 57.4-128 128-128s128 57.4 128 128c0 47.2-25.8 88.6-64 110.8v105.6l256 128v184.8c38.2 22.2 64 63.6 64 110.8zM256 848c44.2 0 80-35.8 80-80s-35.8-80-80-80-80 35.8-80 80 35.8 80 80 80zM512 48c-44.2 0-80 35.8-80 80s35.8 80 80 80 80-35.8 80-80-35.8-80-80-80zM768 688c-44.2 0-80 35.8-80 80s35.8 80 80 80 80-35.8 80-80-35.8-80-80-80z" />
<glyph unicode="&#xe98e;" glyph-name="git-pull-request" d="M832 206.8v339.6c0 92.8-7.4 141.6-44.2 188-39.8 50.2-90 71.6-167.8 71.6h-44v122l-192-192 192-192v130h44c49.2 0 58-7.2 67.6-19.2 11-13.8 16.4-38.2 16.4-108.4v-339.6c-38.2-22.2-64-63.4-64-110.8 0-70.6 57.4-128 128-128s128 57.4 128 128c0 47.4-25.8 88.6-64 110.8zM768 16c-44.2 0-80 35.8-80 80s35.8 80 80 80 80-35.8 80-80-35.8-80-80-80zM256 864c-70.6 0-128-57.4-128-128 0-47.4 25.8-88.6 64-110.8v-418.4c-38.2-22.2-64-63.4-64-110.8 0-70.6 57.4-128 128-128s128 57.4 128 128c0 47.4-25.8 88.6-64 110.8v418.4c38.2 22.2 64 63.4 64 110.8 0 70.6-57.4 128-128 128zM256 16c-44.2 0-80 35.8-80 80s35.8 80 80 80 80-35.8 80-80-35.8-80-80-80zM256 656c-44.2 0-80 35.8-80 80s35.8 80 80 80 80-35.8 80-80-35.8-80-80-80z" />
<glyph unicode="&#xe98f;" glyph-name="glasses" d="M960 608h-896v-96h22l10-43c32-135 81-181 192-181s192 34.8 192 181v43c0 0 3 32 32 32s32-32 32-32v-43.6c0-146 84.2-180.4 194-180.4s158 50 190 180.4l10 43.6h22v96z" />
<glyph unicode="&#xe990;" glyph-name="globe" d="M512 864c-229.752 0-416-186.25-416-416s186.248-416 416-416c229.75 0 416 186.25 416 416s-186.25 416-416 416zM468.902 94.002c-78.928 9.452-151.956 44.784-209.038 101.864-67.348 67.348-104.436 156.89-104.436 252.134 0 85.74 30.072 166.848 85.202 231.318 1.42-17.034 4.926-35.296 4.028-48.35-3.28-47.59-7.976-77.374 19.88-117.524 10.852-15.638 13.518-38.056 18.8-56.156 5.166-17.708 25.804-26.996 40.038-37.906 28.718-22.018 56.192-47.61 86.644-66.988 20.098-12.79 32.652-19.152 26.766-43.678-4.734-19.724-6.056-31.874-16.26-49.446-3.114-5.362 11.754-39.836 16.702-44.784 14.996-14.994 29.876-28.75 46.222-42.25 25.342-20.938-2.462-48.144-14.548-78.234zM764.134 195.866c-51.266-51.266-115.398-84.972-185.112-98.162 9.88 24.432 27.472 46.14 43.79 58.724 14.194 10.952 31.972 32.018 39.386 48.704 7.408 16.664 17.222 31.11 27.154 46.434 14.13 21.798-34.838 54.672-50.706 61.562-35.708 15.502-62.588 36.42-94.322 58.75-22.61 15.908-68.514-8.308-94.040 2.834-34.962 15.266-63.766 41.792-94.156 64.678-31.36 23.618-29.844 51.152-29.844 85.994 24.564-0.906 59.508 6.798 75.816-12.956 5.146-6.234 22.84-34.084 34.684-24.188 9.676 8.086-7.17 40.498-10.424 48.118-10.010 23.43 22.808 32.568 39.606 48.456 21.92 20.728 68.94 53.236 65.224 68.094s-47.048 56.954-72.498 50.386c-3.814-0.984-37.394-36.194-43.882-41.718 0.172 11.492 0.344 22.982 0.52 34.474 0.11 7.256-13.536 14.704-12.902 19.384 1.6 11.828 34.524 33.294 42.714 42.714-5.738 3.586-25.318 20.404-31.244 17.936-14.348-5.98-30.552-10.1-44.9-16.078 0 4.976-0.604 9.65-1.324 14.266 28.752 12.73 59.174 21.582 90.62 26.304l28.168-11.32 19.888-23.602 19.848-20.466 17.35-5.59 27.558 25.99-7.106 18.554v16.678c54.5-7.916 105.968-28.248 151.044-59.6-8.064-0.722-16.926-1.908-26.924-3.18-4.13 2.44-9.428 3.548-13.93 5.246 13.062-28.084 26.686-55.78 40.528-83.492 14.786-29.602 47.586-61.354 53.346-92.602 6.788-36.832 2.078-70.288 5.792-113.622 3.576-41.73 47.048-89.144 47.048-89.144s20.074-6.838 36.768-4.456c-15.562-61.566-47.466-118.028-93.538-164.104z" />
<glyph unicode="&#xe991;" glyph-name="grid" d="M819.2 832h-614.4c-42.2 0-76.8-34.6-76.8-76.8v-614.4c0-42.2 34.6-76.8 76.8-76.8h614.4c42.2 0 76.8 34.6 76.8 76.8v614.4c0 42.2-34.6 76.8-76.8 76.8zM358.4 140.8h-153.6v153.6h153.6v-153.6zM358.4 371.2h-153.6v153.6h153.6v-153.6zM358.4 601.6h-153.6v153.6h153.6v-153.6zM588.8 140.8h-153.6v153.6h153.6v-153.6zM588.8 371.2h-153.6v153.6h153.6v-153.6zM588.8 601.6h-153.6v153.6h153.6v-153.6zM819.2 140.8h-153.6v153.6h153.6v-153.6zM819.2 371.2h-153.6v153.6h153.6v-153.6zM819.2 601.6h-153.6v153.6h153.6v-153.6z" />
<glyph unicode="&#xe992;" glyph-name="hammer" d="M948.2 163.6l-488.6 460.8c0 0 17.6 115.4 52.4 143.6 35 28.4 96 64 96 64v64c-64 0-117.6-16.6-193.8-54.6-76-37.8-133.6-95.6-148.8-110.8s-36.2-39-49.4-57.8-10.6-40.2-10.6-40.2l-39.4-34-8 8c-4.6 4.6-12.4 4.6-17 0l-73.6-73.6c-4.6-4.6-4.6-12.4 0-17l118.8-118.8c4.6-4.6 12.4-4.6 17 0l73.6 73.6c4.6 4.6 4.6 12.4 0 17l-20.6 20.6 29.2 28.6c13.6 7.4 50.8 17.8 78.2 10.2l429.8-534.6c16.2-16.4 40.6-16.4 57 0l93.6 94.2c20.6 16 20.6 44.6 4.2 56.8z" />
<glyph unicode="&#xe993;" glyph-name="hand" d="M901.358 413c-29.17 29.154-72.108 31.78-101.278 2.624l-83.374-83.328c-21.704-21.672-47.86-21.718-63.128-3.704-10.114 11.936-6.122 48.748-3.288 72.098l41.814 343.698c3.734 30.706-18.14 60.37-48.86 64.102-30.716 3.734-58.644-19.878-62.382-50.578l-46.122-269.954c-2.41-6.716-7.58-7.876-8.162 1.164l-15.698 350.878c0 30.93-25.084 56-56.028 56-30.946 0-56.030-25.070-56.030-56l-1.104-353.504c0.292-4.080-3.208-5.248-3.84-0.588l-49.846 275.938c-5.5 30.438-34.646 52.406-65.096 46.906-30.454-5.496-50.678-36.374-45.182-66.806l44.386-322.91c0.046-5.744-1.882-9.026-4.616-1.662l-66.218 177.034c-10.36 29.144-42.392 46.13-71.552 35.778-29.158-10.354-44.402-44.122-34.046-73.262l116.084-379.25c0.606-2.092 1.248-4.17 1.906-6.236l0.242-0.78c0.022-0.062 0.050-0.116 0.070-0.176 32.148-98.948 125.13-170.482 234.844-170.482 70.232 0 143.182 24.756 198.714 67.344 0.002 0 0.006 0.004 0.006 0.004 59.98 36.102 252.142 242.694 252.142 242.694 29.174 29.154 24.816 73.798-4.358 102.958z" />
<glyph unicode="&#xe994;" glyph-name="happy" d="M512 864c-230.874 0-416-187.2-416-416s185.126-416 416-416 416 187.2 416 416c0 228.8-187.198 416-416 416zM512 115.2c-183.036 0-332.808 149.766-332.808 332.8 0 183.036 149.774 332.8 332.808 332.8s332.808-149.764 332.808-332.8c0-183.036-149.772-332.8-332.808-332.8zM657.6 489.6c35.366 0 62.402 27.036 62.402 62.4s-27.038 62.4-62.402 62.4c-35.364 0-62.4-27.036-62.4-62.4s27.036-62.4 62.4-62.4zM366.4 489.6c35.364 0 62.4 27.036 62.4 62.4s-27.038 62.4-62.4 62.4c-35.366 0-62.402-27.036-62.402-62.4s27.038-62.4 62.402-62.4zM512 219.2c97.766 0 178.872 60.328 212.162 145.602h-424.324c33.29-85.274 114.396-145.602 212.162-145.602z" />
<glyph unicode="&#xe995;" glyph-name="headset" d="M512 864c-212 0-384-176.4-384-394.2v-306.6c0-72.6 57.2-131.4 128-131.4h128v352.2h-170.6v85.8c0 169.4 133.6 306.6 298.6 306.6s298.6-137 298.6-306.6v-85.8h-170.6v-352h128c70.8 0 128 58.6 128 131.4v306.4c0 217.8-172 394.2-384 394.2z" />
<glyph unicode="&#xe996;" glyph-name="heart-dislike" d="M103.8 806.8l50-50c-36.2-40.6-58-94.6-58-155.2 0-159 141.4-286.6 355.6-483.4l60.6-54.2 60.4 54.4c41.2 37.8 79.8 73.2 115 106.6l184.4-184 48 48-767.6 766-48.4-48.2zM928 601.8c0 129.8-99.8 230.2-228.8 230.2-72.8 0-141.4-33.4-187.2-87.8-45.8 54.4-114.4 87.8-187.2 87.8-16.8 0-33-1.8-48.6-5l507.4-506.2c91 97.4 144.4 183.2 144.4 281z" />
<glyph unicode="&#xe997;" glyph-name="heart-empty" d="M699.2 832c-72.8 0-141.4-33.4-187.2-87.8-45.8 54.4-114.4 87.8-187.2 87.8-129 0-228.8-100.4-228.8-230.2 0-159 141.4-286.6 355.6-483.4l60.4-54.4 60.4 54.4c214.2 196.8 355.6 324.4 355.6 483.4 0 129.8-99.8 230.2-228.8 230.2zM537.6 173.4l-8.4-7.8-17.2-15.6-17.2 15.6-8.4 7.8c-100.8 92.6-188 172.6-245.4 244-56 69.4-80.8 126.2-80.8 184.4 0 45.8 16.8 87.8 47.4 118.6 30.4 30.8 72 47.6 117.2 47.6 52.2 0 104-24.4 138.2-65l49-58.2 49 58.2c34.2 40.8 86 65 138.2 65 45.2 0 86.8-16.8 117.4-47.6s47.4-73 47.4-118.6c0-58-25-115-80.8-184.4-57.6-71.4-144.6-151.4-245.6-244z" />
<glyph unicode="&#xe998;" glyph-name="heart-half" d="M699.2 832c-72.8 0-141.4-33.4-187.2-87.8-45.8 54.4-114.4 87.8-187.2 87.8-129 0-228.8-100.4-228.8-230.2 0-159 141.4-286.6 355.6-483.4l60.4-54.4 60.4 54.4c214.2 196.8 355.6 324.4 355.6 483.4 0 129.8-99.8 230.2-228.8 230.2zM512 148v496.6l49 58.2c34.2 40.8 86 65 138.2 65 45.2 0 86.8-16.8 117.4-47.6s47.4-73 47.4-118.6c0-58-25-115-80.8-184.4-57.6-71.2-170.4-176.6-271.2-269.2z" />
<glyph unicode="&#xe999;" glyph-name="heart" d="M512 64l-60.328 54.422c-214.236 196.694-355.672 324.358-355.672 483.388 0 129.748 99.836 230.19 228.8 230.19 72.798 0 141.434-33.484 187.2-87.894 45.764 54.41 114.398 87.894 187.2 87.894 128.964 0 228.8-100.442 228.8-230.19 0-159.032-141.438-286.696-355.672-483.388l-60.328-54.422z" />
<glyph unicode="&#xe99a;" glyph-name="help-buoy" d="M512 864c-229.8 0-416-186.2-416-416s186.2-416 416-416 416 186.2 416 416-186.2 416-416 416zM634 152l-24.4 79.2c26 11.6 49.8 28 70.6 48.8s37.2 44.6 48.8 70.6l79-24.2c-15.8-38.6-39.4-74-69.8-104.4-30.2-30.6-65.6-54.2-104.2-70zM390 744l24.4-79.2c-26-11.6-49.8-28-70.6-48.8s-37.2-44.6-48.8-70.6l-79 24.2c15.8 38.6 39.4 74 69.8 104.4 30.2 30.6 65.6 54.2 104.2 70zM512 576c70.6 0 128-57.4 128-128s-57.4-128-128-128-128 57.4-128 128c0 70.6 57.4 128 128 128zM738.2 674.2c30.4-30.4 53.8-65.8 69.8-104.2l-79-24.4c-11.8 26-28 49.8-48.8 70.6s-44.6 37.2-70.6 48.8l24.2 79c38.6-15.8 74-39.4 104.4-69.8zM285.8 221.8c-30.4 30.2-54 65.6-69.8 104.2l79 24.4c11.8-26 28-49.8 48.8-70.6s44.6-37.2 70.6-48.8l-24.2-79c-38.6 15.8-74 39.4-104.4 69.8z" />
<glyph unicode="&#xe99b;" glyph-name="help-circle-outline" d="M512 780c88.6 0 172-34.6 234.8-97.2 62.6-62.8 97.2-146.2 97.2-234.8s-34.6-172-97.2-234.8c-62.8-62.6-146.2-97.2-234.8-97.2s-172 34.6-234.8 97.2c-62.6 62.8-97.2 146.2-97.2 234.8s34.6 172 97.2 234.8c62.8 62.6 146.2 97.2 234.8 97.2zM512 864c-229.8 0-416-186.2-416-416s186.2-416 416-416 416 186.2 416 416-186.2 416-416 416v0zM470 282h84v-84h-84v84zM553.6 324h-83.2c0 134 124.8 124.4 124.8 207.6 0 45.8-37.4 83.4-83.2 83.4s-83.2-39-83.2-83h-83.2c0 92 74.4 166 166.4 166s166.4-74.2 166.4-166.2c0-104-124.8-115.8-124.8-207.8z" />
<glyph unicode="&#xe99c;" glyph-name="help-circle" d="M512 864c-229.6 0-416-186.4-416-416s186.4-416 416-416 416 186.4 416 416-186.4 416-416 416zM554 198h-84v84h84v-84zM553.6 324h-83.2c0 134 124.8 124.4 124.8 207.6 0 45.8-37.4 83.4-83.2 83.4s-83.2-39-83.2-83h-83.2c0 92 74.4 166 166.4 166s166.4-74.2 166.4-166.2c0-104-124.8-115.8-124.8-207.8z" />
<glyph unicode="&#xe99d;" glyph-name="help" d="M578 64h-132v130h132v-130zM576 260h-128c0 202 192 190.2 192 318 0 70.4-57.6 126.8-128 126.8s-128-60.8-128-128.8h-128c0 142 114.6 256 256 256s256-112.8 256-254c0-159.8-192-178-192-318z" />
<glyph unicode="&#xe99e;" glyph-name="home" d="M416 64v256h192v-256h195.2v384h124.8l-416 384-416-384h124.8v-384z" />
<glyph unicode="&#xe99f;" glyph-name="hourglass" d="M256 864v-245.6h0.4l-0.4-0.4 170.6-170-170.6-170.4 0.4-0.4h-0.4v-245.2h512v245.2h-0.4l0.4 0.4-170.6 170.4 170.6 170-0.4 0.4h0.4v245.6h-512zM682.6 256.2v-143h-341.2v143l170.6 170.4 170.6-170.4zM512 469.2l-170.6 170.4v145.2h341.4v-145l-170.8-170.6z" />
<glyph unicode="&#xe9a0;" glyph-name="ice-cream" d="M256.2 448l256-448 256 448zM784 638c6 18 9.4 45.4 9.4 65.8 0 106.2-86 192.2-192.2 192.2-62.8 0-118.4-30-153.6-76.6 0 0-18.2-28-21.6-58l-6.8 2c-4.6 18-7.4 40 3.2 63-14.8 5-18.8 5.6-35.2 5.6-83.4 0-151.2-67.6-151.2-151.2 0-12.6 1.6-31 4.6-42.8-27.8-7-48.6-32.2-48.6-62v0c0-35.2 28.8-64 64-64h512c35.2 0 64 28.8 64 64v0c0 29.6-20.4 54.8-48 62z" />
<glyph unicode="&#xe9a1;" glyph-name="image" d="M896 149.334v597.332c0 46.938-38.396 85.334-85.334 85.334h-597.332c-46.938 0-85.334-38.396-85.334-85.334v-597.332c0-46.938 38.396-85.334 85.334-85.334h597.332c46.938 0 85.334 38.396 85.334 85.334zM362.666 384l106.668-128 149.332 192 192-256h-597.332l149.332 192z" />
<glyph unicode="&#xe9a2;" glyph-name="images" d="M915.2 679.6l-165 8-9.6 107.6c-2 22.6-22.2 38.4-45.8 36.6l-591.8-48.6c-23.6-2-40.6-21-38.8-43.4l42.4-471.6c2-22.6 22.4-38.4 45.8-36.6l30 2.4-4.8-91.6c-1.2-25.2 18.4-45.6 44.8-47l660.2-31.4c26.4-1.2 48.2 17.2 49.6 42.4l27.8 526.6c1.2 25-18.6 45.4-44.8 46.6zM205.4 669l-14.2-269.6-35-49.4-32.2 356c0 0.4 0 0.6 0 1s0 0.6 0 1c2 10 8.8 18 19.2 18.8l522 42.8c10.4 0.8 19.4-6 21-15.8 0-0.4 0.6-0.4 0.6-0.8 0-0.2 0.6-0.4 0.6-0.8l5.4-61.6-438 21c-26.4 0.8-48.2-17.6-49.4-42.6zM873.4 195.2l-169.6 199-74.8-68.6-138.4 161.6-245.4-261.4 20.8 398.2c0 0 0 0.6 0 0.8 2 10.8 12.4 18.6 23.8 18l582.4-28c11.6-0.6 20.6-9.4 20.8-20.4 0-0.4 0.6-0.6 0.6-1l-20.2-398.2zM768 448c35.2 0 64 28.8 64 64s-28.6 64-64 64c-35.2 0-64-28.6-64-64s28.6-64 64-64z" />
<glyph unicode="&#xe9a3;" glyph-name="infinite" d="M869.4 584c-37.6 36-87.6 56-141 56-53.2 0-103.2-19.8-140.8-55.8l-35.2-31.8 66.2-64.2 34.2 31c20.2 19.2 47 30 75.4 30s55.2-10.6 75.4-29.8c20-19.2 30.8-44.6 30.8-71.6s-11-52.2-30.8-71.2c-20.2-19.2-47-30-75.4-30s-55.2 10.6-75.4 29.8l-216.4 207.6c-37.8 36-87.8 56-140.8 56-53.4 0-103.4-19.8-141-56-37.8-36.2-58.6-84.4-58.6-136 0-51.4 20.8-99.8 58.6-136 37.6-36 87.6-56 141-56s103.4 19.8 140.8 56l75.6 72.2 75.4-72.2c37.8-36 87.8-56 140.8-56 53.4 0 103.4 19.8 140.8 55.8 38 36.2 58.8 84.4 58.8 136 0.2 51.6-20.6 100-58.4 136.2zM371 376.6c-20.2-19.2-47-30-75.4-30s-55.2 10.6-75.4 29.8c-20 19.2-30.8 44.6-30.8 71.6s11 52.2 30.8 71.2c20.2 19.2 47 30 75.4 30s55.2-10.6 75.4-29.8l74.8-71.6-74.8-71.2z" />
<glyph unicode="&#xe9a4;" glyph-name="information-circle-outline" d="M512 780c88.6 0 172-34.6 234.8-97.2 62.6-62.8 97.2-146.2 97.2-234.8s-34.6-172-97.2-234.8c-62.8-62.6-146.2-97.2-234.8-97.2s-172 34.6-234.8 97.2c-62.6 62.8-97.2 146.2-97.2 234.8s34.6 172 97.2 234.8c62.8 62.6 146.2 97.2 234.8 97.2zM512 864c-229.8 0-416-186.2-416-416s186.2-416 416-416 416 186.2 416 416-186.2 416-416 416v0zM554 240h-84v250h84v-250zM554 572h-84v84h84v-84z" />
<glyph unicode="&#xe9a5;" glyph-name="information-circle" d="M512 864c-229.6 0-416-186.4-416-416s186.4-416 416-416 416 186.4 416 416c0 229.6-186.4 416-416 416zM554 240h-84v250h84v-250zM554 572h-84v84h84v-84z" />
<glyph unicode="&#xe9a6;" glyph-name="information" d="M464 490h96v-274h-96v274zM464 680h96v-96h-96v96z" />
<glyph unicode="&#xe9a7;" glyph-name="jet" d="M960 896c0 0-46.8 1.4-118.6-54.2-33.4-25.8-351.6-255.4-351.6-255.4l-337.6 8.4-88.2-78.8 219.6-110.4-17.2-21.6-175.8-0.2-14.4-81 126.2-97.4-53.2-119.6 120 52.8 97.4-126.2 81 14.4 0.2 175.6 21.8 17 110.6-219.4 78.6 88.2-8.4 337.4c0 0 229.8 318 255.6 351.2 55.4 72.2 54 119.2 54 119.2z" />
<glyph unicode="&#xe9a8;" glyph-name="journal" d="M234.6 874.6c-35.2 0-64-28.8-64-64v-725.4c0-35.2 28.8-64 64-64h405.4v853.4h-405.4zM769.4 874.6h-33.4v-853.4h33.4c46.2 0 84 37.8 84 84v685.4c0 46.2-37.8 84-84 84z" />
<glyph unicode="&#xe9a9;" glyph-name="key" d="M498.4 512c-28.4 80.4-110.2 144-200.4 144-114.4 0-202-93.6-202-208s91.6-208 206-208c90.2 0 168.2 63.6 196.4 144h205.6v-128h138.2v128h85.8v128h-429.6zM303.2 379c-38 0-69 31-69 69s31 69 69 69 69-31 69-69-31-69-69-69z" />
<glyph unicode="&#xe9aa;" glyph-name="keypad" d="M512 163c-44.6 0-81-36.6-81-81.4s36.4-81.4 81-81.4 81 36.6 81 81.4c0 44.6-36.4 81.4-81 81.4zM273 896c-44.6 0-81-36.6-81-81.4s36.4-81.4 81-81.4 81 36.6 81 81.4-36.4 81.4-81 81.4zM273 651.6c-44.6 0-81-36.6-81-81.4s36.4-81.4 81-81.4 81 36.6 81 81.4-36.4 81.4-81 81.4zM273 407.2c-44.6 0-81-36.6-81-81.4s36.4-81.4 81-81.4 81 36.6 81 81.4c0 44.8-36.4 81.4-81 81.4zM751 733c44.6 0 81 36.6 81 81.4s-36.4 81.6-81 81.6-81-36.6-81-81.4 36.4-81.6 81-81.6zM512 407.2c-44.6 0-81-36.6-81-81.4s36.4-81.4 81-81.4 81 36.6 81 81.4c0 44.8-36.4 81.4-81 81.4zM751 407.2c-44.6 0-81-36.6-81-81.4s36.4-81.4 81-81.4 81 36.6 81 81.4c0 44.8-36.4 81.4-81 81.4zM751 651.6c-44.6 0-81-36.6-81-81.4s36.4-81.4 81-81.4 81 36.6 81 81.4-36.4 81.4-81 81.4zM512 651.6c-44.6 0-81-36.6-81-81.4s36.4-81.4 81-81.4 81 36.6 81 81.4-36.4 81.4-81 81.4zM512 896c-44.6 0-81-36.6-81-81.4s36.4-81.4 81-81.4 81 36.6 81 81.4-36.4 81.4-81 81.4z" />
<glyph unicode="&#xe9ab;" glyph-name="laptop" d="M874.668 128c46.938 0 85.332 38.394 85.332 85.332v533.332c0 46.938-38.394 85.336-85.332 85.336h-725.336c-46.938 0-85.332-38.398-85.332-85.336v-533.332c0-46.938 38.394-85.332 85.332-85.332h-149.332c0-46.938 128-64 192-64h640c64 0 192 17.062 192 64h-149.332zM149.332 746.664h725.336v-543.996h-725.336v543.996zM512 90.668c-23.458 0-42.666 19.208-42.666 42.668 0 23.458 19.208 42.664 42.666 42.664s42.666-19.208 42.666-42.664c0-23.46-19.208-42.668-42.666-42.668z" />
<glyph unicode="&#xe9ac;" glyph-name="leaf" d="M832 384.8c0 333.4-320 511.2-320 511.2s-320-177.8-320-511.2c0-237.6 162.6-281 256-286.4v-98.4h128v98.6c93.4 5.2 256 48.6 256 286.2z" />
<glyph unicode="&#xe9ad;" glyph-name="link" d="M149.2 448c0 76.6 62.2 138.8 138.8 138.8h176v85.2h-176c-123.6 0-224-100.4-224-224s100.4-224 224-224h176v85.2h-176c-76.6 0-138.8 62.2-138.8 138.8zM320 404h384v88h-384v-88zM736 672h-176v-85.2h176c76.6 0 138.8-62.2 138.8-138.8s-62.2-138.8-138.8-138.8h-176v-85.2h176c123.6 0 224 100.4 224 224s-100.4 224-224 224z" />
<glyph unicode="&#xe9ae;" glyph-name="list-box" d="M816 832h-608c-44.182 0-80-35.816-80-80v-608c0-44.184 35.818-80 80-80h608c44.184 0 80 35.816 80 80v608c0 44.184-35.816 80-80 80zM608 224h-320v96h320v-96zM736 400h-448v96h448v-96zM736 576h-448v96h448v-96z" />
<glyph unicode="&#xe9af;" glyph-name="list" d="M160 400h512v-96h-512v96zM160 592h640v-96h-640v96zM160 784h704v-96h-704v96zM160 208h576v-96h-576v96z" />
<glyph unicode="&#xe9b0;" glyph-name="locate" d="M512 608c-88.008 0-160.002-72-160.002-160 0-88.008 71.994-160 160.002-160 88.010 0 159.998 71.992 159.998 160 0 88-71.988 160-159.998 160zM893.876 490.666c-19.21 177.062-162.148 320-339.21 339.198v66.136h-85.332v-66.134c-177.062-19.198-320-162.136-339.208-339.198h-66.126v-85.334h66.124c19.208-177.062 162.144-320 339.208-339.208v-66.126h85.332v66.124c177.062 19.208 320 162.146 339.21 339.208h66.126v85.334h-66.124zM512 149.334c-164.274 0-298.668 134.396-298.668 298.666 0 164.272 134.394 298.666 298.668 298.666 164.27 0 298.664-134.396 298.664-298.666s-134.394-298.666-298.664-298.666z" />
<glyph unicode="&#xe9b1;" glyph-name="lock" d="M752 588h-40v80c0 110-90 200-200 200s-200-90-200-200v-80h-40c-44.004 0-80-35.996-80-80v-400c0-44.004 35.996-80 80-80h480c44.004 0 80 35.996 80 80v400c0 44.004-35.996 80-80 80zM512 224c-44.004 0-80 35.996-80 80s35.996 80 80 80 80-35.996 80-80-35.996-80-80-80zM636.004 588h-248.008v80c0 68.008 56.006 124.004 124.004 124.004 68.008 0 124.004-55.996 124.004-124.004v-80z" />
<glyph unicode="&#xe9b2;" glyph-name="log-in" d="M512 864c-85.8 0-168.4-26-238.4-75-68.4-48-120.4-114.4-150.2-192.2l-7.4-20.8h91.4l3.8 10c16.4 35.6 38.8 67.8 67 96 62.4 62.4 145.4 96.8 233.8 96.8s171.4-34.4 233.8-96.8c62.4-62.4 96.8-145.4 96.8-233.8 0-88.2-34.4-171.4-96.8-233.8s-145.4-96.8-233.8-96.8c-88.2 0-171.2 34.4-233.8 96.8-28 28-50.6 60.2-67 95.8l-3.8 10h-91.4l7.2-20.8c29.8-77.8 81.8-144.2 150.2-192.2 70.2-49.4 152.6-75.2 238.6-75.2 229.4 0 416 186.6 416 416s-186.6 416-416 416zM96 405.2h379.4l-87.2-89.4 59.8-59.8 192 192-192 192-62-59.8 89.4-89.4h-379.4v-85.6z" />
<glyph unicode="&#xe9b3;" glyph-name="log-out" d="M384 405.2h379.4l-87.2-89.4 59.8-59.8 192 192-192 192-62-59.8 89.4-89.4h-379.4v-85.6zM511.4 117.4c-88.2 0-171 34.4-233.4 96.8s-96.6 145.4-96.6 233.8c0 88.2 34.4 171.4 96.6 233.8 62.4 62.4 145.2 96.8 233.4 96.8 88 0 170.6-34.2 233-96.4l60.6 60.6c-17 16.8-35.6 32.4-55.4 46.4-70.2 48.8-152.4 74.8-238.2 74.8-229 0-415.4-186.6-415.4-416s186.4-416 415.4-416c85.8 0 168 26 238 75 20 14 38.4 29.4 55.4 46.4l-60.4 60.4c-62.2-62.2-145-96.4-233-96.4zM896.008 446.306l-1.697 1.697 1.697 1.697 1.697-1.697-1.697-1.697z" />
<glyph unicode="&#xe9b4;" glyph-name="magnet" d="M767.2 762.4c-63 66-151.2 101.2-255.2 101.6-103.8-0.4-192-35.6-255-101.6-63.4-66.4-97-160-97-270.4 0-87 3.6-138.4 25.8-231.6 0 0 45.4-151.4 71-208.2 7-15.6 14.8-23.6 31-18.6 12.8 4 93.6 35.8 109.4 43.2 15.8 7.2 23.2 17.2 17.8 30.4-7.6 18.4-67.8 191.2-67.8 191.2-16.8 72.6-23.2 107.8-23.2 188.6 0 56.4 19.6 108.2 55.4 145.8 35 36.6 82 56.8 132.6 56.8s97.6-20.2 132.6-56.8c35.8-37.6 55.4-89.2 55.4-145.6 0-80-6.4-128-23.4-188.8s-64.4-180.2-67.8-191.2c-3.4-11.2 4.2-25 17.8-30.4s98.6-39.2 109.4-43.2c10.8-4 21.2-1.2 29 15.4 8 16.6 49.2 122.8 73 211.4 24 88.6 26 144.6 26 231.6 0 110.4-33.4 203.8-96.8 270.4zM346.2 120.6l-45.8-19.2c-13.8 32.6-34.4 86.4-51.8 154.4l44 13 53.6-148.2zM723.4 101.4l-45.8 19.2c14.4 33.2 38.2 90.2 53.2 148.2l44-13c-16.8-67.8-37.4-121.8-51.4-154.4z" />
<glyph unicode="&#xe9b5;" glyph-name="mail-open" d="M960 556.666c0 29.866-14.938 57.606-40.542 72.532l-407.458 202.802-407.458-202.802c-23.48-14.926-40.542-42.666-40.542-72.532v-407.332c0-46.938 38.394-85.334 85.332-85.334h725.336c46.938 0 85.332 38.396 85.332 85.334v407.332zM512 352l-342.738 224 342.738 170.666 342.738-170.666-342.738-224z" />
<glyph unicode="&#xe9b6;" glyph-name="mail-unread" d="M992 704c0-70.692-57.308-128-128-128s-128 57.308-128 128c0 70.692 57.308 128 128 128s128-57.308 128-128zM765.8 553.2l-253.8-169.2-352 234.6v85.4l352-234.6 202.2 134.8c-19 28.6-30.2 63-30.2 99.8 0 35.2 10.2 68.2 27.8 96h-562.4c-47 0-85.4-38.4-85.4-85.4v-533.4c0-47 38.4-85.4 85.4-85.4h725.4c47 0 85.4 38.4 85.4 85.4v370.6c-27.8-17.6-60.8-27.8-96-27.8-36.4 0-70.2 10.8-98.4 29.2z" />
<glyph unicode="&#xe9b7;" glyph-name="mail" d="M874.664 800h-725.328c-46.938 0-85.336-38.396-85.336-85.334v-533.332c0-46.938 38.398-85.334 85.336-85.334h725.328c46.938 0 85.336 38.396 85.336 85.334v533.332c0 46.938-38.398 85.334-85.336 85.334zM864 618.666l-352-234.666-352 234.666v85.334l352-234.666 352 234.666v-85.334z" />
<glyph unicode="&#xe9b8;" glyph-name="male" d="M832 864h-256v-96h188.2l-213.4-213.2c-47 33.4-104.6 53.2-166.8 53.2-159 0-288-129-288-288s129-288 288-288 288 129 288 288c0 62.2-19.8 119.8-53.2 166.8l213.2 213.4v-188.2h96v352h-96zM384 128c-105.8 0-192 86.2-192 192s86.2 192 192 192 192-86.2 192-192-86.2-192-192-192z" />
<glyph unicode="&#xe9b9;" glyph-name="man" d="M512 746.8c41.2-0.2 74.6 33.2 74.6 74.6 0 41.2-33.4 74.6-74.6 74.6s-74.6-33.4-74.6-74.6c0-41.2 33.4-74.6 74.6-74.6zM586.8 730h-149.6c-56.4 0-93.2-49.6-93.2-96.8v-227.2c0-44 62-44 62 0v210h12v-571.2c0-60.8 84-58.8 86 0v329.2h16v-329.4c3.4-62.4 86-56.4 86 0.2v571.2h10v-210c0-44 64-44 64 0v227.2c0 47-37 96.8-93.2 96.8z" />
<glyph unicode="&#xe9ba;" glyph-name="map" d="M874.666 832c-4.352 0-8.792-2.738-18.352-6.414s-216.314-83.19-216.314-83.19l-256 89.604-241.062-81.062c-8.544-2.146-14.938-10.666-14.938-21.332v-644.272c0-12.792 8.542-21.334 21.332-21.334 3.656 0 13.010 4.66 18.174 6.638s216.494 82.968 216.494 82.968l256-89.606 241.062 81.062c8.542 2.146 14.938 10.668 14.938 21.334v644.272c0 12.79-8.542 21.332-21.334 21.332zM640 149.334l-256 89.604v507.73l256-89.606v-507.728z" />
<glyph unicode="&#xe9bb;" glyph-name="medal" d="M547 655.8h-451l108.2 207.8h481.4zM685.6 205.6c0-95.656-77.544-173.2-173.2-173.2s-173.2 77.544-173.2 173.2c0 95.656 77.544 173.2 173.2 173.2s173.2-77.544 173.2-173.2zM697.8 361.8l230.2 294-138.6 207.8-276.6-415.6c64.6 0 125.4-25.4 171-71 5-5 9.6-10 14-15.2zM411.6 426.8l-107 161.2h-207.8l180.2-323c10.4 42.4 32.2 81.2 64 112.8 20.8 20.6 44.6 37.2 70.6 49z" />
<glyph unicode="&#xe9bc;" glyph-name="medical" d="M703.8 448l216.2 124.8-96 166.4-216-124.8v249.6h-192v-249.6l-216 124.8-96-166.4 216.2-124.8-216.2-124.8 96-166.4 216 124.8v-249.6h192v249.6l216-124.8 96 166.4z" />
<glyph unicode="&#xe9bd;" glyph-name="medkit" d="M704 672v79.2c0 44.8-36 80.8-80.8 80.8h-222.4c-44.8 0-80.8-36-80.8-80.8v-79.2h-224v-527.2c0-44.8 36-80.8 80.8-80.8h670.4c44.8 0 80.8 36 80.8 80.8v527.2h-224zM400 752h224v-80h-224v80zM672 304h-112v-112h-96v112h-112v96h112v112h96v-112h112v-96z" />
<glyph unicode="&#xe9be;" glyph-name="megaphone" d="M764.2 673.2l-46.2-46c29.4-29.4 47.8-70.4 47.8-115.2s-18.4-85.8-47.8-115.2l46.2-46.2c41.2 41.2 66.8 98.4 66.8 161.2s-25.6 120.2-66.8 161.4zM856.4 762l-45.4-45.4c52.2-52.2 84.6-124.8 84.6-204.6 0-79.6-32.2-152.2-84.6-204.6l45.4-45.4c63.8 64.2 103.6 152.6 103.6 250s-39.6 185.8-103.6 250zM640 591.8v208.2h-64l-192-160h-256l-64-32v-224l64-32 160-256h96l-60 256h60l192-128h64v208.2c36.8 3.4 64 37.8 64 79.8s-27.2 76.4-64 79.8z" />
<glyph unicode="&#xe9bf;" glyph-name="menu" d="M128 192h768v85.332h-768v-85.332zM128 405.332h768v85.334h-768v-85.334zM128 704v-85.33h768v85.33h-768z" />
<glyph unicode="&#xe9c0;" glyph-name="mic-off" d="M735.902 250.692l-361.902 361.226v-0.692l-221.776 221.712-48.382-48.082 270.158-269.796v-57.632c0-75.58 62.242-137.428 137.82-137.428 17.22 0 33.904 3.24 49.13 9.090l64.778-64.548c-34.666-17.586-73.624-27.72-113.564-27.72-125.972 0-242.73 97.18-242.73 233.18h-77.888c0-154.002 124.454-285.404 274.454-306.028v-163.974h92v163.974c44 6.704 86.132 22.444 123.254 45.244l190.556-190.156 48.066 48-67.694 67.57-116.432 115.918 116.448-115.918-116.296 116.060zM650 457.428v301.144c0 75.58-62.418 137.428-138 137.428s-138-61.848-138-137.428v-50.488l274.218-273.936c1.34 7.582 1.782 15.358 1.782 23.28zM832.878 470h-77.882c0-40.992-10.996-79.352-29.862-112.394l55.144-55.032c33.046 48.22 52.6 105.574 52.6 167.426zM919.998 67.146l-67.794 67.486 67.71-67.57z" />
<glyph unicode="&#xe9c1;" glyph-name="mic" d="M512 320c75.424 0 137.142 61.848 137.142 137.428v301.144c0 75.58-61.718 137.428-137.142 137.428s-137.142-61.848-137.142-137.428v-301.144c0-75.58 61.718-137.428 137.142-137.428zM754.278 470.904c0-137.428-116.564-233.63-242.278-233.63s-242.278 96.204-242.278 233.63h-77.722c0-155.746 123.438-286.306 274.288-306.93v-163.974h91.426v163.974c150.848 22.904 274.286 151.184 274.286 306.93h-77.722z" />
<glyph unicode="&#xe9c2;" glyph-name="microphone" d="M768 736v55.2c0 58-49 104.8-109.6 104.8h-292.6c-60.8 0-109.8-46.8-109.8-104.8v-55.2h304v-74h-304v-86h304v-74h-304v-86h304v-74h-304v-83.6c0-58 49-104.4 109.8-104.4h60.2v-154h172v154h60.4c60.6 0 109.6 46.4 109.6 104.4v83.6h-112v74h112v86h-112v74h112v86h-112v74h112z" />
<glyph unicode="&#xe9c3;" glyph-name="moon" d="M390 710c0 52.6 10.6 102.6 29.8 148.2-182.4-44.2-317.8-208.4-317.8-404.2 0-229.6 186.4-416 416-416 195.8 0 360 135.4 404.2 317.8-45.6-19.2-95.8-29.8-148.2-29.8-212 0-384 172-384 384z" />
<glyph unicode="&#xe9c4;" glyph-name="more" d="M592 688c0 44.004-35.996 80-80 80s-80-35.996-80-80 35.996-80 80-80 80 35.996 80 80zM592 208c0 44.004-35.996 80-80 80s-80-35.996-80-80 35.996-80 80-80 80 35.996 80 80zM592 448c0 44.004-35.996 80-80 80s-80-35.996-80-80 35.996-80 80-80 80 35.996 80 80z" />
<glyph unicode="&#xe9c5;" glyph-name="move" d="M960 448l-192 192v-128h-192v192h128l-192 192-192-192h128v-192h-192v128l-192-192 192-192v128h192v-192h-128l192-192 192 192h-128v192h192v-128z" />
<glyph unicode="&#xe9c6;" glyph-name="musical-note" d="M512 832v-450.2c-25.2 14.6-54.2 23.4-85.4 23.4-94.2 0-170.6-76.4-170.6-170.6s76.4-170.6 170.6-170.6 170.6 76.4 170.6 170.6v426.8h170.8v170.6h-256z" />
<glyph unicode="&#xe9c7;" glyph-name="musical-notes" d="M320 832v-515.2c-16.4 5.4-34.4 8.2-53.2 8.2-76.6 0-138.8-54.2-138.8-130.8s62.2-130.2 138.8-130.2c76.6 0 139.2 56.4 139.2 138.2v357.8h404v-243.2c-16.4 5.4-34.4 8.2-53.2 8.2-76.6 0-138.8-54.2-138.8-130.8s62.2-130.2 138.8-130.2c76.6 0 139.2 56.4 139.2 138.2v629.8h-576zM810 640h-404v106h404v-106z" />
<glyph unicode="&#xe9c8;" glyph-name="navigate" d="M512 832l-320-738.124 29.876-29.876 290.124 128 290.124-128 29.876 29.876z" />
<glyph unicode="&#xe9c9;" glyph-name="notifications-off" d="M512 32.688c45.628 0 82.95 37.312 82.95 83.312h-165.9c0-46 37.322-83.312 82.95-83.312zM262.166 745.656l0.106-0.148-66.092 65.938-48.172-48.212 126.084-126.306c-20.316-37.97-32.092-81.32-32.092-127.068v-229.11l-82-83.312v-41.438h595.486l72.364-72.66 48.158 48.602-24.208 24.058h0.632l-590.266 589.656zM782 509.86c0 127.052-90 235.354-208 262.436v29.156c0 35.412-26.742 62.486-62 62.486-35.256 0-62-27.074-62-62.486v-29.156c-30-6.876-58.096-19.002-83.5-35.326l415.5-415.68v188.57z" />
<glyph unicode="&#xe9ca;" glyph-name="notifications-outline" d="M514 719.058c14.166 0 47.822-8.958 47.822-8.958 91.178-20.894 155.356-104.878 155.356-199.7v-255.224l34.218-34.374h-478.792l34.218 34.374v255.224c0 94.82 64.178 178.806 155.356 199.7 0 0 36.086 8.958 47.822 8.958zM512 864c-35.204 0-62.118-27.036-62.118-62.4v-29.118c-118.030-27.046-207.060-135.202-207.060-262.082v-228.8l-82.822-83.2v-41.6h704v41.6l-82.822 83.2v228.8c0 126.88-89.032 235.036-207.060 262.082v29.118c0 35.364-26.914 62.4-62.118 62.4v0zM594.822 115.2h-165.646c0-45.762 37.266-83.2 82.824-83.2s82.822 37.438 82.822 83.2v0z" />
<glyph unicode="&#xe9cb;" glyph-name="notifications" d="M512 32c45.558 0 82.822 37.438 82.822 83.2h-165.646c0-45.762 37.266-83.2 82.824-83.2zM781.178 281.6v228.8c0 126.88-89.032 235.036-207.060 262.082v29.118c0 35.364-26.914 62.4-62.118 62.4s-62.118-27.036-62.118-62.4v-29.118c-118.030-27.046-207.060-135.202-207.060-262.082v-228.8l-82.822-83.2v-41.6h704v41.6l-82.822 83.2z" />
<glyph unicode="&#xe9cc;" glyph-name="nuclear" d="M672 416c0 59.6-32.6 111.4-80.8 139l146.2 248.2c-66.2 38.6-143.2 60.8-225.4 60.8-82.4 0-159.8-22.4-226.2-61.2l143.2-250c-46.2-28-77-78.8-77-136.8h-288c0-166.6 93.8-306.8 228.8-384l140.2 244.8c23.4-13.2 50.2-20.8 79-20.8 28.6 0 55.4 7.6 78.6 20.6l140.6-244.6c135 77.2 228.8 217.4 228.8 384h-288z" />
<glyph unicode="&#xe9cd;" glyph-name="nutrition" d="M714.4 488.8l-165 165.2h-1.6c-16.2 12-36.4 20.6-56.8 20.6-27.4 0-52.2-12.6-68.6-32.6h-1.2l-315.2-510.2v-1.6c-6-12.4-10-26.6-10-41.6 0-48.8 39.4-88.6 88.6-88.6 18.8 0 36 5.8 54.8 18.2l465.8 336.2c21.8 16.6 34.8 43.2 34.8 72 0 24-9.4 46.4-25.6 62.4zM928 669.8l-58.4 98-73.2-40.6 63 111.8-98.2 57-134.6-255.6 82.6-82.8z" />
<glyph unicode="&#xe9ce;" glyph-name="open" d="M810.68 149.336h-597.36v597.328h266.68v85.336h-266.68c-46.938 0-85.32-38.394-85.32-85.336v-597.328c0-46.942 38.382-85.336 85.32-85.336h597.36c46.938 0 85.32 38.394 85.32 85.336v266.664h-85.32v-266.664zM576 832v-85.336h174.948l-430.95-430.93 59.732-59.732 430.952 430.94v-174.942h85.318v320h-320z" />
<glyph unicode="&#xe9cf;" glyph-name="options" d="M64 192h544v-64h-544v64zM800 192h160v-64h-160v64zM768 65c0-35.898-28.654-65-64-65v0c-35.346 0-64 29.102-64 65v190c0 35.898 28.654 65 64 65v0c35.346 0 64-29.102 64-65v-190zM64 480h160v-64h-160v64zM416 480h544v-64h-544v64zM384 353c0-35.898-28.654-65-64-65v0c-35.346 0-64 29.102-64 65v190c0 35.898 28.654 65 64 65v0c35.346 0 64-29.102 64-65v-190zM64 768h544v-64h-544v64zM800 768h160v-64h-160v64zM768 641c0-35.898-28.654-65-64-65v0c-35.346 0-64 29.102-64 65v190c0 35.898 28.654 65 64 65v0c35.346 0 64-29.102 64-65v-190z" />
<glyph unicode="&#xe9d0;" glyph-name="outlet" d="M739 896h-454.2c-121.8 0-220.8-101.2-220.8-225.2v-445.6c0-124 99-225.2 220.8-225.2h454.4c121.8 0 221 101.2 221 225.2v445.6c-0.2 124-99.2 225.2-221.2 225.2zM350 458v-1.4c0-21.8-18.2-40.8-39.8-40.8h-46.6c-21.6 0-39.8 19-39.8 40.8v207.2c2 21.6 18.4 40.4 39.8 40.4h46.6c21.8 0 39.8-19.6 39.8-41.6v-204.6zM594 163.2c0-22.8-17.8-35.2-40.2-35.2h-83.6c-22.4 0-40.2 16.2-40.2 39.2v58.6c0 46.6 36.2 84.6 82 84.6s82-38 82-84.6v-62.6zM800 458v-1.4c0-21.8-18.2-40.8-39.8-40.8h-48.6c-21.6 0-39.8 19-39.8 40.8v207.2c2 21.6 18.4 40.4 39.8 40.4h48.6c21.6 0 39.8-19.6 39.8-41.6v-204.6z" />
<glyph unicode="&#xe9d1;" glyph-name="paper-plane" d="M96 418.2l237.8-89.2 29.6-297 148.6 208 208-208 208 832-832-445.8zM685.8 166.2l-165.8 167 229.8 322.8-362.6-275.6-137.4 49.6 582 312.4-146-576.2z" />
<glyph unicode="&#xe9d2;" glyph-name="paper" d="M928 832h-544c-17.6 0-32-15.4-32-33v-63h-204c-46.2 0-84-37.8-84-84v-415c0-95.2 78-173 172-173h559.4c90.2 0 164.6 73.8 164.6 164v572c0 17.6-14.4 32-32 32zM352 672v-384h-84v345.6c0 13.6-1.6 26.6-6.6 38.4h90.6zM318 161.2c-22-21.2-51.6-33.2-81-33.2-29 0-56.2 11.4-77 32-20.6 20.6-32 48-32 77v396.6c0 21.2 16.8 38.4 38 38.4s38-17.2 38-38.4v-377.6c0-17.6 14.4-32 32-32h115c-3-23.2-14.4-45.2-33-62.8zM896 228c0-26.6-10.8-51.6-29.8-70.6s-44.4-29.4-70.8-29.4h-420.8c25.6 29.8 41.4 67.8 41.4 109v529h480v-538zM496 688h320v-112h-320v112zM496 512h320v-64h-320v64zM496 384h320v-64h-320v64zM816 256h-320c0 0 0-64-16-64 14 0 277.2 0 297.4 0 38.6 0 38.6 42 38.6 64z" />
<glyph unicode="&#xe9d3;" glyph-name="partly-sunny" d="M496.062 726.38l49.356 49.356 38.466-38.466-49.356-49.356-38.466 38.466zM352 708.6c-90.6 0-164.6-74-164.6-164.6 0-35 11-67.4 29.8-94 30.6 26 67.8 45.2 109.4 55.2l26.4 33.2c27.2 34.2 61.4 60.4 101.6 77.8 12.2 5.2 24.8 9.6 38 13.2-29 47.4-81.2 79.2-140.6 79.2zM324 832h56v-82h-56v82zM64 572h82v-56h-82v56zM163.2 406.4l-1.6 1.6-49.4-49.4 38.4-38.4 49.4 49.4zM158.578 775.74l49.356-49.356-38.466-38.466-49.356 49.356 38.466 38.466zM811.2 382.8c-21.8 110.4-118.8 193.2-235.2 193.2-68 0-130.2-23.8-173-77.6 58.8-4.4 113.4-26 155.6-67.8 31.2-31.2 53.2-69.2 64.2-110.6h-57.4c-26.2 74.6-96 128-181.2 128-10.2 0-24.6-1.2-35.4-3.4-91.6-18.8-156.8-94.6-156.8-188.6 0-106 86-192 192-192h416c88.4 0 160 71.6 160 160 0 84.4-65.6 153-148.8 158.8z" />
<glyph unicode="&#xe9d4;" glyph-name="pause" d="M192 64h213.4v768h-213.4v-768zM618.6 832v-768h213.4v768h-213.4z" />
<glyph unicode="&#xe9d5;" glyph-name="paw" d="M919 628.2c-9.4 21-25.4 36.2-46.2 44-9.6 3.4-19.4 5.2-29.6 5.2-43.4 0-87.4-33.4-109.8-83.2-27.6-61.8-11.6-122 37.2-140.6 9.8-3.6 20.2-5.6 31.2-5.6 44.2 0 89.2 30.6 111.8 76.2 17 35 19 73.6 5.4 104zM290.6 594.4c-22.2 49.8-66.4 83.2-109.8 83.2-10.2 0-20.2-1.8-29.6-5.2-20.8-7.8-36.6-23-46.2-44-13.8-30.4-11.8-69.2 5.4-103.8 22.6-45.6 67.6-76.2 111.8-76.2 10.8 0 21.4 1.8 31.2 5.6 48.8 18.2 64.8 78.6 37.2 140.4zM387 601.2c4-0.2 8 0 12 0.4 23.4 1.8 44.6 11.8 61.2 28.6 26.8 27.2 34.2 69.8 28.6 113.6-8.6 67.4-51.6 118-109.6 120.2 0 0-8.2 0-12.4-0.4-25.6-2.2-48.8-13-67-31.8-26.6-27.2-39.4-67.4-34.2-107.6 8.6-66.8 61.8-120.8 121.4-123zM512 512c-138.6 0-277.4-194.2-277.4-352.6 0-47.2 23.6-85.2 47-100.8 28.8-19.2 49-26.8 91-26.8 26.8 0 43.2 5 56.2 12.2 24.6 13.4 51.8 20.8 79.8 20.8h7c28 0 55.2-7.6 79.8-20.8 13-7 29.4-12.2 56.2-12.2 42.2 0 62.4 7.6 91 26.8 23.2 15.6 47 53.6 47 100.8-0.2 158.6-139 352.6-277.6 352.6zM625.2 601.8c4-0.4 8-0.4 12-0.4 59.6 2.2 113 56 121.6 123 5.2 40.4-7.6 80.8-34.2 107.6-18.4 18.6-40.6 29.2-66.2 31.2-4.2 0.4-13.4 0.4-13.4 0.4-57.8-2.2-100.8-52.2-109.6-119.8-5.6-43.8 1.8-86.6 28.6-113.6 16.8-16.6 38-26.4 61.2-28.4z" />
<glyph unicode="&#xe9d6;" glyph-name="people" d="M674.908 496c67.198 0 122.184 54.004 122.184 120 0 65.994-54.986 120-122.184 120s-122.18-54.006-122.18-120c0-65.996 54.982-120 122.18-120zM349.092 496c67.198 0 122.18 54.004 122.18 120 0 65.994-54.982 120-122.18 120s-122.184-54.006-122.184-120c0-65.996 54.986-120 122.184-120zM349.092 408c-95.716 0-285.092-45.996-285.092-140v-108h576v108c0 94.004-195.198 140-290.908 140zM674.908 385.994c-12.21 0-20.65 0-34.908-1.994 46.852-34.004 64-56 64-116v-108h256v108c0 94.004-189.376 117.994-285.092 117.994z" />
<glyph unicode="&#xe9d7;" glyph-name="person-add" d="M608 448c105.61 0 192 86.402 192 192s-86.39 192-192 192-192-86.402-192-192 86.39-192 192-192zM608 352c-127.196 0-384-64.804-384-192v-96h768v96c0 127.196-256.804 192-384 192zM224 512v128h-64v-128h-128v-64h128v-128h64v128h128v64h-128z" />
<glyph unicode="&#xe9d8;" glyph-name="person" d="M512 448c105.61 0 192 86.402 192 192s-86.39 192-192 192-192-86.402-192-192 86.39-192 192-192zM512 352c-127.196 0-384-64.804-384-192v-96h768v96c0 127.196-256.804 192-384 192z" />
<glyph unicode="&#xe9d9;" glyph-name="phone-landscape" d="M960 242.288v411.426c0 45.262-36.652 82.286-81.456 82.286h-733.088c-44.804 0-81.456-37.024-81.456-82.286v-411.426c0-45.264 36.652-82.288 81.456-82.288h733.090c44.802 0 81.454 37.024 81.454 82.288zM224 232v432h576v-432h-576z" />
<glyph unicode="&#xe9da;" glyph-name="phone-portrait" d="M717.712 896h-411.426c-45.262 0-82.286-36.652-82.286-81.456v-733.090c0-44.802 37.024-81.454 82.286-81.454h411.426c45.264 0 82.288 36.652 82.288 81.456v733.088c0 44.804-37.024 81.456-82.288 81.456zM728 160h-432v576h432v-576z" />
<glyph unicode="&#xe9db;" glyph-name="photos" d="M800 117.4v533.2c0 47-38.4 85.4-85.4 85.4h-533.2c-47 0-85.4-38.4-85.4-85.4v-533.4c0-47 38.4-85.4 85.4-85.4h533.4c46.8 0.2 85.2 38.6 85.2 85.6zM314.6 352l90.6-128 133.4 192 176-256h-533.2l133.2 192zM842.6 864h-533.2c-47 0-85.4-38.4-85.4-85.4v-10.6h522.6c47 0 85.4-38.4 85.4-85.4v-522.6h10.6c47 0 85.4 38.4 85.4 85.4v533.2c0 47-38.4 85.4-85.4 85.4z" />
<glyph unicode="&#xe9dc;" glyph-name="pie" d="M65.2 448h446.8v446.8c-10 0.8-21.2 1.2-32 1.2-229.8 0-416-186.2-416-416 0-10.8 0.4-22 1.2-32zM219.6 155.6c76.2-94.8 193.2-155.6 324.4-155.6 229.8 0 416 186.2 416 416 0 131.2-60.8 248.2-155.6 324.4-63.4 51-142.4 83.8-228.4 90.4v-446.8h-446.8c6.6-86 39.4-165 90.4-228.4z" />
<glyph unicode="&#xe9dd;" glyph-name="pin" d="M512 896c-176.008 0-320-141.114-320-313.602 0-235.198 320-582.398 320-582.398s320 347.2 320 582.398c0 172.488-143.992 313.602-320 313.602zM512 470.398c-63.992 0-114.288 49.29-114.288 112 0 62.714 50.294 112 114.288 112s114.288-49.286 114.288-112c0-62.71-50.296-112-114.288-112z" />
<glyph unicode="&#xe9de;" glyph-name="pint" d="M128 864l85.8-758.4c5.2-41.6 41-73.6 85-73.6h426.6c44 0 79.8 32 85 73.6l85.6 758.4h-768zM782 614.4h-540l-18.8 166.4h577.2l-18.4-166.4z" />
<glyph unicode="&#xe9df;" glyph-name="pizza" d="M814.4 699.2c-93 37.8-194.8 56.8-302.4 56.8-107.8 0-216.6-20.6-302.4-56-16.2-6.6-30.6-18-20.2-39s322.4-661 322.4-661l322 659.8c6.4 13.8 1.8 30.8-19.4 39.4zM372.4 552c-37.4 0-64 28.6-64 64s26.6 64 64 64c37.4 0 64-28.6 64-64s-26.6-64-64-64zM512 266c-37.4 0-64 28.6-64 64s26.6 64 64 64c37.4 0 64-28.6 64-64s-26.6-64-64-64zM651.6 512c-37.4 0-64 28.6-64 64s26.6 64 64 64c37.4 0 64-28.6 64-64s-26.6-64-64-64zM873.8 828c-104.4 41.2-233.2 68-361.8 68s-255.2-24.2-361.8-66.8c-9.4-3.8-22.2-11.2-22.2-27.6l19.4-48.2c5.6-9.8 17.4-16.4 30.2-16.4 3.6 0 8.6 0.6 14.6 3 98 37.8 206.2 59.2 320 59.2s230.4-23.2 320-59.2c7.2-2.8 11.2-3 14.6-3 13.2 0 24.4 6.6 30 16.2l19.6 48.2c-0.4 14.6-10 21.6-22.6 26.6z" />
</font>
</defs>
</svg>
